<svg xmlns="http://www.w3.org/2000/svg" xmlns:xlink="http://www.w3.org/1999/xlink" width="1024" zoomAndPan="magnify" viewBox="0 0 768 767.999994" height="1024" preserveAspectRatio="xMidYMid meet" version="1.0"><defs><clipPath id="9f4294a555"><path d="M 52.5 0 L 715.5 0 C 744.496094 0 768 23.503906 768 52.5 L 768 715.5 C 768 744.496094 744.496094 768 715.5 768 L 52.5 768 C 23.503906 768 0 744.496094 0 715.5 L 0 52.5 C 0 23.503906 23.503906 0 52.5 0 Z M 52.5 0 " clip-rule="nonzero"/></clipPath><clipPath id="b588ba53f7"><path d="M 0 0 L 768 0 L 768 768 L 0 768 Z M 0 0 " clip-rule="nonzero"/></clipPath><clipPath id="2fc86caabc"><path d="M 52.5 0 L 715.5 0 C 744.496094 0 768 23.503906 768 52.5 L 768 715.5 C 768 744.496094 744.496094 768 715.5 768 L 52.5 768 C 23.503906 768 0 744.496094 0 715.5 L 0 52.5 C 0 23.503906 23.503906 0 52.5 0 Z M 52.5 0 " clip-rule="nonzero"/></clipPath><clipPath id="26c7bd4bc3"><rect x="0" width="768" y="0" height="768"/></clipPath><clipPath id="d96a9af20d"><path d="M 447 326 L 476 326 L 476 348 L 447 348 Z M 447 326 " clip-rule="nonzero"/></clipPath><clipPath id="f05a7722bb"><path d="M 341.925781 329.148438 L 474.816406 326.914062 L 477.28125 473.363281 L 344.390625 475.597656 Z M 341.925781 329.148438 " clip-rule="nonzero"/></clipPath><clipPath id="c06c0e177b"><path d="M 339.96875 326.847656 L 475.570312 324.5625 L 478.082031 473.726562 L 342.480469 476.007812 Z M 339.96875 326.847656 " clip-rule="nonzero"/></clipPath><clipPath id="1130a1a6aa"><path d="M -153.210938 -117.988281 L 665.828125 -131.773438 L 679.609375 687.265625 L -139.425781 701.050781 Z M -153.210938 -117.988281 " clip-rule="nonzero"/></clipPath><clipPath id="efc282ba86"><path d="M 340.738281 328.136719 L 474.046875 325.894531 L 476.523438 473.066406 L 343.214844 475.308594 Z M 340.738281 328.136719 " clip-rule="nonzero"/></clipPath><clipPath id="1190618657"><path d="M 413.429688 327 L 475.867188 446.792969 L 462.988281 472.609375 L 343.1875 473.601562 L 414.453125 326.984375 Z M 413.429688 327 " clip-rule="nonzero"/></clipPath><clipPath id="88d8a2e5cf"><path d="M 444.574219 63.203125 L 656.246094 59.640625 L 661.0625 345.789062 L 449.390625 349.351562 Z M 444.574219 63.203125 " clip-rule="nonzero"/></clipPath><clipPath id="d4f24d9f5f"><path d="M 656.101562 59.878906 L 523.628906 348.128906 L 425.886719 303.210938 L 558.363281 14.960938 Z M 656.101562 59.878906 " clip-rule="nonzero"/></clipPath><clipPath id="35c71190c6"><path d="M 444.015625 62.910156 L 656.242188 59.339844 L 661.070312 346.214844 L 448.84375 349.789062 Z M 444.015625 62.910156 " clip-rule="nonzero"/></clipPath><clipPath id="d854be3cbe"><path d="M 536.425781 62.691406 L 447.929688 255.257812 L 523.726562 347.90625 L 656.101562 59.878906 Z M 536.425781 62.691406 " clip-rule="nonzero"/></clipPath><clipPath id="e17659818c"><path d="M 420.832031 16.363281 L 655.453125 12.414062 L 661.070312 346.214844 L 426.449219 350.164062 Z M 420.832031 16.363281 " clip-rule="nonzero"/></clipPath><clipPath id="8deaa33ca1"><path d="M 656.101562 59.878906 L 523.628906 348.128906 L 425.886719 303.210938 L 558.363281 14.960938 Z M 656.101562 59.878906 " clip-rule="nonzero"/></clipPath><clipPath id="27c3b7c1d6"><path d="M 444.015625 62.910156 L 656.242188 59.339844 L 661.070312 346.214844 L 448.84375 349.789062 Z M 444.015625 62.910156 " clip-rule="nonzero"/></clipPath><clipPath id="28410145fd"><path d="M 536.425781 62.691406 L 447.929688 255.257812 L 523.726562 347.90625 L 656.101562 59.878906 Z M 536.425781 62.691406 " clip-rule="nonzero"/></clipPath><clipPath id="3a9e0b936c"><path d="M 343 326 L 476 326 L 476 474 L 343 474 Z M 343 326 " clip-rule="nonzero"/></clipPath><clipPath id="527b67dbb7"><path d="M 341.925781 329.148438 L 474.816406 326.914062 L 477.28125 473.363281 L 344.390625 475.597656 Z M 341.925781 329.148438 " clip-rule="nonzero"/></clipPath><clipPath id="6986207d1d"><path d="M 339.96875 326.847656 L 475.570312 324.5625 L 478.082031 473.726562 L 342.480469 476.007812 Z M 339.96875 326.847656 " clip-rule="nonzero"/></clipPath><clipPath id="5cede9b70f"><path d="M -153.210938 -117.988281 L 665.828125 -131.773438 L 679.609375 687.265625 L -139.425781 701.050781 Z M -153.210938 -117.988281 " clip-rule="nonzero"/></clipPath><clipPath id="f7cecf1c83"><path d="M 340.738281 328.136719 L 474.046875 325.894531 L 476.523438 473.066406 L 343.214844 475.308594 Z M 340.738281 328.136719 " clip-rule="nonzero"/></clipPath><clipPath id="80b8fa4a8a"><path d="M 413.429688 327 L 475.867188 446.792969 L 462.988281 472.609375 L 343.1875 473.601562 L 414.453125 326.984375 Z M 413.429688 327 " clip-rule="nonzero"/></clipPath><clipPath id="5a67deb8f9"><path d="M 339.667969 234.199219 L 532.65625 230.949219 L 536.722656 472.566406 L 343.734375 475.8125 Z M 339.667969 234.199219 " clip-rule="nonzero"/></clipPath><clipPath id="80ac24da62"><path d="M 343.910156 474.851562 L 459.695312 232.140625 L 556.777344 278.453125 L 440.996094 521.164062 Z M 343.910156 474.851562 " clip-rule="nonzero"/></clipPath><clipPath id="9b89f73095"><path d="M 339.140625 233.222656 L 533.234375 229.957031 L 537.328125 473.109375 L 343.234375 476.375 Z M 339.140625 233.222656 " clip-rule="nonzero"/></clipPath><clipPath id="40ed12f2b1"><path d="M 463.613281 473.75 L 534.109375 325.96875 L 459.648438 232.246094 L 343.910156 474.851562 Z M 463.613281 473.75 " clip-rule="nonzero"/></clipPath><clipPath id="b7d1c13fb1"><path d="M 339.140625 233.222656 L 556.699219 229.5625 L 561.578125 519.636719 L 344.023438 523.300781 Z M 339.140625 233.222656 " clip-rule="nonzero"/></clipPath><clipPath id="9b6a7cec9b"><path d="M 343.910156 474.851562 L 459.695312 232.140625 L 556.777344 278.453125 L 440.996094 521.164062 Z M 343.910156 474.851562 " clip-rule="nonzero"/></clipPath><clipPath id="08918ddaaf"><path d="M 339.140625 233.222656 L 533.234375 229.957031 L 537.328125 473.109375 L 343.234375 476.375 Z M 339.140625 233.222656 " clip-rule="nonzero"/></clipPath><clipPath id="491fd70d2d"><path d="M 463.613281 473.75 L 534.109375 325.96875 L 459.648438 232.246094 L 343.910156 474.851562 Z M 463.613281 473.75 " clip-rule="nonzero"/></clipPath><clipPath id="d7ec823698"><path d="M 393 326 L 476 326 L 476 462 L 393 462 Z M 393 326 " clip-rule="nonzero"/></clipPath><clipPath id="dc39b242d4"><path d="M 341.925781 329.148438 L 474.816406 326.914062 L 477.28125 473.363281 L 344.390625 475.597656 Z M 341.925781 329.148438 " clip-rule="nonzero"/></clipPath><clipPath id="ca26f3ee08"><path d="M 339.96875 326.847656 L 475.570312 324.5625 L 478.082031 473.726562 L 342.480469 476.007812 Z M 339.96875 326.847656 " clip-rule="nonzero"/></clipPath><clipPath id="43014f9176"><path d="M -153.210938 -117.988281 L 665.828125 -131.773438 L 679.609375 687.265625 L -139.425781 701.050781 Z M -153.210938 -117.988281 " clip-rule="nonzero"/></clipPath><clipPath id="477c173204"><path d="M 340.738281 328.136719 L 474.046875 325.894531 L 476.523438 473.066406 L 343.214844 475.308594 Z M 340.738281 328.136719 " clip-rule="nonzero"/></clipPath><clipPath id="4f6a09fdb0"><path d="M 413.429688 327 L 475.867188 446.792969 L 462.988281 472.609375 L 343.1875 473.601562 L 414.453125 326.984375 Z M 413.429688 327 " clip-rule="nonzero"/></clipPath><clipPath id="6c1fac9a06"><path d="M 393.199219 265.808594 L 521.171875 263.65625 L 524.492188 460.996094 L 396.519531 463.148438 Z M 393.199219 265.808594 " clip-rule="nonzero"/></clipPath><clipPath id="ca99bbf6b4"><path d="M 433.894531 265.367188 L 523.988281 440.898438 L 483.753906 461.546875 L 393.65625 286.015625 Z M 433.894531 265.367188 " clip-rule="nonzero"/></clipPath><clipPath id="7dc84242d4"><path d="M 393.019531 265.386719 L 522.0625 263.214844 L 525.398438 461.574219 L 396.359375 463.746094 Z M 393.019531 265.386719 " clip-rule="nonzero"/></clipPath><clipPath id="48a4b73a72"><path d="M 433.894531 265.367188 L 523.988281 440.898438 L 483.753906 461.546875 L 393.65625 286.015625 Z M 433.894531 265.367188 " clip-rule="nonzero"/></clipPath><clipPath id="9c2c32af85"><path d="M 343 326 L 476 326 L 476 473 L 343 473 Z M 343 326 " clip-rule="nonzero"/></clipPath><clipPath id="2b7e7d7480"><path d="M 341.925781 329.148438 L 474.816406 326.914062 L 477.28125 473.363281 L 344.390625 475.597656 Z M 341.925781 329.148438 " clip-rule="nonzero"/></clipPath><clipPath id="7b36999250"><path d="M 339.96875 326.847656 L 475.570312 324.5625 L 478.082031 473.726562 L 342.480469 476.007812 Z M 339.96875 326.847656 " clip-rule="nonzero"/></clipPath><clipPath id="38d76d1927"><path d="M -153.210938 -117.988281 L 665.828125 -131.773438 L 679.609375 687.265625 L -139.425781 701.050781 Z M -153.210938 -117.988281 " clip-rule="nonzero"/></clipPath><clipPath id="e3cedc527c"><path d="M 340.738281 328.136719 L 474.046875 325.894531 L 476.523438 473.066406 L 343.214844 475.308594 Z M 340.738281 328.136719 " clip-rule="nonzero"/></clipPath><clipPath id="e994a83146"><path d="M 413.429688 327 L 475.867188 446.792969 L 462.988281 472.609375 L 343.1875 473.601562 L 414.453125 326.984375 Z M 413.429688 327 " clip-rule="nonzero"/></clipPath><clipPath id="f3ab773e87"><path d="M 324.980469 61.117188 L 647.644531 55.6875 L 654.628906 470.582031 L 331.964844 476.011719 Z M 324.980469 61.117188 " clip-rule="nonzero"/></clipPath><clipPath id="9048c9c6a4"><path d="M 420.738281 12.457031 L 654.773438 470.617188 L 559.1875 519.445312 L 325.148438 61.285156 Z M 420.738281 12.457031 " clip-rule="nonzero"/></clipPath><clipPath id="f2c06b4025"><path d="M 324.503906 60.65625 L 648.703125 55.199219 L 655.703125 471.117188 L 331.503906 476.574219 Z M 324.503906 60.65625 " clip-rule="nonzero"/></clipPath><clipPath id="4b5ddc09a1"><path d="M 444.753906 59.472656 L 654.644531 470.355469 L 535.035156 472.167969 L 325.148438 61.285156 Z M 444.753906 59.472656 " clip-rule="nonzero"/></clipPath><clipPath id="4342e2537e"><path d="M 323.710938 13.730469 L 647.914062 8.273438 L 656.496094 518.042969 L 332.292969 523.496094 Z M 323.710938 13.730469 " clip-rule="nonzero"/></clipPath><clipPath id="b486284670"><path d="M 420.738281 12.457031 L 654.773438 470.617188 L 559.1875 519.445312 L 325.148438 61.285156 Z M 420.738281 12.457031 " clip-rule="nonzero"/></clipPath><clipPath id="4a48be0bf1"><path d="M 324.503906 60.65625 L 648.703125 55.199219 L 655.703125 471.117188 L 331.503906 476.574219 Z M 324.503906 60.65625 " clip-rule="nonzero"/></clipPath><clipPath id="ea79a09147"><path d="M 444.753906 59.472656 L 654.644531 470.355469 L 535.035156 472.167969 L 325.148438 61.285156 Z M 444.753906 59.472656 " clip-rule="nonzero"/></clipPath><clipPath id="2096ff778e"><path d="M 343 326 L 476 326 L 476 473 L 343 473 Z M 343 326 " clip-rule="nonzero"/></clipPath><clipPath id="6b4d722058"><path d="M 341.925781 329.148438 L 474.816406 326.914062 L 477.28125 473.363281 L 344.390625 475.597656 Z M 341.925781 329.148438 " clip-rule="nonzero"/></clipPath><clipPath id="552623f15b"><path d="M 339.96875 326.847656 L 475.570312 324.5625 L 478.082031 473.726562 L 342.480469 476.007812 Z M 339.96875 326.847656 " clip-rule="nonzero"/></clipPath><clipPath id="f3aedb46a4"><path d="M -153.210938 -117.988281 L 665.828125 -131.773438 L 679.609375 687.265625 L -139.425781 701.050781 Z M -153.210938 -117.988281 " clip-rule="nonzero"/></clipPath><clipPath id="7ad4830f98"><path d="M 340.738281 328.136719 L 474.046875 325.894531 L 476.523438 473.066406 L 343.214844 475.308594 Z M 340.738281 328.136719 " clip-rule="nonzero"/></clipPath><clipPath id="9428c57dcb"><path d="M 413.429688 327 L 475.867188 446.792969 L 462.988281 472.609375 L 343.1875 473.601562 L 414.453125 326.984375 Z M 413.429688 327 " clip-rule="nonzero"/></clipPath><clipPath id="eb59d44118"><path d="M 324.503906 60.65625 L 648.703125 55.199219 L 655.703125 471.117188 L 331.503906 476.574219 Z M 324.503906 60.65625 " clip-rule="nonzero"/></clipPath><clipPath id="802d6605c3"><path d="M 420.738281 12.457031 L 654.730469 470.523438 L 559.269531 519.289062 L 325.277344 61.222656 Z M 420.738281 12.457031 " clip-rule="nonzero"/></clipPath><clipPath id="b60f7fc8e4"><path d="M 323.710938 13.730469 L 647.914062 8.273438 L 656.511719 519.109375 L 332.308594 524.5625 Z M 323.710938 13.730469 " clip-rule="nonzero"/></clipPath><clipPath id="7a8a23bded"><path d="M 420.746094 12.46875 L 655.265625 471.574219 L 559.296875 520.601562 L 324.773438 61.496094 Z M 420.746094 12.46875 " clip-rule="nonzero"/></clipPath><clipPath id="9139aea6a0"><path d="M 324.503906 60.65625 L 648.703125 55.199219 L 655.703125 471.117188 L 331.503906 476.574219 Z M 324.503906 60.65625 " clip-rule="nonzero"/></clipPath><clipPath id="dd2a3f164a"><path d="M 444.757812 59.480469 L 654.632812 470.335938 L 535.035156 472.148438 L 325.164062 61.296875 Z M 444.757812 59.480469 " clip-rule="nonzero"/></clipPath><clipPath id="17cdb82a9b"><path d="M 478 63 L 668 63 L 668 303 L 478 303 Z M 478 63 " clip-rule="nonzero"/></clipPath><clipPath id="f7ff4fd96a"><path d="M 667.480469 63.648438 L 552.597656 302.921875 L 455.527344 256.3125 L 570.40625 17.042969 Z M 667.480469 63.648438 " clip-rule="nonzero"/></clipPath><clipPath id="1f857749f0"><path d="M 547.644531 64.449219 L 478.3125 208.855469 L 552.625 302.867188 L 667.480469 63.648438 Z M 547.644531 64.449219 " clip-rule="nonzero"/></clipPath><clipPath id="ad85ac121f"><path d="M 0.238281 0.480469 L 189.601562 0.480469 L 189.601562 240 L 0.238281 240 Z M 0.238281 0.480469 " clip-rule="nonzero"/></clipPath><clipPath id="1a7ef1470a"><path d="M 189.480469 0.648438 L 74.597656 239.921875 L -22.472656 193.3125 L 92.40625 -45.957031 Z M 189.480469 0.648438 " clip-rule="nonzero"/></clipPath><clipPath id="16c408a709"><path d="M 69.644531 1.449219 L 0.3125 145.855469 L 74.625 239.867188 L 189.480469 0.648438 Z M 69.644531 1.449219 " clip-rule="nonzero"/></clipPath><clipPath id="3c69455028"><rect x="0" width="190" y="0" height="240"/></clipPath><clipPath id="af0def21b2"><path d="M 482 70 L 665 70 L 665 295 L 482 295 Z M 482 70 " clip-rule="nonzero"/></clipPath><clipPath id="40dc6bb294"><path d="M 664.386719 70.304688 L 556.792969 294.40625 L 459.71875 247.800781 L 567.316406 23.695312 Z M 664.386719 70.304688 " clip-rule="nonzero"/></clipPath><clipPath id="cc30e6d9f4"><path d="M 544.554688 71.101562 L 482.660156 200.015625 L 556.972656 294.03125 L 664.386719 70.304688 Z M 544.554688 71.101562 " clip-rule="nonzero"/></clipPath><clipPath id="dd70c14548"><path d="M 0.558594 0.199219 L 182.480469 0.199219 L 182.480469 224.121094 L 0.558594 224.121094 Z M 0.558594 0.199219 " clip-rule="nonzero"/></clipPath><clipPath id="a0ae96e041"><path d="M 182.386719 0.304688 L 74.792969 224.40625 L -22.28125 177.800781 L 85.316406 -46.304688 Z M 182.386719 0.304688 " clip-rule="nonzero"/></clipPath><clipPath id="b87cf1cad2"><path d="M 62.554688 1.101562 L 0.660156 130.015625 L 74.972656 224.03125 L 182.386719 0.304688 Z M 62.554688 1.101562 " clip-rule="nonzero"/></clipPath><clipPath id="51841be395"><rect x="0" width="183" y="0" height="225"/></clipPath><clipPath id="b689851bdc"><path d="M 336 59 L 660 59 L 660 475 L 336 475 Z M 336 59 " clip-rule="nonzero"/></clipPath><clipPath id="54c7b9f85a"><path d="M 432.699219 12.230469 L 659.246094 474.773438 L 562.742188 522.039062 L 336.195312 59.5 Z M 432.699219 12.230469 " clip-rule="nonzero"/></clipPath><clipPath id="d1c851ce2e"><path d="M 455.945312 59.699219 L 659.117188 474.507812 L 539.363281 474.308594 L 336.195312 59.5 Z M 455.945312 59.699219 " clip-rule="nonzero"/></clipPath><clipPath id="bf4461de37"><path d="M 0.160156 0.398438 L 323.199219 0.398438 L 323.199219 415.601562 L 0.160156 415.601562 Z M 0.160156 0.398438 " clip-rule="nonzero"/></clipPath><clipPath id="95efeb2e12"><path d="M 96.699219 -46.769531 L 323.246094 415.773438 L 226.742188 463.039062 L 0.195312 0.5 Z M 96.699219 -46.769531 " clip-rule="nonzero"/></clipPath><clipPath id="3a880bb402"><path d="M 119.945312 0.699219 L 323.117188 415.507812 L 203.363281 415.308594 L 0.195312 0.5 Z M 119.945312 0.699219 " clip-rule="nonzero"/></clipPath><clipPath id="df7ce01e19"><rect x="0" width="324" y="0" height="416"/></clipPath><clipPath id="67a1531d85"><path d="M 336 59 L 660 59 L 660 475 L 336 475 Z M 336 59 " clip-rule="nonzero"/></clipPath><clipPath id="0f4617127e"><path d="M 432.699219 12.230469 L 659.386719 475.0625 L 561.949219 522.785156 L 335.261719 59.957031 Z M 432.699219 12.230469 " clip-rule="nonzero"/></clipPath><clipPath id="b25d330d97"><path d="M 432.714844 12.265625 L 659.703125 475.710938 L 562.824219 523.160156 L 335.835938 59.714844 Z M 432.714844 12.265625 " clip-rule="nonzero"/></clipPath><clipPath id="c7b6580b5e"><path d="M 455.957031 59.722656 L 659.089844 474.457031 L 539.359375 474.257812 L 336.230469 59.523438 Z M 455.957031 59.722656 " clip-rule="nonzero"/></clipPath><clipPath id="0ac1ece320"><path d="M 266.804688 214.859375 L 386.464844 214.859375 L 386.464844 320.492188 L 266.804688 320.492188 Z M 266.804688 214.859375 " clip-rule="nonzero"/></clipPath><clipPath id="ece4c71cff"><path d="M 360.582031 214.859375 L 292.527344 214.859375 L 266.804688 267.675781 L 292.527344 320.492188 L 360.582031 320.492188 L 386.308594 267.675781 Z M 360.582031 214.859375 " clip-rule="nonzero"/></clipPath><clipPath id="32672e435f"><path d="M 0.804688 0.859375 L 120.320312 0.859375 L 120.320312 106.492188 L 0.804688 106.492188 Z M 0.804688 0.859375 " clip-rule="nonzero"/></clipPath><clipPath id="bc695ae03c"><path d="M 94.582031 0.859375 L 26.527344 0.859375 L 0.804688 53.675781 L 26.527344 106.492188 L 94.582031 106.492188 L 120.308594 53.675781 Z M 94.582031 0.859375 " clip-rule="nonzero"/></clipPath><clipPath id="b6eeb1d2b5"><rect x="0" width="121" y="0" height="107"/></clipPath><clipPath id="2dc0310a14"><path d="M 0.496094 366.335938 L 62.324219 366.335938 L 62.324219 472.195312 L 0.496094 472.195312 Z M 0.496094 366.335938 " clip-rule="nonzero"/></clipPath><clipPath id="e3d225c155"><path d="M 0.496094 0.335938 L 62.324219 0.335938 L 62.324219 106.195312 L 0.496094 106.195312 Z M 0.496094 0.335938 " clip-rule="nonzero"/></clipPath><clipPath id="e284864be4"><rect x="0" width="63" y="0" height="107"/></clipPath><clipPath id="6817e39951"><path d="M 93.796875 366.449219 L 284.101562 366.449219 L 284.101562 472.082031 L 93.796875 472.082031 Z M 93.796875 366.449219 " clip-rule="nonzero"/></clipPath><clipPath id="cfc304118d"><path d="M 0.796875 0.449219 L 191.101562 0.449219 L 191.101562 106.082031 L 0.796875 106.082031 Z M 0.796875 0.449219 " clip-rule="nonzero"/></clipPath><clipPath id="9481dd50b4"><rect x="0" width="192" y="0" height="107"/></clipPath><clipPath id="de07ff48ee"><path d="M 228.25 366.613281 L 342.609375 366.613281 L 342.609375 471.921875 L 228.25 471.921875 Z M 228.25 366.613281 " clip-rule="nonzero"/></clipPath><clipPath id="0d999a9504"><path d="M 279.769531 471.921875 L 291.0625 471.921875 L 342.582031 366.613281 L 228.25 366.613281 Z M 279.769531 471.921875 " clip-rule="nonzero"/></clipPath><clipPath id="0eb7485ba6"><path d="M 0.25 0.613281 L 114.609375 0.613281 L 114.609375 105.921875 L 0.25 105.921875 Z M 0.25 0.613281 " clip-rule="nonzero"/></clipPath><clipPath id="e60c2ecd7b"><path d="M 51.769531 105.921875 L 63.0625 105.921875 L 114.582031 0.613281 L 0.25 0.613281 Z M 51.769531 105.921875 " clip-rule="nonzero"/></clipPath><clipPath id="6b33c2b11e"><rect x="0" width="115" y="0" height="106"/></clipPath><clipPath id="8362a9cf2d"><path d="M 166.59375 366.328125 L 334.929688 366.328125 L 334.929688 472.207031 L 166.59375 472.207031 Z M 166.59375 366.328125 " clip-rule="nonzero"/></clipPath><clipPath id="38362d20e7"><path d="M 218.160156 472.207031 L 283.351562 472.207031 L 334.917969 366.328125 L 166.59375 366.328125 Z M 218.160156 472.207031 " clip-rule="nonzero"/></clipPath><clipPath id="77b3ee1ca3"><path d="M 0.59375 0.328125 L 168.929688 0.328125 L 168.929688 106.207031 L 0.59375 106.207031 Z M 0.59375 0.328125 " clip-rule="nonzero"/></clipPath><clipPath id="f54a33d59c"><path d="M 52.160156 106.207031 L 117.351562 106.207031 L 168.917969 0.328125 L 0.59375 0.328125 Z M 52.160156 106.207031 " clip-rule="nonzero"/></clipPath><clipPath id="6d453dbbce"><rect x="0" width="169" y="0" height="107"/></clipPath><clipPath id="96c5f8c5ff"><path d="M 0.496094 214.457031 L 62.324219 214.457031 L 62.324219 320.316406 L 0.496094 320.316406 Z M 0.496094 214.457031 " clip-rule="nonzero"/></clipPath><clipPath id="89a438540c"><path d="M 0.496094 0.457031 L 62.324219 0.457031 L 62.324219 106.316406 L 0.496094 106.316406 Z M 0.496094 0.457031 " clip-rule="nonzero"/></clipPath><clipPath id="d0b984d399"><rect x="0" width="63" y="0" height="107"/></clipPath><clipPath id="c2f6b12bb3"><path d="M 327.621094 214.734375 L 379.070312 214.734375 L 379.070312 320.648438 L 327.621094 320.648438 Z M 327.621094 214.734375 " clip-rule="nonzero"/></clipPath><clipPath id="8dc2308919"><path d="M 353.347656 214.734375 L 327.621094 267.675781 L 353.347656 320.617188 L 379.070312 267.675781 Z M 353.347656 214.734375 " clip-rule="nonzero"/></clipPath><clipPath id="700342ba96"><path d="M 0.621094 0.734375 L 52.070312 0.734375 L 52.070312 106.648438 L 0.621094 106.648438 Z M 0.621094 0.734375 " clip-rule="nonzero"/></clipPath><clipPath id="19f626d05e"><path d="M 26.347656 0.734375 L 0.621094 53.675781 L 26.347656 106.617188 L 52.070312 53.675781 Z M 26.347656 0.734375 " clip-rule="nonzero"/></clipPath><clipPath id="ddd128a656"><rect x="0" width="53" y="0" height="107"/></clipPath><clipPath id="452e6135d6"><path d="M 93.796875 214.726562 L 353.347656 214.726562 L 353.347656 320.628906 L 93.796875 320.628906 Z M 93.796875 214.726562 " clip-rule="nonzero"/></clipPath><clipPath id="d4a86686ec"><path d="M 0.796875 0.726562 L 260.347656 0.726562 L 260.347656 106.628906 L 0.796875 106.628906 Z M 0.796875 0.726562 " clip-rule="nonzero"/></clipPath><clipPath id="145f423187"><rect x="0" width="261" y="0" height="107"/></clipPath><clipPath id="8db2a30a71"><path d="M 0.816406 61.871094 L 62.644531 61.871094 L 62.644531 167.730469 L 0.816406 167.730469 Z M 0.816406 61.871094 " clip-rule="nonzero"/></clipPath><clipPath id="8c3d8978a1"><path d="M 0.816406 0.871094 L 62.644531 0.871094 L 62.644531 106.730469 L 0.816406 106.730469 Z M 0.816406 0.871094 " clip-rule="nonzero"/></clipPath><clipPath id="60daad67df"><rect x="0" width="63" y="0" height="107"/></clipPath><clipPath id="fcfe473b67"><path d="M 233.4375 61.945312 L 347.710938 61.945312 L 347.710938 167.558594 L 233.4375 167.558594 Z M 233.4375 61.945312 " clip-rule="nonzero"/></clipPath><clipPath id="ab8e2a72eb"><path d="M 295.609375 61.945312 L 285.699219 61.945312 L 233.59375 167.558594 L 347.710938 167.558594 Z M 295.609375 61.945312 " clip-rule="nonzero"/></clipPath><clipPath id="4eac735146"><path d="M 0.441406 0.945312 L 114.710938 0.945312 L 114.710938 106.558594 L 0.441406 106.558594 Z M 0.441406 0.945312 " clip-rule="nonzero"/></clipPath><clipPath id="8f7fe806f5"><path d="M 62.609375 0.945312 L 52.699219 0.945312 L 0.59375 106.558594 L 114.710938 106.558594 Z M 62.609375 0.945312 " clip-rule="nonzero"/></clipPath><clipPath id="e50172c670"><rect x="0" width="115" y="0" height="107"/></clipPath><clipPath id="24ed7d875c"><path d="M 227 61.960938 L 341.136719 61.960938 L 341.136719 167.589844 L 227 167.589844 Z M 227 61.960938 " clip-rule="nonzero"/></clipPath><clipPath id="4c105177e6"><path d="M 289.496094 61.960938 L 278.65625 61.960938 L 227.019531 167.589844 L 341.136719 167.589844 Z M 289.496094 61.960938 " clip-rule="nonzero"/></clipPath><clipPath id="e66bec24b3"><path d="M 0 0.960938 L 114.136719 0.960938 L 114.136719 106.589844 L 0 106.589844 Z M 0 0.960938 " clip-rule="nonzero"/></clipPath><clipPath id="5101290c82"><path d="M 62.496094 0.960938 L 51.65625 0.960938 L 0.0195312 106.589844 L 114.136719 106.589844 Z M 62.496094 0.960938 " clip-rule="nonzero"/></clipPath><clipPath id="942f0f1afb"><rect x="0" width="115" y="0" height="107"/></clipPath><clipPath id="17d2bce79f"><path d="M 227.214844 61.804688 L 341.136719 61.804688 L 341.136719 167.585938 L 227.214844 167.585938 Z M 227.214844 61.804688 " clip-rule="nonzero"/></clipPath><clipPath id="b9d5cb24a5"><path d="M 289.507812 61.980469 L 278.671875 61.980469 L 227.042969 167.585938 L 341.136719 167.585938 Z M 289.507812 61.980469 " clip-rule="nonzero"/></clipPath><clipPath id="53b0fbe546"><path d="M 93.796875 61.976562 L 289.054688 61.976562 L 289.054688 167.609375 L 93.796875 167.609375 Z M 93.796875 61.976562 " clip-rule="nonzero"/></clipPath><clipPath id="40a6765d75"><path d="M 0.796875 0.976562 L 196 0.976562 L 196 106.609375 L 0.796875 106.609375 Z M 0.796875 0.976562 " clip-rule="nonzero"/></clipPath><clipPath id="4192850c28"><rect x="0" width="197" y="0" height="107"/></clipPath><clipPath id="3682f24137"><path d="M 93.8125 61.976562 L 289.039062 61.976562 L 289.039062 167.589844 L 93.8125 167.589844 Z M 93.8125 61.976562 " clip-rule="nonzero"/></clipPath><clipPath id="c956be17f2"><rect x="0" width="671" y="0" height="531"/></clipPath></defs><g clip-path="url(#9f4294a555)"><g transform="matrix(1, 0, 0, 1, 0, -0.000000000000057351)"><g clip-path="url(#26c7bd4bc3)"><g clip-path="url(#b588ba53f7)"><g clip-path="url(#2fc86caabc)"><rect x="-168.96" width="1105.92" fill="#fffefa" height="1105.919991" y="-168.959999" fill-opacity="1"/></g></g></g></g></g><g transform="matrix(1, 0, 0, 1, 50, 117)"><g clip-path="url(#c956be17f2)"><g clip-path="url(#d96a9af20d)"><g clip-path="url(#f05a7722bb)"><g clip-path="url(#c06c0e177b)"><g clip-path="url(#1130a1a6aa)"><g clip-path="url(#efc282ba86)"><g clip-path="url(#1190618657)"><g clip-path="url(#88d8a2e5cf)"><g clip-path="url(#d4f24d9f5f)"><g clip-path="url(#35c71190c6)"><g clip-path="url(#d854be3cbe)"><g clip-path="url(#e17659818c)"><g clip-path="url(#8deaa33ca1)"><g clip-path="url(#27c3b7c1d6)"><g clip-path="url(#28410145fd)"><path fill="#000000" d="M 656.101562 59.878906 L 523.800781 347.746094 L 426.066406 302.828125 L 558.363281 14.960938 Z M 656.101562 59.878906 " fill-opacity="1" fill-rule="nonzero"/></g></g></g></g></g></g></g></g></g></g></g></g></g></g><g clip-path="url(#3a9e0b936c)"><g clip-path="url(#527b67dbb7)"><g clip-path="url(#6986207d1d)"><g clip-path="url(#5cede9b70f)"><g clip-path="url(#f7cecf1c83)"><g clip-path="url(#80b8fa4a8a)"><g clip-path="url(#5a67deb8f9)"><g clip-path="url(#80ac24da62)"><g clip-path="url(#9b89f73095)"><g clip-path="url(#40ed12f2b1)"><g clip-path="url(#b7d1c13fb1)"><g clip-path="url(#9b6a7cec9b)"><g clip-path="url(#08918ddaaf)"><g clip-path="url(#491fd70d2d)"><path fill="#000000" d="M 343.910156 474.851562 L 459.695312 232.140625 L 556.777344 278.453125 L 440.996094 521.164062 Z M 343.910156 474.851562 " fill-opacity="1" fill-rule="nonzero"/></g></g></g></g></g></g></g></g></g></g></g></g></g></g><g clip-path="url(#d7ec823698)"><g clip-path="url(#dc39b242d4)"><g clip-path="url(#ca26f3ee08)"><g clip-path="url(#43014f9176)"><g clip-path="url(#477c173204)"><g clip-path="url(#4f6a09fdb0)"><g clip-path="url(#6c1fac9a06)"><g clip-path="url(#ca99bbf6b4)"><g clip-path="url(#7dc84242d4)"><g clip-path="url(#48a4b73a72)"><path fill="#ffffff" d="M 433.894531 265.367188 L 524 440.921875 L 483.765625 461.570312 L 393.65625 286.015625 Z M 433.894531 265.367188 " fill-opacity="1" fill-rule="nonzero"/></g></g></g></g></g></g></g></g></g></g><g clip-path="url(#9c2c32af85)"><g clip-path="url(#2b7e7d7480)"><g clip-path="url(#7b36999250)"><g clip-path="url(#38d76d1927)"><g clip-path="url(#e3cedc527c)"><g clip-path="url(#e994a83146)"><g clip-path="url(#f3ab773e87)"><g clip-path="url(#9048c9c6a4)"><g clip-path="url(#f2c06b4025)"><g clip-path="url(#4b5ddc09a1)"><g clip-path="url(#4342e2537e)"><g clip-path="url(#b486284670)"><g clip-path="url(#4a48be0bf1)"><g clip-path="url(#ea79a09147)"><path fill="#ffffff" d="M 420.738281 12.457031 L 654.585938 470.242188 L 558.996094 519.074219 L 325.148438 61.285156 Z M 420.738281 12.457031 " fill-opacity="1" fill-rule="nonzero"/></g></g></g></g></g></g></g></g></g></g></g></g></g></g><g clip-path="url(#2096ff778e)"><g clip-path="url(#6b4d722058)"><g clip-path="url(#552623f15b)"><g clip-path="url(#f3aedb46a4)"><g clip-path="url(#7ad4830f98)"><g clip-path="url(#9428c57dcb)"><g clip-path="url(#eb59d44118)"><g clip-path="url(#802d6605c3)"><g clip-path="url(#b60f7fc8e4)"><g clip-path="url(#7a8a23bded)"><g clip-path="url(#9139aea6a0)"><g clip-path="url(#dd2a3f164a)"><path stroke-linecap="butt" transform="matrix(0.363908, 0.712391, -0.712391, 0.363908, 420.744044, 12.470331)" fill="none" stroke-linejoin="miter" d="M 65.989116 0.000272828 L 642.716332 0.00113176 L 576.722625 134.171904 L 0.0019788 134.168918 Z M 65.989116 0.000272828 " stroke="#000000" stroke-width="4" stroke-opacity="1" stroke-miterlimit="4"/></g></g></g></g></g></g></g></g></g></g></g></g><g clip-path="url(#17cdb82a9b)"><g clip-path="url(#f7ff4fd96a)"><g clip-path="url(#1f857749f0)"><g transform="matrix(1, 0, 0, 1, 478, 63)"><g clip-path="url(#3c69455028)"><g clip-path="url(#ad85ac121f)"><g clip-path="url(#1a7ef1470a)"><g clip-path="url(#16c408a709)"><path fill="#20bc61" d="M 189.480469 0.648438 L 74.597656 239.921875 L -22.472656 193.3125 L 92.40625 -45.957031 Z M 189.480469 0.648438 " fill-opacity="1" fill-rule="nonzero"/></g></g></g></g></g></g></g></g><g clip-path="url(#af0def21b2)"><g clip-path="url(#40dc6bb294)"><g clip-path="url(#cc30e6d9f4)"><g transform="matrix(1, 0, 0, 1, 482, 70)"><g clip-path="url(#51841be395)"><g clip-path="url(#dd70c14548)"><g clip-path="url(#a0ae96e041)"><g clip-path="url(#b87cf1cad2)"><path fill="#000000" d="M 182.386719 0.304688 L 74.972656 224.027344 L -22.101562 177.421875 L 85.316406 -46.304688 Z M 182.386719 0.304688 " fill-opacity="1" fill-rule="nonzero"/></g></g></g></g></g></g></g></g><g clip-path="url(#b689851bdc)"><g clip-path="url(#54c7b9f85a)"><g clip-path="url(#d1c851ce2e)"><g transform="matrix(1, 0, 0, 1, 336, 59)"><g clip-path="url(#df7ce01e19)"><g clip-path="url(#bf4461de37)"><g clip-path="url(#95efeb2e12)"><g clip-path="url(#3a880bb402)"><path fill="#20bc61" d="M 96.699219 -46.769531 L 323.058594 415.394531 L 226.554688 462.660156 L 0.195312 0.5 Z M 96.699219 -46.769531 " fill-opacity="1" fill-rule="nonzero"/></g></g></g></g></g></g></g></g><g clip-path="url(#67a1531d85)"><g clip-path="url(#0f4617127e)"><g clip-path="url(#b25d330d97)"><g clip-path="url(#c7b6580b5e)"><path stroke-linecap="butt" transform="matrix(1.193091, 2.435944, -2.435944, 1.193091, 432.714763, 12.265121)" fill="none" stroke-linejoin="miter" d="M 19.481908 0.000586333 L 189.738308 0.0000239224 L 170.256315 39.609585 L 0.000547801 39.608854 Z M 19.481908 0.000586333 " stroke="#000000" stroke-width="1.106018" stroke-opacity="1" stroke-miterlimit="4"/></g></g></g></g><g clip-path="url(#0ac1ece320)"><g clip-path="url(#ece4c71cff)"><g transform="matrix(1, 0, 0, 1, 266, 214)"><g clip-path="url(#b6eeb1d2b5)"><g clip-path="url(#32672e435f)"><g clip-path="url(#bc695ae03c)"><path fill="#20bc61" d="M 0.804688 0.859375 L 120.464844 0.859375 L 120.464844 106.492188 L 0.804688 106.492188 Z M 0.804688 0.859375 " fill-opacity="1" fill-rule="nonzero"/></g></g></g></g></g></g><g clip-path="url(#2dc0310a14)"><g transform="matrix(1, 0, 0, 1, 0, 366)"><g clip-path="url(#e284864be4)"><g clip-path="url(#e3d225c155)"><path fill="#20bc61" d="M 0.496094 0.335938 L 62.324219 0.335938 L 62.324219 106.117188 L 0.496094 106.117188 Z M 0.496094 0.335938 " fill-opacity="1" fill-rule="nonzero"/></g></g></g></g><g clip-path="url(#6817e39951)"><g transform="matrix(1, 0, 0, 1, 93, 366)"><g clip-path="url(#9481dd50b4)"><g clip-path="url(#cfc304118d)"><path fill="#000000" d="M 0.796875 0.449219 L 191.019531 0.449219 L 191.019531 106.082031 L 0.796875 106.082031 Z M 0.796875 0.449219 " fill-opacity="1" fill-rule="nonzero"/></g></g></g></g><g clip-path="url(#de07ff48ee)"><g clip-path="url(#0d999a9504)"><g transform="matrix(1, 0, 0, 1, 228, 366)"><g clip-path="url(#6b33c2b11e)"><g clip-path="url(#0eb7485ba6)"><g clip-path="url(#e60c2ecd7b)"><path fill="#20bc61" d="M 0.25 0.613281 L 114.609375 0.613281 L 114.609375 105.921875 L 0.25 105.921875 Z M 0.25 0.613281 " fill-opacity="1" fill-rule="nonzero"/></g></g></g></g></g></g><g clip-path="url(#8362a9cf2d)"><g clip-path="url(#38362d20e7)"><g transform="matrix(1, 0, 0, 1, 166, 366)"><g clip-path="url(#6d453dbbce)"><g clip-path="url(#77b3ee1ca3)"><g clip-path="url(#f54a33d59c)"><path fill="#000000" d="M 0.59375 0.328125 L 168.929688 0.328125 L 168.929688 106.207031 L 0.59375 106.207031 Z M 0.59375 0.328125 " fill-opacity="1" fill-rule="nonzero"/></g></g></g></g></g></g><g clip-path="url(#96c5f8c5ff)"><g transform="matrix(1, 0, 0, 1, 0, 214)"><g clip-path="url(#d0b984d399)"><g clip-path="url(#89a438540c)"><path fill="#20bc61" d="M 0.496094 0.457031 L 62.324219 0.457031 L 62.324219 106.238281 L 0.496094 106.238281 Z M 0.496094 0.457031 " fill-opacity="1" fill-rule="nonzero"/></g></g></g></g><g clip-path="url(#c2f6b12bb3)"><g clip-path="url(#8dc2308919)"><g transform="matrix(1, 0, 0, 1, 327, 214)"><g clip-path="url(#ddd128a656)"><g clip-path="url(#700342ba96)"><g clip-path="url(#19f626d05e)"><path fill="#000000" d="M 0.621094 0.734375 L 52.070312 0.734375 L 52.070312 106.648438 L 0.621094 106.648438 Z M 0.621094 0.734375 " fill-opacity="1" fill-rule="nonzero"/></g></g></g></g></g></g><g clip-path="url(#452e6135d6)"><g transform="matrix(1, 0, 0, 1, 93, 214)"><g clip-path="url(#145f423187)"><g clip-path="url(#d4a86686ec)"><path fill="#000000" d="M 0.796875 0.726562 L 260.179688 0.726562 L 260.179688 106.628906 L 0.796875 106.628906 Z M 0.796875 0.726562 " fill-opacity="1" fill-rule="nonzero"/></g></g></g></g><g clip-path="url(#8db2a30a71)"><g transform="matrix(1, 0, 0, 1, 0, 61)"><g clip-path="url(#60daad67df)"><g clip-path="url(#8c3d8978a1)"><path fill="#20bc61" d="M 0.816406 0.871094 L 62.644531 0.871094 L 62.644531 106.65625 L 0.816406 106.65625 Z M 0.816406 0.871094 " fill-opacity="1" fill-rule="nonzero"/></g></g></g></g><g clip-path="url(#fcfe473b67)"><g clip-path="url(#ab8e2a72eb)"><g transform="matrix(1, 0, 0, 1, 233, 61)"><g clip-path="url(#e50172c670)"><g clip-path="url(#4eac735146)"><g clip-path="url(#8f7fe806f5)"><path fill="#20bc61" d="M 114.710938 106.558594 L 0.4375 106.558594 L 0.4375 0.945312 L 114.710938 0.945312 Z M 114.710938 106.558594 " fill-opacity="1" fill-rule="nonzero"/></g></g></g></g></g></g><g clip-path="url(#24ed7d875c)"><g clip-path="url(#4c105177e6)"><g transform="matrix(1, 0, 0, 1, 227, 61)"><g clip-path="url(#942f0f1afb)"><g clip-path="url(#e66bec24b3)"><g clip-path="url(#5101290c82)"><path fill="#000000" d="M 114.136719 106.589844 L -0.160156 106.589844 L -0.160156 0.960938 L 114.136719 0.960938 Z M 114.136719 106.589844 " fill-opacity="1" fill-rule="nonzero"/></g></g></g></g></g></g><g clip-path="url(#17d2bce79f)"><g clip-path="url(#b9d5cb24a5)"><path stroke-linecap="butt" transform="matrix(-2.712432, 0, 0, -2.712432, 341.135121, 167.587506)" fill="none" stroke-linejoin="miter" d="M 19.033586 38.934445 L 23.028502 38.934445 L 42.062677 0.000578233 L -0.000588956 0.000578233 Z M 19.033586 38.934445 " stroke="#000000" stroke-width="0.553009" stroke-opacity="1" stroke-miterlimit="4"/></g></g><g clip-path="url(#53b0fbe546)"><g transform="matrix(1, 0, 0, 1, 93, 61)"><g clip-path="url(#4192850c28)"><g clip-path="url(#40a6765d75)"><path fill="#000000" d="M 0.796875 0.976562 L 195.96875 0.976562 L 195.96875 106.609375 L 0.796875 106.609375 Z M 0.796875 0.976562 " fill-opacity="1" fill-rule="nonzero"/></g></g></g></g><g clip-path="url(#3682f24137)"><path stroke-linecap="butt" transform="matrix(2.712432, 0, 0, 2.712432, 93.811867, 61.975689)" fill="none" stroke-linejoin="miter" d="M 0.000233339 0.00032213 L 71.974951 0.00032213 L 71.974951 38.937063 L 0.000233339 38.937063 Z M 0.000233339 0.00032213 " stroke="#000000" stroke-width="0.553009" stroke-opacity="1" stroke-miterlimit="4"/></g></g></g></svg>