<svg xmlns="http://www.w3.org/2000/svg" xmlns:xlink="http://www.w3.org/1999/xlink" width="1024" zoomAndPan="magnify" viewBox="0 0 768 149.999998" height="200" preserveAspectRatio="xMidYMid meet" version="1.0"><defs><clipPath id="6cc30dda74"><path d="M 126 91 L 134 91 L 134 98 L 126 98 Z M 126 91 " clip-rule="nonzero"/></clipPath><clipPath id="135dde1735"><path d="M 96.496094 92.320312 L 133.242188 91.699219 L 133.921875 132.195312 L 97.175781 132.8125 Z M 96.496094 92.320312 " clip-rule="nonzero"/></clipPath><clipPath id="6b074bbe42"><path d="M -41.453125 -32.257812 L 186.515625 -36.09375 L 190.351562 191.875 L -37.617188 195.710938 Z M -41.453125 -32.257812 " clip-rule="nonzero"/></clipPath><clipPath id="8a4e6c5fbb"><path d="M 96.222656 92.089844 L 133.378906 91.464844 L 134.066406 132.484375 L 96.914062 133.109375 Z M 96.222656 92.089844 " clip-rule="nonzero"/></clipPath><clipPath id="bc825593e7"><path d="M 116.484375 91.769531 L 133.886719 125.160156 L 130.296875 132.355469 L 96.90625 132.632812 L 116.769531 91.765625 Z M 116.484375 91.769531 " clip-rule="nonzero"/></clipPath><clipPath id="0e42fe5e34"><path d="M 125.164062 18.246094 L 184.160156 17.25 L 185.503906 97.007812 L 126.507812 98 Z M 125.164062 18.246094 " clip-rule="nonzero"/></clipPath><clipPath id="28db84263e"><path d="M 184.121094 17.320312 L 147.199219 97.660156 L 119.957031 85.140625 L 156.878906 4.800781 Z M 184.121094 17.320312 " clip-rule="nonzero"/></clipPath><clipPath id="07aa9ab4be"><path d="M 125.007812 18.164062 L 184.160156 17.167969 L 185.503906 97.128906 L 126.355469 98.121094 Z M 125.007812 18.164062 " clip-rule="nonzero"/></clipPath><clipPath id="aafb05255b"><path d="M 150.765625 18.101562 L 126.097656 71.773438 L 147.226562 97.597656 L 184.121094 17.320312 Z M 150.765625 18.101562 " clip-rule="nonzero"/></clipPath><clipPath id="c52ef7981f"><path d="M 118.546875 5.191406 L 183.941406 4.089844 L 185.503906 97.128906 L 120.113281 98.226562 Z M 118.546875 5.191406 " clip-rule="nonzero"/></clipPath><clipPath id="dbfbc4ce4d"><path d="M 184.121094 17.320312 L 147.199219 97.660156 L 119.957031 85.140625 L 156.878906 4.800781 Z M 184.121094 17.320312 " clip-rule="nonzero"/></clipPath><clipPath id="f2f44cc185"><path d="M 125.007812 18.164062 L 184.160156 17.167969 L 185.503906 97.128906 L 126.355469 98.121094 Z M 125.007812 18.164062 " clip-rule="nonzero"/></clipPath><clipPath id="3d388989ac"><path d="M 150.765625 18.101562 L 126.097656 71.773438 L 147.226562 97.597656 L 184.121094 17.320312 Z M 150.765625 18.101562 " clip-rule="nonzero"/></clipPath><clipPath id="ee38b7a793"><path d="M 97 91 L 134 91 L 134 133 L 97 133 Z M 97 91 " clip-rule="nonzero"/></clipPath><clipPath id="564463dbc8"><path d="M 96.496094 92.320312 L 133.242188 91.699219 L 133.921875 132.195312 L 97.175781 132.8125 Z M 96.496094 92.320312 " clip-rule="nonzero"/></clipPath><clipPath id="a1bf3f1b34"><path d="M -41.453125 -32.257812 L 186.515625 -36.09375 L 190.351562 191.875 L -37.617188 195.710938 Z M -41.453125 -32.257812 " clip-rule="nonzero"/></clipPath><clipPath id="2a7410ded5"><path d="M 96.222656 92.089844 L 133.378906 91.464844 L 134.066406 132.484375 L 96.914062 133.109375 Z M 96.222656 92.089844 " clip-rule="nonzero"/></clipPath><clipPath id="5e187f0fbc"><path d="M 116.484375 91.769531 L 133.886719 125.160156 L 130.296875 132.355469 L 96.90625 132.632812 L 116.769531 91.765625 Z M 116.484375 91.769531 " clip-rule="nonzero"/></clipPath><clipPath id="be46dfd2fd"><path d="M 95.925781 65.90625 L 149.714844 65 L 150.847656 132.34375 L 97.058594 133.25 Z M 95.925781 65.90625 " clip-rule="nonzero"/></clipPath><clipPath id="0e41180a44"><path d="M 97.105469 132.980469 L 129.378906 65.332031 L 156.4375 78.238281 L 124.164062 145.890625 Z M 97.105469 132.980469 " clip-rule="nonzero"/></clipPath><clipPath id="7cd972397b"><path d="M 95.777344 65.632812 L 149.875 64.722656 L 151.015625 132.496094 L 96.917969 133.40625 Z M 95.777344 65.632812 " clip-rule="nonzero"/></clipPath><clipPath id="198c9ec5c1"><path d="M 130.46875 132.671875 L 150.117188 91.484375 L 129.363281 65.359375 L 97.105469 132.980469 Z M 130.46875 132.671875 " clip-rule="nonzero"/></clipPath><clipPath id="1f9aa483e1"><path d="M 95.777344 65.632812 L 156.414062 64.613281 L 157.777344 145.464844 L 97.136719 146.484375 Z M 95.777344 65.632812 " clip-rule="nonzero"/></clipPath><clipPath id="36babecfc2"><path d="M 97.105469 132.980469 L 129.378906 65.332031 L 156.4375 78.238281 L 124.164062 145.890625 Z M 97.105469 132.980469 " clip-rule="nonzero"/></clipPath><clipPath id="de0f829ec6"><path d="M 95.777344 65.632812 L 149.875 64.722656 L 151.015625 132.496094 L 96.917969 133.40625 Z M 95.777344 65.632812 " clip-rule="nonzero"/></clipPath><clipPath id="49c8fd9a33"><path d="M 130.46875 132.671875 L 150.117188 91.484375 L 129.363281 65.359375 L 97.105469 132.980469 Z M 130.46875 132.671875 " clip-rule="nonzero"/></clipPath><clipPath id="a4f832c9d1"><path d="M 110 91 L 134 91 L 134 130 L 110 130 Z M 110 91 " clip-rule="nonzero"/></clipPath><clipPath id="f14eea1999"><path d="M 96.496094 92.320312 L 133.242188 91.699219 L 133.921875 132.195312 L 97.175781 132.8125 Z M 96.496094 92.320312 " clip-rule="nonzero"/></clipPath><clipPath id="c5f1529885"><path d="M -41.453125 -32.257812 L 186.515625 -36.09375 L 190.351562 191.875 L -37.617188 195.710938 Z M -41.453125 -32.257812 " clip-rule="nonzero"/></clipPath><clipPath id="5d89272864"><path d="M 96.222656 92.089844 L 133.378906 91.464844 L 134.066406 132.484375 L 96.914062 133.109375 Z M 96.222656 92.089844 " clip-rule="nonzero"/></clipPath><clipPath id="46464a8cd3"><path d="M 116.484375 91.769531 L 133.886719 125.160156 L 130.296875 132.355469 L 96.90625 132.632812 L 116.769531 91.765625 Z M 116.484375 91.769531 " clip-rule="nonzero"/></clipPath><clipPath id="2a17ff34cb"><path d="M 110.84375 74.714844 L 146.511719 74.117188 L 147.4375 129.117188 L 111.769531 129.71875 Z M 110.84375 74.714844 " clip-rule="nonzero"/></clipPath><clipPath id="6a78225ea6"><path d="M 122.1875 74.59375 L 147.296875 123.515625 L 136.082031 129.273438 L 110.972656 80.347656 Z M 122.1875 74.59375 " clip-rule="nonzero"/></clipPath><clipPath id="5be3d0503d"><path d="M 110.792969 74.597656 L 146.761719 73.992188 L 147.691406 129.28125 L 111.722656 129.886719 Z M 110.792969 74.597656 " clip-rule="nonzero"/></clipPath><clipPath id="e01e2fb505"><path d="M 122.1875 74.59375 L 147.296875 123.515625 L 136.082031 129.273438 L 110.972656 80.347656 Z M 122.1875 74.59375 " clip-rule="nonzero"/></clipPath><clipPath id="ed4514d78f"><path d="M 96 91 L 134 91 L 134 133 L 96 133 Z M 96 91 " clip-rule="nonzero"/></clipPath><clipPath id="ecd3b1974a"><path d="M 96.496094 92.320312 L 133.242188 91.699219 L 133.921875 132.195312 L 97.175781 132.8125 Z M 96.496094 92.320312 " clip-rule="nonzero"/></clipPath><clipPath id="8714150d0a"><path d="M -41.453125 -32.257812 L 186.515625 -36.09375 L 190.351562 191.875 L -37.617188 195.710938 Z M -41.453125 -32.257812 " clip-rule="nonzero"/></clipPath><clipPath id="ad75897e46"><path d="M 96.222656 92.089844 L 133.378906 91.464844 L 134.066406 132.484375 L 96.914062 133.109375 Z M 96.222656 92.089844 " clip-rule="nonzero"/></clipPath><clipPath id="70b55a29b0"><path d="M 116.484375 91.769531 L 133.886719 125.160156 L 130.296875 132.355469 L 96.90625 132.632812 L 116.769531 91.765625 Z M 116.484375 91.769531 " clip-rule="nonzero"/></clipPath><clipPath id="2cd3d698e6"><path d="M 91.828125 17.664062 L 181.765625 16.152344 L 183.710938 131.789062 L 93.777344 133.304688 Z M 91.828125 17.664062 " clip-rule="nonzero"/></clipPath><clipPath id="4cbd7c0da8"><path d="M 118.519531 4.101562 L 183.75 131.800781 L 157.109375 145.410156 L 91.878906 17.710938 Z M 118.519531 4.101562 " clip-rule="nonzero"/></clipPath><clipPath id="0c14ee72a1"><path d="M 91.695312 17.535156 L 182.058594 16.015625 L 184.011719 131.941406 L 93.648438 133.460938 Z M 91.695312 17.535156 " clip-rule="nonzero"/></clipPath><clipPath id="149b9b603a"><path d="M 125.214844 17.207031 L 183.714844 131.726562 L 150.378906 132.234375 L 91.878906 17.710938 Z M 125.214844 17.207031 " clip-rule="nonzero"/></clipPath><clipPath id="d679814ad7"><path d="M 91.476562 4.457031 L 181.839844 2.933594 L 184.230469 145.019531 L 93.867188 146.539062 Z M 91.476562 4.457031 " clip-rule="nonzero"/></clipPath><clipPath id="66a374c8be"><path d="M 118.519531 4.101562 L 183.75 131.800781 L 157.109375 145.410156 L 91.878906 17.710938 Z M 118.519531 4.101562 " clip-rule="nonzero"/></clipPath><clipPath id="554ce16ed0"><path d="M 91.695312 17.535156 L 182.058594 16.015625 L 184.011719 131.941406 L 93.648438 133.460938 Z M 91.695312 17.535156 " clip-rule="nonzero"/></clipPath><clipPath id="0d1f3bd6f4"><path d="M 125.214844 17.207031 L 183.714844 131.726562 L 150.378906 132.234375 L 91.878906 17.710938 Z M 125.214844 17.207031 " clip-rule="nonzero"/></clipPath><clipPath id="1520a02117"><path d="M 96 91 L 134 91 L 134 133 L 96 133 Z M 96 91 " clip-rule="nonzero"/></clipPath><clipPath id="568e2b3eeb"><path d="M 96.496094 92.320312 L 133.242188 91.699219 L 133.921875 132.195312 L 97.175781 132.8125 Z M 96.496094 92.320312 " clip-rule="nonzero"/></clipPath><clipPath id="f9c54eb217"><path d="M -41.453125 -32.257812 L 186.515625 -36.09375 L 190.351562 191.875 L -37.617188 195.710938 Z M -41.453125 -32.257812 " clip-rule="nonzero"/></clipPath><clipPath id="8059b84a24"><path d="M 96.222656 92.089844 L 133.378906 91.464844 L 134.066406 132.484375 L 96.914062 133.109375 Z M 96.222656 92.089844 " clip-rule="nonzero"/></clipPath><clipPath id="a00522c3bd"><path d="M 116.484375 91.769531 L 133.886719 125.160156 L 130.296875 132.355469 L 96.90625 132.632812 L 116.769531 91.765625 Z M 116.484375 91.769531 " clip-rule="nonzero"/></clipPath><clipPath id="100a19e793"><path d="M 91.695312 17.535156 L 182.058594 16.015625 L 184.011719 131.941406 L 93.648438 133.460938 Z M 91.695312 17.535156 " clip-rule="nonzero"/></clipPath><clipPath id="9d538b4101"><path d="M 118.519531 4.101562 L 183.738281 131.773438 L 157.132812 145.367188 L 91.914062 17.691406 Z M 118.519531 4.101562 " clip-rule="nonzero"/></clipPath><clipPath id="fecff716c0"><path d="M 91.476562 4.457031 L 181.839844 2.933594 L 184.234375 145.316406 L 93.871094 146.835938 Z M 91.476562 4.457031 " clip-rule="nonzero"/></clipPath><clipPath id="29f662d580"><path d="M 118.523438 4.105469 L 183.886719 132.066406 L 157.140625 145.730469 L 91.773438 17.769531 Z M 118.523438 4.105469 " clip-rule="nonzero"/></clipPath><clipPath id="3dfc9d5329"><path d="M 91.695312 17.535156 L 182.058594 16.015625 L 184.011719 131.941406 L 93.648438 133.460938 Z M 91.695312 17.535156 " clip-rule="nonzero"/></clipPath><clipPath id="b913ac7d49"><path d="M 125.214844 17.207031 L 183.710938 131.722656 L 150.378906 132.226562 L 91.882812 17.714844 Z M 125.214844 17.207031 " clip-rule="nonzero"/></clipPath><clipPath id="ba2379d8ae"><path d="M 134 18 L 188 18 L 188 85 L 134 85 Z M 134 18 " clip-rule="nonzero"/></clipPath><clipPath id="9a10cde188"><path d="M 187.21875 18.335938 L 155.203125 85.011719 L 128.152344 72.023438 L 160.167969 5.347656 Z M 187.21875 18.335938 " clip-rule="nonzero"/></clipPath><clipPath id="8f67210b4d"><path d="M 153.824219 18.558594 L 134.503906 58.796875 L 155.210938 84.996094 L 187.21875 18.335938 Z M 153.824219 18.558594 " clip-rule="nonzero"/></clipPath><clipPath id="b2fbd38cfc"><path d="M 0.398438 0.238281 L 53.441406 0.238281 L 53.441406 67 L 0.398438 67 Z M 0.398438 0.238281 " clip-rule="nonzero"/></clipPath><clipPath id="84692c5d31"><path d="M 53.21875 0.335938 L 21.203125 67.011719 L -5.847656 54.023438 L 26.167969 -12.652344 Z M 53.21875 0.335938 " clip-rule="nonzero"/></clipPath><clipPath id="f5dddc2fc1"><path d="M 19.824219 0.558594 L 0.503906 40.796875 L 21.210938 66.996094 L 53.21875 0.335938 Z M 19.824219 0.558594 " clip-rule="nonzero"/></clipPath><clipPath id="d1fe9f5f09"><rect x="0" width="54" y="0" height="67"/></clipPath><clipPath id="fbe8d31349"><path d="M 135 20 L 187 20 L 187 83 L 135 83 Z M 135 20 " clip-rule="nonzero"/></clipPath><clipPath id="ee8e59b5fd"><path d="M 186.359375 20.1875 L 156.375 82.636719 L 129.324219 69.648438 L 159.308594 7.199219 Z M 186.359375 20.1875 " clip-rule="nonzero"/></clipPath><clipPath id="063aaed52b"><path d="M 152.964844 20.410156 L 135.714844 56.332031 L 156.425781 82.53125 L 186.359375 20.1875 Z M 152.964844 20.410156 " clip-rule="nonzero"/></clipPath><clipPath id="d3527b841d"><path d="M 0.601562 0.160156 L 51.480469 0.160156 L 51.480469 62.558594 L 0.601562 62.558594 Z M 0.601562 0.160156 " clip-rule="nonzero"/></clipPath><clipPath id="e9a7f63992"><path d="M 51.359375 0.1875 L 21.375 62.636719 L -5.675781 49.648438 L 24.308594 -12.800781 Z M 51.359375 0.1875 " clip-rule="nonzero"/></clipPath><clipPath id="c9a9a8bdec"><path d="M 17.964844 0.410156 L 0.714844 36.332031 L 21.425781 62.53125 L 51.359375 0.1875 Z M 17.964844 0.410156 " clip-rule="nonzero"/></clipPath><clipPath id="bd4dc71ae9"><rect x="0" width="52" y="0" height="63"/></clipPath><clipPath id="ab6a32ae15"><path d="M 94 17 L 185 17 L 185 133 L 94 133 Z M 94 17 " clip-rule="nonzero"/></clipPath><clipPath id="5addf9a304"><path d="M 121.792969 4.003906 L 184.921875 132.898438 L 158.03125 146.070312 L 94.902344 17.175781 Z M 121.792969 4.003906 " clip-rule="nonzero"/></clipPath><clipPath id="8e67049e07"><path d="M 128.269531 17.230469 L 184.886719 132.824219 L 151.515625 132.769531 L 94.902344 17.175781 Z M 128.269531 17.230469 " clip-rule="nonzero"/></clipPath><clipPath id="4d86ed99d6"><path d="M 0.800781 0.0390625 L 91 0.0390625 L 91 115.960938 L 0.800781 115.960938 Z M 0.800781 0.0390625 " clip-rule="nonzero"/></clipPath><clipPath id="7a516279ac"><path d="M 27.792969 -12.996094 L 90.921875 115.898438 L 64.03125 129.070312 L 0.902344 0.175781 Z M 27.792969 -12.996094 " clip-rule="nonzero"/></clipPath><clipPath id="b5ca5f0247"><path d="M 34.269531 0.230469 L 90.886719 115.824219 L 57.515625 115.769531 L 0.902344 0.175781 Z M 34.269531 0.230469 " clip-rule="nonzero"/></clipPath><clipPath id="2fa4d76f70"><rect x="0" width="91" y="0" height="116"/></clipPath><clipPath id="33aa8191f2"><path d="M 94 17 L 185 17 L 185 133 L 94 133 Z M 94 17 " clip-rule="nonzero"/></clipPath><clipPath id="c4f4d0e02c"><path d="M 121.792969 4.003906 L 184.800781 132.652344 L 157.859375 145.847656 L 94.851562 17.199219 Z M 121.792969 4.003906 " clip-rule="nonzero"/></clipPath><clipPath id="66b48124af"><path d="M 121.796875 4.011719 L 185.054688 133.164062 L 158.054688 146.390625 L 94.796875 17.234375 Z M 121.796875 4.011719 " clip-rule="nonzero"/></clipPath><clipPath id="682ae06e34"><path d="M 128.273438 17.234375 L 184.882812 132.816406 L 151.515625 132.761719 L 94.90625 17.179688 Z M 128.273438 17.234375 " clip-rule="nonzero"/></clipPath><clipPath id="e3b8e3d9b2"><path d="M 379.589844 102.550781 L 383.765625 102.550781 L 383.765625 132.164062 L 379.589844 132.164062 Z M 379.589844 102.550781 " clip-rule="nonzero"/></clipPath><clipPath id="78412fb08e"><path d="M 0.589844 0.550781 L 4.765625 0.550781 L 4.765625 30.164062 L 0.589844 30.164062 Z M 0.589844 0.550781 " clip-rule="nonzero"/></clipPath><clipPath id="5ee609bac7"><rect x="0" width="5" y="0" height="31"/></clipPath><clipPath id="fb21f2e924"><path d="M 305.6875 102.632812 L 381.757812 102.632812 L 381.757812 132.164062 L 305.6875 132.164062 Z M 305.6875 102.632812 " clip-rule="nonzero"/></clipPath><clipPath id="95b0784dea"><path d="M 0.6875 0.632812 L 76.757812 0.632812 L 76.757812 30.164062 L 0.6875 30.164062 Z M 0.6875 0.632812 " clip-rule="nonzero"/></clipPath><clipPath id="6046b7211c"><rect x="0" width="77" y="0" height="31"/></clipPath><clipPath id="eff3575279"><path d="M 305.6875 17.824219 L 335.171875 17.824219 L 335.171875 101.660156 L 305.6875 101.660156 Z M 305.6875 17.824219 " clip-rule="nonzero"/></clipPath><clipPath id="f60f2779b0"><path d="M 0.6875 0.824219 L 30.171875 0.824219 L 30.171875 84.660156 L 0.6875 84.660156 Z M 0.6875 0.824219 " clip-rule="nonzero"/></clipPath><clipPath id="e04829d969"><rect x="0" width="31" y="0" height="85"/></clipPath><clipPath id="fd8ecba723"><path d="M 305.691406 19.566406 L 335.175781 19.566406 L 335.175781 131.34375 L 305.691406 131.34375 Z M 305.691406 19.566406 " clip-rule="nonzero"/></clipPath><clipPath id="3e8c2352d1"><path d="M 0.691406 0.566406 L 30.175781 0.566406 L 30.175781 112.34375 L 0.691406 112.34375 Z M 0.691406 0.566406 " clip-rule="nonzero"/></clipPath><clipPath id="52cf5a285a"><rect x="0" width="31" y="0" height="113"/></clipPath><clipPath id="d6f2db0fde"><path d="M 75.5625 60.472656 L 108.90625 60.472656 L 108.90625 89.90625 L 75.5625 89.90625 Z M 75.5625 60.472656 " clip-rule="nonzero"/></clipPath><clipPath id="d55e2ef26c"><path d="M 101.695312 60.472656 L 82.730469 60.472656 L 75.5625 75.1875 L 82.730469 89.90625 L 101.695312 89.90625 L 108.863281 75.1875 Z M 101.695312 60.472656 " clip-rule="nonzero"/></clipPath><clipPath id="2837454fc8"><path d="M 0.5625 0.472656 L 33.90625 0.472656 L 33.90625 29.90625 L 0.5625 29.90625 Z M 0.5625 0.472656 " clip-rule="nonzero"/></clipPath><clipPath id="1eaf753781"><path d="M 26.695312 0.472656 L 7.730469 0.472656 L 0.5625 15.1875 L 7.730469 29.90625 L 26.695312 29.90625 L 33.863281 15.1875 Z M 26.695312 0.472656 " clip-rule="nonzero"/></clipPath><clipPath id="97dc14326e"><rect x="0" width="34" y="0" height="30"/></clipPath><clipPath id="67f4faf973"><path d="M 1.351562 102.679688 L 18.582031 102.679688 L 18.582031 132.179688 L 1.351562 132.179688 Z M 1.351562 102.679688 " clip-rule="nonzero"/></clipPath><clipPath id="5a4e43d921"><path d="M 0.351562 0.679688 L 17.582031 0.679688 L 17.582031 30.179688 L 0.351562 30.179688 Z M 0.351562 0.679688 " clip-rule="nonzero"/></clipPath><clipPath id="d0ea453618"><rect x="0" width="18" y="0" height="31"/></clipPath><clipPath id="83e535ce5f"><path d="M 27.351562 102.714844 L 80.382812 102.714844 L 80.382812 132.148438 L 27.351562 132.148438 Z M 27.351562 102.714844 " clip-rule="nonzero"/></clipPath><clipPath id="fa764f3614"><path d="M 0.351562 0.714844 L 53.382812 0.714844 L 53.382812 30.148438 L 0.351562 30.148438 Z M 0.351562 0.714844 " clip-rule="nonzero"/></clipPath><clipPath id="52675640bf"><rect x="0" width="54" y="0" height="31"/></clipPath><clipPath id="fed16b4803"><path d="M 64.820312 102.757812 L 96.6875 102.757812 L 96.6875 132.105469 L 64.820312 132.105469 Z M 64.820312 102.757812 " clip-rule="nonzero"/></clipPath><clipPath id="4facc0ad37"><path d="M 79.175781 132.105469 L 82.320312 132.105469 L 96.679688 102.757812 L 64.820312 102.757812 Z M 79.175781 132.105469 " clip-rule="nonzero"/></clipPath><clipPath id="cdaead6304"><path d="M 0.820312 0.757812 L 32.6875 0.757812 L 32.6875 30.105469 L 0.820312 30.105469 Z M 0.820312 0.757812 " clip-rule="nonzero"/></clipPath><clipPath id="29e5755903"><path d="M 15.175781 30.105469 L 18.320312 30.105469 L 32.679688 0.757812 L 0.820312 0.757812 Z M 15.175781 30.105469 " clip-rule="nonzero"/></clipPath><clipPath id="5ff54f90d2"><rect x="0" width="33" y="0" height="31"/></clipPath><clipPath id="1950f316eb"><path d="M 47.636719 102.679688 L 94.546875 102.679688 L 94.546875 132.183594 L 47.636719 132.183594 Z M 47.636719 102.679688 " clip-rule="nonzero"/></clipPath><clipPath id="7cd8088d02"><path d="M 62.007812 132.183594 L 80.171875 132.183594 L 94.542969 102.679688 L 47.636719 102.679688 Z M 62.007812 132.183594 " clip-rule="nonzero"/></clipPath><clipPath id="4c88d340e8"><path d="M 0.636719 0.679688 L 47.546875 0.679688 L 47.546875 30.183594 L 0.636719 30.183594 Z M 0.636719 0.679688 " clip-rule="nonzero"/></clipPath><clipPath id="cef60f8ef8"><path d="M 15.007812 30.183594 L 33.171875 30.183594 L 47.542969 0.679688 L 0.636719 0.679688 Z M 15.007812 30.183594 " clip-rule="nonzero"/></clipPath><clipPath id="8bd99686b3"><rect x="0" width="48" y="0" height="31"/></clipPath><clipPath id="faa8d05333"><path d="M 1.351562 60.359375 L 18.582031 60.359375 L 18.582031 89.859375 L 1.351562 89.859375 Z M 1.351562 60.359375 " clip-rule="nonzero"/></clipPath><clipPath id="e79e977e37"><path d="M 0.351562 0.359375 L 17.582031 0.359375 L 17.582031 29.859375 L 0.351562 29.859375 Z M 0.351562 0.359375 " clip-rule="nonzero"/></clipPath><clipPath id="a5254b3710"><rect x="0" width="18" y="0" height="30"/></clipPath><clipPath id="27195f6d82"><path d="M 92.511719 60.4375 L 106.847656 60.4375 L 106.847656 89.949219 L 92.511719 89.949219 Z M 92.511719 60.4375 " clip-rule="nonzero"/></clipPath><clipPath id="1991d2e005"><path d="M 99.679688 60.4375 L 92.511719 75.1875 L 99.679688 89.941406 L 106.847656 75.1875 Z M 99.679688 60.4375 " clip-rule="nonzero"/></clipPath><clipPath id="28cdc5f7b7"><path d="M 0.511719 0.4375 L 14.847656 0.4375 L 14.847656 29.949219 L 0.511719 29.949219 Z M 0.511719 0.4375 " clip-rule="nonzero"/></clipPath><clipPath id="a001922dbf"><path d="M 7.679688 0.4375 L 0.511719 15.1875 L 7.679688 29.941406 L 14.847656 15.1875 Z M 7.679688 0.4375 " clip-rule="nonzero"/></clipPath><clipPath id="3d2cd451cf"><rect x="0" width="15" y="0" height="30"/></clipPath><clipPath id="c9f5df19b1"><path d="M 27.351562 60.433594 L 99.679688 60.433594 L 99.679688 89.945312 L 27.351562 89.945312 Z M 27.351562 60.433594 " clip-rule="nonzero"/></clipPath><clipPath id="a5ca202db4"><path d="M 0.351562 0.433594 L 72.679688 0.433594 L 72.679688 29.945312 L 0.351562 29.945312 Z M 0.351562 0.433594 " clip-rule="nonzero"/></clipPath><clipPath id="cce934bf9b"><rect x="0" width="73" y="0" height="30"/></clipPath><clipPath id="ed62edffc3"><path d="M 1.441406 17.839844 L 18.671875 17.839844 L 18.671875 47.335938 L 1.441406 47.335938 Z M 1.441406 17.839844 " clip-rule="nonzero"/></clipPath><clipPath id="572d029c3f"><path d="M 0.441406 0.839844 L 17.671875 0.839844 L 17.671875 30.335938 L 0.441406 30.335938 Z M 0.441406 0.839844 " clip-rule="nonzero"/></clipPath><clipPath id="d109488131"><rect x="0" width="18" y="0" height="31"/></clipPath><clipPath id="cfd500ec87"><path d="M 66.261719 17.863281 L 98.109375 17.863281 L 98.109375 47.296875 L 66.261719 47.296875 Z M 66.261719 17.863281 " clip-rule="nonzero"/></clipPath><clipPath id="66ed6b5fc4"><path d="M 83.589844 17.863281 L 80.828125 17.863281 L 66.308594 47.296875 L 98.109375 47.296875 Z M 83.589844 17.863281 " clip-rule="nonzero"/></clipPath><clipPath id="d36c86bd67"><path d="M 0.261719 0.863281 L 32.109375 0.863281 L 32.109375 30.296875 L 0.261719 30.296875 Z M 0.261719 0.863281 " clip-rule="nonzero"/></clipPath><clipPath id="73165769e4"><path d="M 17.589844 0.863281 L 14.828125 0.863281 L 0.308594 30.296875 L 32.109375 30.296875 Z M 17.589844 0.863281 " clip-rule="nonzero"/></clipPath><clipPath id="9af50b1f7b"><rect x="0" width="33" y="0" height="31"/></clipPath><clipPath id="6f4d9a458b"><path d="M 64.425781 17.855469 L 96.273438 17.855469 L 96.273438 47.292969 L 64.425781 47.292969 Z M 64.425781 17.855469 " clip-rule="nonzero"/></clipPath><clipPath id="3f930e7f94"><path d="M 81.886719 17.855469 L 78.863281 17.855469 L 64.476562 47.292969 L 96.273438 47.292969 Z M 81.886719 17.855469 " clip-rule="nonzero"/></clipPath><clipPath id="abd4177fd3"><path d="M 0.425781 0.855469 L 32.273438 0.855469 L 32.273438 30.292969 L 0.425781 30.292969 Z M 0.425781 0.855469 " clip-rule="nonzero"/></clipPath><clipPath id="a88028bf40"><path d="M 17.886719 0.855469 L 14.863281 0.855469 L 0.476562 30.292969 L 32.273438 30.292969 Z M 17.886719 0.855469 " clip-rule="nonzero"/></clipPath><clipPath id="364fe583e6"><rect x="0" width="33" y="0" height="31"/></clipPath><clipPath id="b32231acf0"><path d="M 64.773438 18.042969 L 96.273438 18.042969 L 96.273438 47.292969 L 64.773438 47.292969 Z M 64.773438 18.042969 " clip-rule="nonzero"/></clipPath><clipPath id="55bf447f4f"><path d="M 81.886719 17.867188 L 78.871094 17.867188 L 64.484375 47.292969 L 96.273438 47.292969 Z M 81.886719 17.867188 " clip-rule="nonzero"/></clipPath><clipPath id="fc44320983"><path d="M 27.351562 17.867188 L 81.761719 17.867188 L 81.761719 47.191406 L 27.351562 47.191406 Z M 27.351562 17.867188 " clip-rule="nonzero"/></clipPath><clipPath id="836f5d35c5"><path d="M 0.351562 0.867188 L 54.761719 0.867188 L 54.761719 30.191406 L 0.351562 30.191406 Z M 0.351562 0.867188 " clip-rule="nonzero"/></clipPath><clipPath id="1d4f9d80b2"><rect x="0" width="55" y="0" height="31"/></clipPath><clipPath id="c04c62f439"><path d="M 27.355469 17.867188 L 81.757812 17.867188 L 81.757812 47.117188 L 27.355469 47.117188 Z M 27.355469 17.867188 " clip-rule="nonzero"/></clipPath><clipPath id="c42c8d5e13"><path d="M 437.574219 102.769531 L 514.59375 102.769531 L 514.59375 132.175781 L 437.574219 132.175781 Z M 437.574219 102.769531 " clip-rule="nonzero"/></clipPath><clipPath id="243592ca9d"><path d="M 0.574219 0.769531 L 77.59375 0.769531 L 77.59375 30.175781 L 0.574219 30.175781 Z M 0.574219 0.769531 " clip-rule="nonzero"/></clipPath><clipPath id="b274d0989f"><rect x="0" width="78" y="0" height="31"/></clipPath><clipPath id="784c98869e"><path d="M 437.558594 102.769531 L 512.613281 102.769531 L 512.613281 132.175781 L 437.558594 132.175781 Z M 437.558594 102.769531 " clip-rule="nonzero"/></clipPath><clipPath id="d2467a6062"><path d="M 0.558594 0.769531 L 75.613281 0.769531 L 75.613281 30.175781 L 0.558594 30.175781 Z M 0.558594 0.769531 " clip-rule="nonzero"/></clipPath><clipPath id="2ee7f1e6c5"><rect x="0" width="76" y="0" height="31"/></clipPath><clipPath id="7820d3305e"><path d="M 398.53125 17.886719 L 475.554688 17.886719 L 475.554688 47.289062 L 398.53125 47.289062 Z M 398.53125 17.886719 " clip-rule="nonzero"/></clipPath><clipPath id="103c9dddc2"><path d="M 0.53125 0.886719 L 77.554688 0.886719 L 77.554688 30.289062 L 0.53125 30.289062 Z M 0.53125 0.886719 " clip-rule="nonzero"/></clipPath><clipPath id="2201a97ee9"><rect x="0" width="78" y="0" height="31"/></clipPath><clipPath id="28d15a78a8"><path d="M 400.511719 17.882812 L 475.566406 17.882812 L 475.566406 47.289062 L 400.511719 47.289062 Z M 400.511719 17.882812 " clip-rule="nonzero"/></clipPath><clipPath id="4f934e3415"><path d="M 0.511719 0.882812 L 75.566406 0.882812 L 75.566406 30.289062 L 0.511719 30.289062 Z M 0.511719 0.882812 " clip-rule="nonzero"/></clipPath><clipPath id="890fb57210"><rect x="0" width="76" y="0" height="31"/></clipPath><clipPath id="3f46dcc224"><path d="M 485.246094 17.820312 L 514.601562 17.820312 L 514.601562 95.175781 L 485.246094 95.175781 Z M 485.246094 17.820312 " clip-rule="nonzero"/></clipPath><clipPath id="863827d9c0"><path d="M 0.246094 0.820312 L 29.601562 0.820312 L 29.601562 78.175781 L 0.246094 78.175781 Z M 0.246094 0.820312 " clip-rule="nonzero"/></clipPath><clipPath id="bfa9252726"><rect x="0" width="30" y="0" height="79"/></clipPath><clipPath id="683d357fe5"><path d="M 485.242188 19.804688 L 514.597656 19.804688 L 514.597656 95.1875 L 485.242188 95.1875 Z M 485.242188 19.804688 " clip-rule="nonzero"/></clipPath><clipPath id="51b6955e9c"><path d="M 0.242188 0.804688 L 29.597656 0.804688 L 29.597656 76.1875 L 0.242188 76.1875 Z M 0.242188 0.804688 " clip-rule="nonzero"/></clipPath><clipPath id="57d9117eb3"><rect x="0" width="30" y="0" height="77"/></clipPath><clipPath id="6d6733950d"><path d="M 398.53125 54.8125 L 427.886719 54.8125 L 427.886719 132.167969 L 398.53125 132.167969 Z M 398.53125 54.8125 " clip-rule="nonzero"/></clipPath><clipPath id="b14dfc01ed"><path d="M 0.53125 0.8125 L 29.886719 0.8125 L 29.886719 78.167969 L 0.53125 78.167969 Z M 0.53125 0.8125 " clip-rule="nonzero"/></clipPath><clipPath id="a84513e821"><rect x="0" width="30" y="0" height="79"/></clipPath><clipPath id="81dc2940e8"><path d="M 398.53125 54.800781 L 427.882812 54.800781 L 427.882812 130.179688 L 398.53125 130.179688 Z M 398.53125 54.800781 " clip-rule="nonzero"/></clipPath><clipPath id="7bd937fb33"><path d="M 0.53125 0.800781 L 29.882812 0.800781 L 29.882812 76.179688 L 0.53125 76.179688 Z M 0.53125 0.800781 " clip-rule="nonzero"/></clipPath><clipPath id="71b3b3409d"><rect x="0" width="30" y="0" height="77"/></clipPath><clipPath id="914b74073c"><path d="M 448.503906 66.414062 L 464.613281 66.414062 L 464.613281 83.3125 L 448.503906 83.3125 Z M 448.503906 66.414062 " clip-rule="nonzero"/></clipPath><clipPath id="5bee94faa5"><path d="M 0.503906 0.414062 L 16.613281 0.414062 L 16.613281 17.3125 L 0.503906 17.3125 Z M 0.503906 0.414062 " clip-rule="nonzero"/></clipPath><clipPath id="e44aaac299"><rect x="0" width="17" y="0" height="18"/></clipPath><clipPath id="312e5df55b"><path d="M 192.851562 17.875 L 242.347656 17.875 L 242.347656 47.390625 L 192.851562 47.390625 Z M 192.851562 17.875 " clip-rule="nonzero"/></clipPath><clipPath id="7b6ad2f76c"><path d="M 0.851562 0.875 L 50.347656 0.875 L 50.347656 30.390625 L 0.851562 30.390625 Z M 0.851562 0.875 " clip-rule="nonzero"/></clipPath><clipPath id="1208960ce6"><rect x="0" width="51" y="0" height="31"/></clipPath><clipPath id="8e55fcdda0"><path d="M 194.710938 17.875 L 258.953125 17.875 L 258.953125 47.390625 L 194.710938 47.390625 Z M 194.710938 17.875 " clip-rule="nonzero"/></clipPath><clipPath id="330ea833fb"><path d="M 0.710938 0.875 L 64.953125 0.875 L 64.953125 30.390625 L 0.710938 30.390625 Z M 0.710938 0.875 " clip-rule="nonzero"/></clipPath><clipPath id="a5a55281d4"><rect x="0" width="65" y="0" height="31"/></clipPath><clipPath id="8142b1ad48"><path d="M 193.117188 53.738281 L 222.425781 53.738281 L 222.425781 132.125 L 193.117188 132.125 Z M 193.117188 53.738281 " clip-rule="nonzero"/></clipPath><clipPath id="c32378e779"><path d="M 0.117188 0.738281 L 29.425781 0.738281 L 29.425781 79.125 L 0.117188 79.125 Z M 0.117188 0.738281 " clip-rule="nonzero"/></clipPath><clipPath id="6c44362cbd"><rect x="0" width="30" y="0" height="80"/></clipPath><clipPath id="2175b2454e"><path d="M 193.117188 53.738281 L 222.425781 53.738281 L 222.425781 130.125 L 193.117188 130.125 Z M 193.117188 53.738281 " clip-rule="nonzero"/></clipPath><clipPath id="fc4c404261"><path d="M 0.117188 0.738281 L 29.425781 0.738281 L 29.425781 77.125 L 0.117188 77.125 Z M 0.117188 0.738281 " clip-rule="nonzero"/></clipPath><clipPath id="341111a109"><rect x="0" width="30" y="0" height="78"/></clipPath><clipPath id="d91fc83195"><path d="M 264.078125 18.433594 L 293.386719 18.433594 L 293.386719 93.339844 L 264.078125 93.339844 Z M 264.078125 18.433594 " clip-rule="nonzero"/></clipPath><clipPath id="3799dd0344"><path d="M 0.078125 0.433594 L 29.386719 0.433594 L 29.386719 75.339844 L 0.078125 75.339844 Z M 0.078125 0.433594 " clip-rule="nonzero"/></clipPath><clipPath id="6655d73399"><rect x="0" width="30" y="0" height="76"/></clipPath><clipPath id="49a28f2278"><path d="M 228.5625 67.152344 L 290.738281 67.152344 L 290.738281 96.523438 L 228.5625 96.523438 Z M 228.5625 67.152344 " clip-rule="nonzero"/></clipPath><clipPath id="eacd0dc223"><path d="M 0.5625 0.152344 L 62.738281 0.152344 L 62.738281 29.523438 L 0.5625 29.523438 Z M 0.5625 0.152344 " clip-rule="nonzero"/></clipPath><clipPath id="7379813c87"><rect x="0" width="63" y="0" height="30"/></clipPath><clipPath id="785b9068a6"><path d="M 230.160156 67.15625 L 293.378906 67.15625 L 293.378906 96.527344 L 230.160156 96.527344 Z M 230.160156 67.15625 " clip-rule="nonzero"/></clipPath><clipPath id="5c332f4217"><path d="M 0.160156 0.15625 L 63.378906 0.15625 L 63.378906 29.527344 L 0.160156 29.527344 Z M 0.160156 0.15625 " clip-rule="nonzero"/></clipPath><clipPath id="9cbe21c345"><rect x="0" width="64" y="0" height="30"/></clipPath><clipPath id="695f18ddcf"><path d="M 264.074219 20.359375 L 293.382812 20.359375 L 293.382812 96.523438 L 264.074219 96.523438 Z M 264.074219 20.359375 " clip-rule="nonzero"/></clipPath><clipPath id="25176ecf07"><path d="M 0.0742188 0.359375 L 29.382812 0.359375 L 29.382812 76.523438 L 0.0742188 76.523438 Z M 0.0742188 0.359375 " clip-rule="nonzero"/></clipPath><clipPath id="555a0f85d8"><rect x="0" width="30" y="0" height="77"/></clipPath><clipPath id="13c42630ad"><path d="M 531.386719 54.25 L 560.9375 54.25 L 560.9375 132.15625 L 531.386719 132.15625 Z M 531.386719 54.25 " clip-rule="nonzero"/></clipPath><clipPath id="e767a463d4"><path d="M 0.386719 0.25 L 29.9375 0.25 L 29.9375 78.15625 L 0.386719 78.15625 Z M 0.386719 0.25 " clip-rule="nonzero"/></clipPath><clipPath id="da6f2c9082"><rect x="0" width="30" y="0" height="79"/></clipPath><clipPath id="4449e605ab"><path d="M 531.390625 17.960938 L 608.921875 17.960938 L 608.921875 47.304688 L 531.390625 47.304688 Z M 531.390625 17.960938 " clip-rule="nonzero"/></clipPath><clipPath id="7e38a17939"><path d="M 0.390625 0.960938 L 77.921875 0.960938 L 77.921875 30.304688 L 0.390625 30.304688 Z M 0.390625 0.960938 " clip-rule="nonzero"/></clipPath><clipPath id="063623fec4"><rect x="0" width="78" y="0" height="31"/></clipPath><clipPath id="368fd5a4a3"><path d="M 533.378906 17.832031 L 647.023438 17.832031 L 647.023438 47.417969 L 533.378906 47.417969 Z M 533.378906 17.832031 " clip-rule="nonzero"/></clipPath><clipPath id="73c80710cb"><path d="M 0.378906 0.832031 L 114.023438 0.832031 L 114.023438 30.417969 L 0.378906 30.417969 Z M 0.378906 0.832031 " clip-rule="nonzero"/></clipPath><clipPath id="480ddc855e"><rect x="0" width="115" y="0" height="31"/></clipPath><clipPath id="8d44bc2527"><path d="M 570.8125 102.640625 L 647.027344 102.640625 L 647.027344 132.070312 L 570.8125 132.070312 Z M 570.8125 102.640625 " clip-rule="nonzero"/></clipPath><clipPath id="942b8c8e52"><path d="M 0.8125 0.640625 L 77.027344 0.640625 L 77.027344 30.070312 L 0.8125 30.070312 Z M 0.8125 0.640625 " clip-rule="nonzero"/></clipPath><clipPath id="0bea1674b2"><rect x="0" width="78" y="0" height="31"/></clipPath><clipPath id="84983bcac8"><path d="M 531.5625 102.5625 L 645.066406 102.5625 L 645.066406 132.152344 L 531.5625 132.152344 Z M 531.5625 102.5625 " clip-rule="nonzero"/></clipPath><clipPath id="21eca933e8"><path d="M 0.5625 0.5625 L 114.066406 0.5625 L 114.066406 30.152344 L 0.5625 30.152344 Z M 0.5625 0.5625 " clip-rule="nonzero"/></clipPath><clipPath id="62aaf6007a"><rect x="0" width="115" y="0" height="31"/></clipPath><clipPath id="95ed49708c"><path d="M 590.207031 60.65625 L 647.027344 60.65625 L 647.027344 90.140625 L 590.207031 90.140625 Z M 590.207031 60.65625 " clip-rule="nonzero"/></clipPath><clipPath id="619ab41093"><path d="M 0.207031 0.65625 L 57 0.65625 L 57 30.140625 L 0.207031 30.140625 Z M 0.207031 0.65625 " clip-rule="nonzero"/></clipPath><clipPath id="790dc1d58e"><rect x="0" width="58" y="0" height="31"/></clipPath><clipPath id="22fafb2f40"><path d="M 733.347656 60.511719 L 766.703125 60.511719 L 766.703125 89.859375 L 733.347656 89.859375 Z M 733.347656 60.511719 " clip-rule="nonzero"/></clipPath><clipPath id="478e97e434"><path d="M 759.480469 60.511719 L 740.515625 60.511719 L 733.347656 75.183594 L 740.515625 89.859375 L 759.480469 89.859375 L 766.648438 75.183594 Z M 759.480469 60.511719 " clip-rule="nonzero"/></clipPath><clipPath id="89ec4428dd"><path d="M 0.347656 0.511719 L 33.703125 0.511719 L 33.703125 29.859375 L 0.347656 29.859375 Z M 0.347656 0.511719 " clip-rule="nonzero"/></clipPath><clipPath id="0ee76fa237"><path d="M 26.480469 0.511719 L 7.515625 0.511719 L 0.347656 15.183594 L 7.515625 29.859375 L 26.480469 29.859375 L 33.648438 15.183594 Z M 26.480469 0.511719 " clip-rule="nonzero"/></clipPath><clipPath id="ea7853bb4a"><rect x="0" width="34" y="0" height="30"/></clipPath><clipPath id="6f90802c91"><path d="M 659.136719 102.679688 L 676.367188 102.679688 L 676.367188 132.179688 L 659.136719 132.179688 Z M 659.136719 102.679688 " clip-rule="nonzero"/></clipPath><clipPath id="241789be65"><path d="M 0.136719 0.679688 L 17.367188 0.679688 L 17.367188 30.179688 L 0.136719 30.179688 Z M 0.136719 0.679688 " clip-rule="nonzero"/></clipPath><clipPath id="0b096cf011"><rect x="0" width="18" y="0" height="31"/></clipPath><clipPath id="6047f52ead"><path d="M 685.136719 102.714844 L 738.167969 102.714844 L 738.167969 132.148438 L 685.136719 132.148438 Z M 685.136719 102.714844 " clip-rule="nonzero"/></clipPath><clipPath id="8d434b9bc5"><path d="M 0.136719 0.714844 L 53.167969 0.714844 L 53.167969 30.148438 L 0.136719 30.148438 Z M 0.136719 0.714844 " clip-rule="nonzero"/></clipPath><clipPath id="c245a38d1e"><rect x="0" width="54" y="0" height="31"/></clipPath><clipPath id="e0eb979fff"><path d="M 722.601562 102.757812 L 754.472656 102.757812 L 754.472656 132.105469 L 722.601562 132.105469 Z M 722.601562 102.757812 " clip-rule="nonzero"/></clipPath><clipPath id="30c92c4848"><path d="M 736.960938 132.105469 L 740.105469 132.105469 L 754.464844 102.757812 L 722.601562 102.757812 Z M 736.960938 132.105469 " clip-rule="nonzero"/></clipPath><clipPath id="cd3a3a047f"><path d="M 0.601562 0.757812 L 32.472656 0.757812 L 32.472656 30.105469 L 0.601562 30.105469 Z M 0.601562 0.757812 " clip-rule="nonzero"/></clipPath><clipPath id="3b079a2cb1"><path d="M 14.960938 30.105469 L 18.105469 30.105469 L 32.464844 0.757812 L 0.601562 0.757812 Z M 14.960938 30.105469 " clip-rule="nonzero"/></clipPath><clipPath id="52adba67be"><rect x="0" width="33" y="0" height="31"/></clipPath><clipPath id="f47317ab72"><path d="M 705.421875 102.679688 L 752.332031 102.679688 L 752.332031 132.183594 L 705.421875 132.183594 Z M 705.421875 102.679688 " clip-rule="nonzero"/></clipPath><clipPath id="38110463d3"><path d="M 719.789062 132.183594 L 737.957031 132.183594 L 752.328125 102.679688 L 705.421875 102.679688 Z M 719.789062 132.183594 " clip-rule="nonzero"/></clipPath><clipPath id="c642b6736e"><path d="M 0.421875 0.679688 L 47.332031 0.679688 L 47.332031 30.183594 L 0.421875 30.183594 Z M 0.421875 0.679688 " clip-rule="nonzero"/></clipPath><clipPath id="f5dcfeb441"><path d="M 14.789062 30.183594 L 32.957031 30.183594 L 47.328125 0.679688 L 0.421875 0.679688 Z M 14.789062 30.183594 " clip-rule="nonzero"/></clipPath><clipPath id="b18832d77e"><rect x="0" width="48" y="0" height="31"/></clipPath><clipPath id="483c853a0f"><path d="M 659.136719 60.359375 L 676.367188 60.359375 L 676.367188 89.859375 L 659.136719 89.859375 Z M 659.136719 60.359375 " clip-rule="nonzero"/></clipPath><clipPath id="8b2b32c33e"><path d="M 0.136719 0.359375 L 17.367188 0.359375 L 17.367188 29.859375 L 0.136719 29.859375 Z M 0.136719 0.359375 " clip-rule="nonzero"/></clipPath><clipPath id="5ebb079633"><rect x="0" width="18" y="0" height="30"/></clipPath><clipPath id="4ad2bc4720"><path d="M 750.292969 60.433594 L 764.632812 60.433594 L 764.632812 89.945312 L 750.292969 89.945312 Z M 750.292969 60.433594 " clip-rule="nonzero"/></clipPath><clipPath id="a087cb4d20"><path d="M 757.460938 60.433594 L 750.292969 75.183594 L 757.460938 89.9375 L 764.632812 75.183594 Z M 757.460938 60.433594 " clip-rule="nonzero"/></clipPath><clipPath id="07a5fa89df"><path d="M 0.292969 0.433594 L 14.632812 0.433594 L 14.632812 29.945312 L 0.292969 29.945312 Z M 0.292969 0.433594 " clip-rule="nonzero"/></clipPath><clipPath id="c4c4d60e3e"><path d="M 7.460938 0.433594 L 0.292969 15.183594 L 7.460938 29.9375 L 14.632812 15.183594 Z M 7.460938 0.433594 " clip-rule="nonzero"/></clipPath><clipPath id="b07cf5cbe1"><rect x="0" width="15" y="0" height="30"/></clipPath><clipPath id="92908868e1"><path d="M 685.136719 60.429688 L 757.460938 60.429688 L 757.460938 89.941406 L 685.136719 89.941406 Z M 685.136719 60.429688 " clip-rule="nonzero"/></clipPath><clipPath id="9f31b42e50"><path d="M 0.136719 0.429688 L 72.460938 0.429688 L 72.460938 29.941406 L 0.136719 29.941406 Z M 0.136719 0.429688 " clip-rule="nonzero"/></clipPath><clipPath id="b2e1300090"><rect x="0" width="73" y="0" height="30"/></clipPath><clipPath id="1fd0e48a53"><path d="M 659.226562 17.839844 L 676.453125 17.839844 L 676.453125 47.335938 L 659.226562 47.335938 Z M 659.226562 17.839844 " clip-rule="nonzero"/></clipPath><clipPath id="60a3dfed6c"><path d="M 0.226562 0.839844 L 17.453125 0.839844 L 17.453125 30.335938 L 0.226562 30.335938 Z M 0.226562 0.839844 " clip-rule="nonzero"/></clipPath><clipPath id="bfd467ee3f"><rect x="0" width="18" y="0" height="31"/></clipPath><clipPath id="015d088978"><path d="M 724.046875 17.847656 L 755.890625 17.847656 L 755.890625 47.28125 L 724.046875 47.28125 Z M 724.046875 17.847656 " clip-rule="nonzero"/></clipPath><clipPath id="4f2b9cbc05"><path d="M 741.375 17.847656 L 738.609375 17.847656 L 724.09375 47.28125 L 755.890625 47.28125 Z M 741.375 17.847656 " clip-rule="nonzero"/></clipPath><clipPath id="9c8ad93a3c"><path d="M 0.078125 0.847656 L 31.890625 0.847656 L 31.890625 30.28125 L 0.078125 30.28125 Z M 0.078125 0.847656 " clip-rule="nonzero"/></clipPath><clipPath id="596a83f42f"><path d="M 17.375 0.847656 L 14.609375 0.847656 L 0.09375 30.28125 L 31.890625 30.28125 Z M 17.375 0.847656 " clip-rule="nonzero"/></clipPath><clipPath id="c70749f940"><rect x="0" width="32" y="0" height="31"/></clipPath><clipPath id="af36d7a1d2"><path d="M 722.253906 17.8125 L 754.058594 17.8125 L 754.058594 47.3125 L 722.253906 47.3125 Z M 722.253906 17.8125 " clip-rule="nonzero"/></clipPath><clipPath id="7489ae3981"><path d="M 739.667969 17.8125 L 736.648438 17.8125 L 722.257812 47.3125 L 754.058594 47.3125 Z M 739.667969 17.8125 " clip-rule="nonzero"/></clipPath><clipPath id="88317578db"><path d="M 0.253906 0.8125 L 32.058594 0.8125 L 32.058594 30.3125 L 0.253906 30.3125 Z M 0.253906 0.8125 " clip-rule="nonzero"/></clipPath><clipPath id="f266ea370d"><path d="M 17.667969 0.8125 L 14.648438 0.8125 L 0.257812 30.3125 L 32.058594 30.3125 Z M 17.667969 0.8125 " clip-rule="nonzero"/></clipPath><clipPath id="b94aca1c48"><rect x="0" width="33" y="0" height="31"/></clipPath><clipPath id="ba1eaa7c7e"><path d="M 722.558594 18.0625 L 754.058594 18.0625 L 754.058594 47.3125 L 722.558594 47.3125 Z M 722.558594 18.0625 " clip-rule="nonzero"/></clipPath><clipPath id="15387138eb"><path d="M 739.671875 17.816406 L 736.652344 17.816406 L 722.265625 47.3125 L 754.058594 47.3125 Z M 739.671875 17.816406 " clip-rule="nonzero"/></clipPath><clipPath id="e37b542d2b"><path d="M 685.136719 17.816406 L 739.546875 17.816406 L 739.546875 47.324219 L 685.136719 47.324219 Z M 685.136719 17.816406 " clip-rule="nonzero"/></clipPath><clipPath id="54e4cce5ef"><path d="M 0.136719 0.816406 L 54.546875 0.816406 L 54.546875 30.324219 L 0.136719 30.324219 Z M 0.136719 0.816406 " clip-rule="nonzero"/></clipPath><clipPath id="40549e7187"><rect x="0" width="55" y="0" height="31"/></clipPath><clipPath id="5fa07a98e5"><path d="M 685.144531 17.816406 L 739.539062 17.816406 L 739.539062 47.066406 L 685.144531 47.066406 Z M 685.144531 17.816406 " clip-rule="nonzero"/></clipPath></defs><g clip-path="url(#6cc30dda74)"><g clip-path="url(#135dde1735)"><g clip-path="url(#6b074bbe42)"><g clip-path="url(#8a4e6c5fbb)"><g clip-path="url(#bc825593e7)"><g clip-path="url(#0e42fe5e34)"><g clip-path="url(#28db84263e)"><g clip-path="url(#07aa9ab4be)"><g clip-path="url(#aafb05255b)"><g clip-path="url(#c52ef7981f)"><g clip-path="url(#dbfbc4ce4d)"><g clip-path="url(#f2f44cc185)"><g clip-path="url(#3d388989ac)"><path fill="#fefefe" d="M 184.121094 17.320312 L 147.246094 97.554688 L 120.003906 85.035156 L 156.878906 4.800781 Z M 184.121094 17.320312 " fill-opacity="1" fill-rule="nonzero"/></g></g></g></g></g></g></g></g></g></g></g></g></g><g clip-path="url(#ee38b7a793)"><g clip-path="url(#564463dbc8)"><g clip-path="url(#a1bf3f1b34)"><g clip-path="url(#2a7410ded5)"><g clip-path="url(#5e187f0fbc)"><g clip-path="url(#be46dfd2fd)"><g clip-path="url(#0e41180a44)"><g clip-path="url(#7cd972397b)"><g clip-path="url(#198c9ec5c1)"><g clip-path="url(#1f9aa483e1)"><g clip-path="url(#36babecfc2)"><g clip-path="url(#de0f829ec6)"><g clip-path="url(#49c8fd9a33)"><path fill="#fefefe" d="M 97.105469 132.980469 L 129.378906 65.332031 L 156.4375 78.238281 L 124.164062 145.890625 Z M 97.105469 132.980469 " fill-opacity="1" fill-rule="nonzero"/></g></g></g></g></g></g></g></g></g></g></g></g></g><g clip-path="url(#a4f832c9d1)"><g clip-path="url(#f14eea1999)"><g clip-path="url(#c5f1529885)"><g clip-path="url(#5d89272864)"><g clip-path="url(#46464a8cd3)"><g clip-path="url(#2a17ff34cb)"><g clip-path="url(#6a78225ea6)"><g clip-path="url(#5be3d0503d)"><g clip-path="url(#e01e2fb505)"><path fill="#ffffff" d="M 122.1875 74.59375 L 147.300781 123.523438 L 136.085938 129.28125 L 110.972656 80.347656 Z M 122.1875 74.59375 " fill-opacity="1" fill-rule="nonzero"/></g></g></g></g></g></g></g></g></g><g clip-path="url(#ed4514d78f)"><g clip-path="url(#ecd3b1974a)"><g clip-path="url(#8714150d0a)"><g clip-path="url(#ad75897e46)"><g clip-path="url(#70b55a29b0)"><g clip-path="url(#2cd3d698e6)"><g clip-path="url(#4cbd7c0da8)"><g clip-path="url(#0c14ee72a1)"><g clip-path="url(#149b9b603a)"><g clip-path="url(#d679814ad7)"><g clip-path="url(#66a374c8be)"><g clip-path="url(#554ce16ed0)"><g clip-path="url(#0d1f3bd6f4)"><path fill="#ffffff" d="M 118.519531 4.101562 L 183.699219 131.695312 L 157.054688 145.304688 L 91.878906 17.710938 Z M 118.519531 4.101562 " fill-opacity="1" fill-rule="nonzero"/></g></g></g></g></g></g></g></g></g></g></g></g></g><g clip-path="url(#1520a02117)"><g clip-path="url(#568e2b3eeb)"><g clip-path="url(#f9c54eb217)"><g clip-path="url(#8059b84a24)"><g clip-path="url(#a00522c3bd)"><g clip-path="url(#100a19e793)"><g clip-path="url(#9d538b4101)"><g clip-path="url(#fecff716c0)"><g clip-path="url(#29f662d580)"><g clip-path="url(#3dfc9d5329)"><g clip-path="url(#b913ac7d49)"><path stroke-linecap="butt" transform="matrix(0.101429, 0.198559, -0.198559, 0.101429, 118.521422, 4.10492)" fill="none" stroke-linejoin="miter" d="M 65.987059 -0.00207199 L 642.717612 0.00391483 L 576.723826 134.162246 L 0.00090418 134.179831 Z M 65.987059 -0.00207199 " stroke="#000000" stroke-width="4" stroke-opacity="1" stroke-miterlimit="4"/></g></g></g></g></g></g></g></g></g></g></g><g clip-path="url(#ba2379d8ae)"><g clip-path="url(#9a10cde188)"><g clip-path="url(#8f67210b4d)"><g transform="matrix(1, 0, 0, 1, 134, 18)"><g clip-path="url(#d1fe9f5f09)"><g clip-path="url(#b2fbd38cfc)"><g clip-path="url(#84692c5d31)"><g clip-path="url(#f5dddc2fc1)"><path fill="#20bc61" d="M 53.21875 0.335938 L 21.203125 67.011719 L -5.847656 54.023438 L 26.167969 -12.652344 Z M 53.21875 0.335938 " fill-opacity="1" fill-rule="nonzero"/></g></g></g></g></g></g></g></g><g clip-path="url(#fbe8d31349)"><g clip-path="url(#ee8e59b5fd)"><g clip-path="url(#063aaed52b)"><g transform="matrix(1, 0, 0, 1, 135, 20)"><g clip-path="url(#bd4dc71ae9)"><g clip-path="url(#d3527b841d)"><g clip-path="url(#e9a7f63992)"><g clip-path="url(#c9a9a8bdec)"><path fill="#fefefe" d="M 51.359375 0.1875 L 21.425781 62.53125 L -5.625 49.542969 L 24.308594 -12.800781 Z M 51.359375 0.1875 " fill-opacity="1" fill-rule="nonzero"/></g></g></g></g></g></g></g></g><g clip-path="url(#ab6a32ae15)"><g clip-path="url(#5addf9a304)"><g clip-path="url(#8e67049e07)"><g transform="matrix(1, 0, 0, 1, 94, 17)"><g clip-path="url(#2fa4d76f70)"><g clip-path="url(#4d86ed99d6)"><g clip-path="url(#7a516279ac)"><g clip-path="url(#b5ca5f0247)"><path fill="#20bc61" d="M 27.792969 -12.996094 L 90.871094 115.792969 L 63.980469 128.964844 L 0.902344 0.175781 Z M 27.792969 -12.996094 " fill-opacity="1" fill-rule="nonzero"/></g></g></g></g></g></g></g></g><g clip-path="url(#33aa8191f2)"><g clip-path="url(#c4f4d0e02c)"><g clip-path="url(#66b48124af)"><g clip-path="url(#682ae06e34)"><path stroke-linecap="butt" transform="matrix(0.329895, 0.67355, -0.67355, 0.329895, 121.795034, 4.010128)" fill="none" stroke-linejoin="miter" d="M 19.634456 -0.00161873 L 191.235169 -0.000307683 L 171.600482 39.922211 L -0.000230741 39.9209 Z M 19.634456 -0.00161873 " stroke="#fefefe" stroke-width="4" stroke-opacity="1" stroke-miterlimit="4"/></g></g></g></g><g clip-path="url(#e3b8e3d9b2)"><g transform="matrix(1, 0, 0, 1, 379, 102)"><g clip-path="url(#5ee609bac7)"><g clip-path="url(#78412fb08e)"><path fill="#20bc61" d="M 0.589844 0.550781 L 4.765625 0.550781 L 4.765625 30.160156 L 0.589844 30.160156 Z M 0.589844 0.550781 " fill-opacity="1" fill-rule="nonzero"/></g></g></g></g><g clip-path="url(#fb21f2e924)"><g transform="matrix(1, 0, 0, 1, 305, 102)"><g clip-path="url(#6046b7211c)"><g clip-path="url(#95b0784dea)"><path fill="#fefefe" d="M 0.6875 0.632812 L 76.707031 0.632812 L 76.707031 30.164062 L 0.6875 30.164062 Z M 0.6875 0.632812 " fill-opacity="1" fill-rule="nonzero"/></g></g></g></g><g clip-path="url(#eff3575279)"><g transform="matrix(1, 0, 0, 1, 305, 17)"><g clip-path="url(#e04829d969)"><g clip-path="url(#f60f2779b0)"><path fill="#20bc61" d="M 0.6875 84.660156 L 0.6875 0.8125 L 30.171875 0.8125 L 30.171875 84.660156 Z M 0.6875 84.660156 " fill-opacity="1" fill-rule="nonzero"/></g></g></g></g><g clip-path="url(#fd8ecba723)"><g transform="matrix(1, 0, 0, 1, 305, 19)"><g clip-path="url(#52cf5a285a)"><g clip-path="url(#3e8c2352d1)"><path fill="#fefefe" d="M 0.691406 112.34375 L 0.691406 0.511719 L 30.175781 0.511719 L 30.175781 112.34375 Z M 0.691406 112.34375 " fill-opacity="1" fill-rule="nonzero"/></g></g></g></g><g clip-path="url(#d6f2db0fde)"><g clip-path="url(#d55e2ef26c)"><g transform="matrix(1, 0, 0, 1, 75, 60)"><g clip-path="url(#97dc14326e)"><g clip-path="url(#2837454fc8)"><g clip-path="url(#1eaf753781)"><path fill="#20bc61" d="M 0.5625 0.472656 L 33.90625 0.472656 L 33.90625 29.90625 L 0.5625 29.90625 Z M 0.5625 0.472656 " fill-opacity="1" fill-rule="nonzero"/></g></g></g></g></g></g><g clip-path="url(#67f4faf973)"><g transform="matrix(1, 0, 0, 1, 1, 102)"><g clip-path="url(#d0ea453618)"><g clip-path="url(#5a4e43d921)"><path fill="#20bc61" d="M 0.351562 0.679688 L 17.582031 0.679688 L 17.582031 30.160156 L 0.351562 30.160156 Z M 0.351562 0.679688 " fill-opacity="1" fill-rule="nonzero"/></g></g></g></g><g clip-path="url(#83e535ce5f)"><g transform="matrix(1, 0, 0, 1, 27, 102)"><g clip-path="url(#52675640bf)"><g clip-path="url(#fa764f3614)"><path fill="#fefefe" d="M 0.351562 0.714844 L 53.359375 0.714844 L 53.359375 30.148438 L 0.351562 30.148438 Z M 0.351562 0.714844 " fill-opacity="1" fill-rule="nonzero"/></g></g></g></g><g clip-path="url(#fed16b4803)"><g clip-path="url(#4facc0ad37)"><g transform="matrix(1, 0, 0, 1, 64, 102)"><g clip-path="url(#5ff54f90d2)"><g clip-path="url(#cdaead6304)"><g clip-path="url(#29e5755903)"><path fill="#20bc61" d="M 0.820312 0.757812 L 32.6875 0.757812 L 32.6875 30.105469 L 0.820312 30.105469 Z M 0.820312 0.757812 " fill-opacity="1" fill-rule="nonzero"/></g></g></g></g></g></g><g clip-path="url(#1950f316eb)"><g clip-path="url(#7cd8088d02)"><g transform="matrix(1, 0, 0, 1, 47, 102)"><g clip-path="url(#8bd99686b3)"><g clip-path="url(#4c88d340e8)"><g clip-path="url(#cef60f8ef8)"><path fill="#fefefe" d="M 0.636719 0.679688 L 47.546875 0.679688 L 47.546875 30.183594 L 0.636719 30.183594 Z M 0.636719 0.679688 " fill-opacity="1" fill-rule="nonzero"/></g></g></g></g></g></g><g clip-path="url(#faa8d05333)"><g transform="matrix(1, 0, 0, 1, 1, 60)"><g clip-path="url(#a5254b3710)"><g clip-path="url(#e79e977e37)"><path fill="#20bc61" d="M 0.351562 0.359375 L 17.582031 0.359375 L 17.582031 29.835938 L 0.351562 29.835938 Z M 0.351562 0.359375 " fill-opacity="1" fill-rule="nonzero"/></g></g></g></g><g clip-path="url(#27195f6d82)"><g clip-path="url(#1991d2e005)"><g transform="matrix(1, 0, 0, 1, 92, 60)"><g clip-path="url(#3d2cd451cf)"><g clip-path="url(#28cdc5f7b7)"><g clip-path="url(#a001922dbf)"><path fill="#fefefe" d="M 0.511719 0.4375 L 14.847656 0.4375 L 14.847656 29.949219 L 0.511719 29.949219 Z M 0.511719 0.4375 " fill-opacity="1" fill-rule="nonzero"/></g></g></g></g></g></g><g clip-path="url(#c9f5df19b1)"><g transform="matrix(1, 0, 0, 1, 27, 60)"><g clip-path="url(#cce934bf9b)"><g clip-path="url(#a5ca202db4)"><path fill="#fefefe" d="M 0.351562 0.433594 L 72.632812 0.433594 L 72.632812 29.945312 L 0.351562 29.945312 Z M 0.351562 0.433594 " fill-opacity="1" fill-rule="nonzero"/></g></g></g></g><g clip-path="url(#ed62edffc3)"><g transform="matrix(1, 0, 0, 1, 1, 17)"><g clip-path="url(#d109488131)"><g clip-path="url(#572d029c3f)"><path fill="#20bc61" d="M 0.441406 0.839844 L 17.671875 0.839844 L 17.671875 30.316406 L 0.441406 30.316406 Z M 0.441406 0.839844 " fill-opacity="1" fill-rule="nonzero"/></g></g></g></g><g clip-path="url(#cfd500ec87)"><g clip-path="url(#66ed6b5fc4)"><g transform="matrix(1, 0, 0, 1, 66, 17)"><g clip-path="url(#9af50b1f7b)"><g clip-path="url(#d36c86bd67)"><g clip-path="url(#73165769e4)"><path fill="#20bc61" d="M 32.109375 30.296875 L 0.261719 30.296875 L 0.261719 0.863281 L 32.109375 0.863281 Z M 32.109375 30.296875 " fill-opacity="1" fill-rule="nonzero"/></g></g></g></g></g></g><g clip-path="url(#6f4d9a458b)"><g clip-path="url(#3f930e7f94)"><g transform="matrix(1, 0, 0, 1, 64, 17)"><g clip-path="url(#364fe583e6)"><g clip-path="url(#abd4177fd3)"><g clip-path="url(#a88028bf40)"><path fill="#fefefe" d="M 32.273438 30.292969 L 0.425781 30.292969 L 0.425781 0.855469 L 32.273438 0.855469 Z M 32.273438 30.292969 " fill-opacity="1" fill-rule="nonzero"/></g></g></g></g></g></g><g clip-path="url(#b32231acf0)"><g clip-path="url(#55bf447f4f)"><path stroke-linecap="butt" transform="matrix(-0.75, 0, 0, -0.75, 96.273596, 47.292887)" fill="none" stroke-linejoin="miter" d="M 19.182504 39.234269 L 23.203338 39.234269 L 42.38563 -0.000108678 L 0.000211312 -0.000108678 Z M 19.182504 39.234269 " stroke="#fefefe" stroke-width="2" stroke-opacity="1" stroke-miterlimit="4"/></g></g><g clip-path="url(#fc44320983)"><g transform="matrix(1, 0, 0, 1, 27, 17)"><g clip-path="url(#1d4f9d80b2)"><g clip-path="url(#836f5d35c5)"><path fill="#fefefe" d="M 0.351562 0.867188 L 54.761719 0.867188 L 54.761719 30.191406 L 0.351562 30.191406 Z M 0.351562 0.867188 " fill-opacity="1" fill-rule="nonzero"/></g></g></g></g><g clip-path="url(#c04c62f439)"><path stroke-linecap="butt" transform="matrix(0.75, 0, 0, 0.75, 27.35574, 17.867105)" fill="none" stroke-linejoin="miter" d="M -0.000361992 0.00011027 L 72.536101 0.00011027 L 72.536101 39.093863 L -0.000361992 39.093863 Z M -0.000361992 0.00011027 " stroke="#fefefe" stroke-width="2" stroke-opacity="1" stroke-miterlimit="4"/></g><g clip-path="url(#c42c8d5e13)"><g transform="matrix(1, 0, 0, 1, 437, 102)"><g clip-path="url(#b274d0989f)"><g clip-path="url(#243592ca9d)"><path fill="#20bc61" d="M 0.574219 0.769531 L 77.644531 0.769531 L 77.644531 30.175781 L 0.574219 30.175781 Z M 0.574219 0.769531 " fill-opacity="1" fill-rule="nonzero"/></g></g></g></g><g clip-path="url(#784c98869e)"><g transform="matrix(1, 0, 0, 1, 437, 102)"><g clip-path="url(#2ee7f1e6c5)"><g clip-path="url(#d2467a6062)"><path fill="#fefefe" d="M 0.558594 0.769531 L 75.566406 0.769531 L 75.566406 30.175781 L 0.558594 30.175781 Z M 0.558594 0.769531 " fill-opacity="1" fill-rule="nonzero"/></g></g></g></g><g clip-path="url(#7820d3305e)"><g transform="matrix(1, 0, 0, 1, 398, 17)"><g clip-path="url(#2201a97ee9)"><g clip-path="url(#103c9dddc2)"><path fill="#20bc61" d="M 77.554688 30.289062 L 0.484375 30.289062 L 0.484375 0.886719 L 77.554688 0.886719 Z M 77.554688 30.289062 " fill-opacity="1" fill-rule="nonzero"/></g></g></g></g><g clip-path="url(#28d15a78a8)"><g transform="matrix(1, 0, 0, 1, 400, 17)"><g clip-path="url(#890fb57210)"><g clip-path="url(#4f934e3415)"><path fill="#fefefe" d="M 75.566406 30.289062 L 0.5625 30.289062 L 0.5625 0.882812 L 75.566406 0.882812 Z M 75.566406 30.289062 " fill-opacity="1" fill-rule="nonzero"/></g></g></g></g><g clip-path="url(#3f46dcc224)"><g transform="matrix(1, 0, 0, 1, 485, 17)"><g clip-path="url(#bfa9252726)"><g clip-path="url(#863827d9c0)"><path fill="#20bc61" d="M 0.246094 78.175781 L 0.246094 0.773438 L 29.601562 0.773438 L 29.601562 78.175781 Z M 0.246094 78.175781 " fill-opacity="1" fill-rule="nonzero"/></g></g></g></g><g clip-path="url(#683d357fe5)"><g transform="matrix(1, 0, 0, 1, 485, 19)"><g clip-path="url(#57d9117eb3)"><g clip-path="url(#51b6955e9c)"><path fill="#fefefe" d="M 0.242188 76.1875 L 0.242188 0.847656 L 29.597656 0.847656 L 29.597656 76.1875 Z M 0.242188 76.1875 " fill-opacity="1" fill-rule="nonzero"/></g></g></g></g><g clip-path="url(#6d6733950d)"><g transform="matrix(1, 0, 0, 1, 398, 54)"><g clip-path="url(#a84513e821)"><g clip-path="url(#b14dfc01ed)"><path fill="#20bc61" d="M 29.886719 0.8125 L 29.886719 78.214844 L 0.53125 78.214844 L 0.53125 0.8125 Z M 29.886719 0.8125 " fill-opacity="1" fill-rule="nonzero"/></g></g></g></g><g clip-path="url(#81dc2940e8)"><g transform="matrix(1, 0, 0, 1, 398, 54)"><g clip-path="url(#71b3b3409d)"><g clip-path="url(#7bd937fb33)"><path fill="#fefefe" d="M 29.882812 0.800781 L 29.882812 76.136719 L 0.53125 76.136719 L 0.53125 0.800781 Z M 29.882812 0.800781 " fill-opacity="1" fill-rule="nonzero"/></g></g></g></g><g clip-path="url(#914b74073c)"><g transform="matrix(1, 0, 0, 1, 448, 66)"><g clip-path="url(#e44aaac299)"><g clip-path="url(#5bee94faa5)"><path fill="#20bc61" d="M 16.613281 0.414062 L 16.613281 17.34375 L 0.503906 17.34375 L 0.503906 0.414062 Z M 16.613281 0.414062 " fill-opacity="1" fill-rule="nonzero"/></g></g></g></g><g clip-path="url(#312e5df55b)"><g transform="matrix(1, 0, 0, 1, 192, 17)"><g clip-path="url(#1208960ce6)"><g clip-path="url(#7b6ad2f76c)"><path fill="#20bc61" d="M 0.851562 0.875 L 50.3125 0.875 L 50.3125 30.390625 L 0.851562 30.390625 Z M 0.851562 0.875 " fill-opacity="1" fill-rule="nonzero"/></g></g></g></g><g clip-path="url(#8e55fcdda0)"><g transform="matrix(1, 0, 0, 1, 194, 17)"><g clip-path="url(#a5a55281d4)"><g clip-path="url(#330ea833fb)"><path fill="#fefefe" d="M 0.710938 0.875 L 64.929688 0.875 L 64.929688 30.390625 L 0.710938 30.390625 Z M 0.710938 0.875 " fill-opacity="1" fill-rule="nonzero"/></g></g></g></g><g clip-path="url(#8142b1ad48)"><g transform="matrix(1, 0, 0, 1, 193, 53)"><g clip-path="url(#6c44362cbd)"><g clip-path="url(#c32378e779)"><path fill="#20bc61" d="M 29.425781 0.738281 L 29.425781 79.160156 L 0.117188 79.160156 L 0.117188 0.738281 Z M 29.425781 0.738281 " fill-opacity="1" fill-rule="nonzero"/></g></g></g></g><g clip-path="url(#2175b2454e)"><g transform="matrix(1, 0, 0, 1, 193, 53)"><g clip-path="url(#341111a109)"><g clip-path="url(#fc4c404261)"><path fill="#fefefe" d="M 29.425781 0.738281 L 29.425781 77.101562 L 0.117188 77.101562 L 0.117188 0.738281 Z M 29.425781 0.738281 " fill-opacity="1" fill-rule="nonzero"/></g></g></g></g><g clip-path="url(#d91fc83195)"><g transform="matrix(1, 0, 0, 1, 264, 18)"><g clip-path="url(#6655d73399)"><g clip-path="url(#3799dd0344)"><path fill="#20bc61" d="M 0.078125 75.339844 L 0.078125 0.464844 L 29.386719 0.464844 L 29.386719 75.339844 Z M 0.078125 75.339844 " fill-opacity="1" fill-rule="nonzero"/></g></g></g></g><g clip-path="url(#49a28f2278)"><g transform="matrix(1, 0, 0, 1, 228, 67)"><g clip-path="url(#7379813c87)"><g clip-path="url(#eacd0dc223)"><path fill="#20bc61" d="M 62.738281 29.523438 L 0.550781 29.523438 L 0.550781 0.152344 L 62.738281 0.152344 Z M 62.738281 29.523438 " fill-opacity="1" fill-rule="nonzero"/></g></g></g></g><g clip-path="url(#785b9068a6)"><g transform="matrix(1, 0, 0, 1, 230, 67)"><g clip-path="url(#9cbe21c345)"><g clip-path="url(#5c332f4217)"><path fill="#fefefe" d="M 63.378906 29.527344 L 0.164062 29.527344 L 0.164062 0.15625 L 63.378906 0.15625 Z M 63.378906 29.527344 " fill-opacity="1" fill-rule="nonzero"/></g></g></g></g><g clip-path="url(#695f18ddcf)"><g transform="matrix(1, 0, 0, 1, 264, 20)"><g clip-path="url(#555a0f85d8)"><g clip-path="url(#25176ecf07)"><path fill="#fefefe" d="M 0.0742188 76.523438 L 0.0742188 0.390625 L 29.382812 0.390625 L 29.382812 76.523438 Z M 0.0742188 76.523438 " fill-opacity="1" fill-rule="nonzero"/></g></g></g></g><g clip-path="url(#13c42630ad)"><g transform="matrix(1, 0, 0, 1, 531, 54)"><g clip-path="url(#da6f2c9082)"><g clip-path="url(#e767a463d4)"><path fill="#fefefe" d="M 29.9375 0.25 L 29.9375 78.164062 L 0.386719 78.164062 L 0.386719 0.25 Z M 29.9375 0.25 " fill-opacity="1" fill-rule="nonzero"/></g></g></g></g><g clip-path="url(#4449e605ab)"><g transform="matrix(1, 0, 0, 1, 531, 17)"><g clip-path="url(#063623fec4)"><g clip-path="url(#7e38a17939)"><path fill="#20bc61" d="M 77.921875 30.304688 L 0.429688 30.304688 L 0.429688 0.960938 L 77.921875 0.960938 Z M 77.921875 30.304688 " fill-opacity="1" fill-rule="nonzero"/></g></g></g></g><g clip-path="url(#368fd5a4a3)"><g transform="matrix(1, 0, 0, 1, 533, 17)"><g clip-path="url(#480ddc855e)"><g clip-path="url(#73c80710cb)"><path fill="#fefefe" d="M 114.023438 30.417969 L 0.40625 30.417969 L 0.40625 0.832031 L 114.023438 0.832031 Z M 114.023438 30.417969 " fill-opacity="1" fill-rule="nonzero"/></g></g></g></g><g clip-path="url(#8d44bc2527)"><g transform="matrix(1, 0, 0, 1, 570, 102)"><g clip-path="url(#0bea1674b2)"><g clip-path="url(#942b8c8e52)"><path fill="#20bc61" d="M 0.8125 0.640625 L 77.035156 0.640625 L 77.035156 30.070312 L 0.8125 30.070312 Z M 0.8125 0.640625 " fill-opacity="1" fill-rule="nonzero"/></g></g></g></g><g clip-path="url(#84983bcac8)"><g transform="matrix(1, 0, 0, 1, 531, 102)"><g clip-path="url(#62aaf6007a)"><g clip-path="url(#21eca933e8)"><path fill="#fefefe" d="M 0.5625 0.5625 L 114.0625 0.5625 L 114.0625 30.152344 L 0.5625 30.152344 Z M 0.5625 0.5625 " fill-opacity="1" fill-rule="nonzero"/></g></g></g></g><g clip-path="url(#95ed49708c)"><g transform="matrix(1, 0, 0, 1, 590, 60)"><g clip-path="url(#790dc1d58e)"><g clip-path="url(#619ab41093)"><path fill="#20bc61" d="M 0.207031 0.65625 L 56.992188 0.65625 L 56.992188 30.140625 L 0.207031 30.140625 Z M 0.207031 0.65625 " fill-opacity="1" fill-rule="nonzero"/></g></g></g></g><g clip-path="url(#22fafb2f40)"><g clip-path="url(#478e97e434)"><g transform="matrix(1, 0, 0, 1, 733, 60)"><g clip-path="url(#ea7853bb4a)"><g clip-path="url(#89ec4428dd)"><g clip-path="url(#0ee76fa237)"><path fill="#20bc61" d="M 0.347656 0.511719 L 33.703125 0.511719 L 33.703125 29.859375 L 0.347656 29.859375 Z M 0.347656 0.511719 " fill-opacity="1" fill-rule="nonzero"/></g></g></g></g></g></g><g clip-path="url(#6f90802c91)"><g transform="matrix(1, 0, 0, 1, 659, 102)"><g clip-path="url(#0b096cf011)"><g clip-path="url(#241789be65)"><path fill="#20bc61" d="M 0.136719 0.679688 L 17.367188 0.679688 L 17.367188 30.160156 L 0.136719 30.160156 Z M 0.136719 0.679688 " fill-opacity="1" fill-rule="nonzero"/></g></g></g></g><g clip-path="url(#6047f52ead)"><g transform="matrix(1, 0, 0, 1, 685, 102)"><g clip-path="url(#c245a38d1e)"><g clip-path="url(#8d434b9bc5)"><path fill="#fefefe" d="M 0.136719 0.714844 L 53.144531 0.714844 L 53.144531 30.148438 L 0.136719 30.148438 Z M 0.136719 0.714844 " fill-opacity="1" fill-rule="nonzero"/></g></g></g></g><g clip-path="url(#e0eb979fff)"><g clip-path="url(#30c92c4848)"><g transform="matrix(1, 0, 0, 1, 722, 102)"><g clip-path="url(#52adba67be)"><g clip-path="url(#cd3a3a047f)"><g clip-path="url(#3b079a2cb1)"><path fill="#20bc61" d="M 0.601562 0.757812 L 32.472656 0.757812 L 32.472656 30.105469 L 0.601562 30.105469 Z M 0.601562 0.757812 " fill-opacity="1" fill-rule="nonzero"/></g></g></g></g></g></g><g clip-path="url(#f47317ab72)"><g clip-path="url(#38110463d3)"><g transform="matrix(1, 0, 0, 1, 705, 102)"><g clip-path="url(#b18832d77e)"><g clip-path="url(#c642b6736e)"><g clip-path="url(#f5dcfeb441)"><path fill="#fefefe" d="M 0.421875 0.679688 L 47.332031 0.679688 L 47.332031 30.183594 L 0.421875 30.183594 Z M 0.421875 0.679688 " fill-opacity="1" fill-rule="nonzero"/></g></g></g></g></g></g><g clip-path="url(#483c853a0f)"><g transform="matrix(1, 0, 0, 1, 659, 60)"><g clip-path="url(#5ebb079633)"><g clip-path="url(#8b2b32c33e)"><path fill="#20bc61" d="M 0.136719 0.359375 L 17.367188 0.359375 L 17.367188 29.835938 L 0.136719 29.835938 Z M 0.136719 0.359375 " fill-opacity="1" fill-rule="nonzero"/></g></g></g></g><g clip-path="url(#4ad2bc4720)"><g clip-path="url(#a087cb4d20)"><g transform="matrix(1, 0, 0, 1, 750, 60)"><g clip-path="url(#b07cf5cbe1)"><g clip-path="url(#07a5fa89df)"><g clip-path="url(#c4c4d60e3e)"><path fill="#fefefe" d="M 0.292969 0.433594 L 14.632812 0.433594 L 14.632812 29.945312 L 0.292969 29.945312 Z M 0.292969 0.433594 " fill-opacity="1" fill-rule="nonzero"/></g></g></g></g></g></g><g clip-path="url(#92908868e1)"><g transform="matrix(1, 0, 0, 1, 685, 60)"><g clip-path="url(#b2e1300090)"><g clip-path="url(#9f31b42e50)"><path fill="#fefefe" d="M 0.136719 0.429688 L 72.414062 0.429688 L 72.414062 29.941406 L 0.136719 29.941406 Z M 0.136719 0.429688 " fill-opacity="1" fill-rule="nonzero"/></g></g></g></g><g clip-path="url(#1fd0e48a53)"><g transform="matrix(1, 0, 0, 1, 659, 17)"><g clip-path="url(#bfd467ee3f)"><g clip-path="url(#60a3dfed6c)"><path fill="#20bc61" d="M 0.226562 0.839844 L 17.453125 0.839844 L 17.453125 30.316406 L 0.226562 30.316406 Z M 0.226562 0.839844 " fill-opacity="1" fill-rule="nonzero"/></g></g></g></g><g clip-path="url(#015d088978)"><g clip-path="url(#4f2b9cbc05)"><g transform="matrix(1, 0, 0, 1, 724, 17)"><g clip-path="url(#c70749f940)"><g clip-path="url(#9c8ad93a3c)"><g clip-path="url(#596a83f42f)"><path fill="#20bc61" d="M 31.890625 30.28125 L 0.046875 30.28125 L 0.046875 0.847656 L 31.890625 0.847656 Z M 31.890625 30.28125 " fill-opacity="1" fill-rule="nonzero"/></g></g></g></g></g></g><g clip-path="url(#af36d7a1d2)"><g clip-path="url(#7489ae3981)"><g transform="matrix(1, 0, 0, 1, 722, 17)"><g clip-path="url(#b94aca1c48)"><g clip-path="url(#88317578db)"><g clip-path="url(#f266ea370d)"><path fill="#fefefe" d="M 32.058594 30.3125 L 0.253906 30.3125 L 0.253906 0.8125 L 32.058594 0.8125 Z M 32.058594 30.3125 " fill-opacity="1" fill-rule="nonzero"/></g></g></g></g></g></g><g clip-path="url(#ba1eaa7c7e)"><g clip-path="url(#15387138eb)"><path stroke-linecap="butt" transform="matrix(-0.75, 0, 0, -0.75, 754.059466, 47.313856)" fill="none" stroke-linejoin="miter" d="M 19.183456 39.329935 L 23.209498 39.329935 L 42.391791 0.00180805 L 0.00116355 0.00180805 Z M 19.183456 39.329935 " stroke="#fefefe" stroke-width="2" stroke-opacity="1" stroke-miterlimit="4"/></g></g><g clip-path="url(#e37b542d2b)"><g transform="matrix(1, 0, 0, 1, 685, 17)"><g clip-path="url(#40549e7187)"><g clip-path="url(#54e4cce5ef)"><path fill="#fefefe" d="M 0.136719 0.816406 L 54.539062 0.816406 L 54.539062 30.324219 L 0.136719 30.324219 Z M 0.136719 0.816406 " fill-opacity="1" fill-rule="nonzero"/></g></g></g></g><g clip-path="url(#5fa07a98e5)"><path stroke-linecap="butt" transform="matrix(0.75, 0, 0, 0.75, 685.144958, 17.816094)" fill="none" stroke-linejoin="miter" d="M -0.000569578 0.000416972 L 72.520268 0.000416972 L 72.520268 39.328544 L -0.000569578 39.328544 Z M -0.000569578 0.000416972 " stroke="#fefefe" stroke-width="2" stroke-opacity="1" stroke-miterlimit="4"/></g></svg>