<svg xmlns="http://www.w3.org/2000/svg" xmlns:xlink="http://www.w3.org/1999/xlink" width="1024" zoomAndPan="magnify" viewBox="0 0 768 149.999998" height="200" preserveAspectRatio="xMidYMid meet" version="1.0"><defs><clipPath id="0adf703975"><path d="M 125 91 L 134 91 L 134 98 L 125 98 Z M 125 91 " clip-rule="nonzero"/></clipPath><clipPath id="b3d8d01d6f"><path d="M 95.496094 92.320312 L 132.570312 91.695312 L 133.257812 132.550781 L 96.183594 133.175781 Z M 95.496094 92.320312 " clip-rule="nonzero"/></clipPath><clipPath id="b3a68eba8e"><path d="M 95.105469 91.816406 L 132.933594 91.179688 L 133.636719 132.792969 L 95.804688 133.429688 Z M 95.105469 91.816406 " clip-rule="nonzero"/></clipPath><clipPath id="d025afcf5d"><path d="M -42.324219 -32.140625 L 186.167969 -35.988281 L 190.011719 192.503906 L -38.480469 196.351562 Z M -42.324219 -32.140625 " clip-rule="nonzero"/></clipPath><clipPath id="3065488e55"><path d="M 95.476562 92.316406 L 132.664062 91.691406 L 133.355469 132.75 L 96.167969 133.375 Z M 95.476562 92.316406 " clip-rule="nonzero"/></clipPath><clipPath id="553b6888bc"><path d="M 115.753906 92 L 133.171875 125.417969 L 129.582031 132.621094 L 96.160156 132.898438 L 116.039062 91.996094 Z M 115.753906 92 " clip-rule="nonzero"/></clipPath><clipPath id="df83bdd3f4"><path d="M 124.445312 18.40625 L 183.496094 17.414062 L 184.839844 97.242188 L 125.789062 98.234375 Z M 124.445312 18.40625 " clip-rule="nonzero"/></clipPath><clipPath id="db762d7377"><path d="M 183.453125 17.480469 L 146.496094 97.894531 L 119.230469 85.363281 L 156.1875 4.949219 Z M 183.453125 17.480469 " clip-rule="nonzero"/></clipPath><clipPath id="5f8a3c2c18"><path d="M 124.289062 18.324219 L 183.492188 17.328125 L 184.839844 97.359375 L 125.636719 98.355469 Z M 124.289062 18.324219 " clip-rule="nonzero"/></clipPath><clipPath id="f0e7383aee"><path d="M 150.066406 18.265625 L 125.378906 71.984375 L 146.527344 97.832031 L 183.453125 17.480469 Z M 150.066406 18.265625 " clip-rule="nonzero"/></clipPath><clipPath id="b202e580d5"><path d="M 117.820312 5.339844 L 183.273438 4.238281 L 184.839844 97.359375 L 119.386719 98.460938 Z M 117.820312 5.339844 " clip-rule="nonzero"/></clipPath><clipPath id="81c5e24e94"><path d="M 183.453125 17.480469 L 146.496094 97.894531 L 119.230469 85.363281 L 156.1875 4.949219 Z M 183.453125 17.480469 " clip-rule="nonzero"/></clipPath><clipPath id="e645917e97"><path d="M 124.289062 18.324219 L 183.492188 17.328125 L 184.839844 97.359375 L 125.636719 98.355469 Z M 124.289062 18.324219 " clip-rule="nonzero"/></clipPath><clipPath id="05eae9120b"><path d="M 150.066406 18.265625 L 125.378906 71.984375 L 146.527344 97.832031 L 183.453125 17.480469 Z M 150.066406 18.265625 " clip-rule="nonzero"/></clipPath><clipPath id="eb1bde5001"><path d="M 96 91 L 134 91 L 134 133 L 96 133 Z M 96 91 " clip-rule="nonzero"/></clipPath><clipPath id="31a844c6e5"><path d="M 95.496094 92.320312 L 132.570312 91.695312 L 133.257812 132.550781 L 96.183594 133.175781 Z M 95.496094 92.320312 " clip-rule="nonzero"/></clipPath><clipPath id="0a317c1c12"><path d="M 95.105469 91.816406 L 132.933594 91.179688 L 133.636719 132.792969 L 95.804688 133.429688 Z M 95.105469 91.816406 " clip-rule="nonzero"/></clipPath><clipPath id="a7c9ccb809"><path d="M -42.324219 -32.140625 L 186.167969 -35.988281 L 190.011719 192.503906 L -38.480469 196.351562 Z M -42.324219 -32.140625 " clip-rule="nonzero"/></clipPath><clipPath id="ea15b431cb"><path d="M 95.476562 92.316406 L 132.664062 91.691406 L 133.355469 132.75 L 96.167969 133.375 Z M 95.476562 92.316406 " clip-rule="nonzero"/></clipPath><clipPath id="e82aa0217a"><path d="M 115.753906 92 L 133.171875 125.417969 L 129.582031 132.621094 L 96.160156 132.898438 L 116.039062 91.996094 Z M 115.753906 92 " clip-rule="nonzero"/></clipPath><clipPath id="2d8c7615a0"><path d="M 95.175781 66.109375 L 149.015625 65.203125 L 150.152344 132.609375 L 96.3125 133.515625 Z M 95.175781 66.109375 " clip-rule="nonzero"/></clipPath><clipPath id="d8b054db3b"><path d="M 96.359375 133.246094 L 128.660156 65.535156 L 155.746094 78.457031 L 123.445312 146.167969 Z M 96.359375 133.246094 " clip-rule="nonzero"/></clipPath><clipPath id="b3ae0b9252"><path d="M 95.03125 65.839844 L 149.179688 64.925781 L 150.320312 132.761719 L 96.171875 133.671875 Z M 95.03125 65.839844 " clip-rule="nonzero"/></clipPath><clipPath id="33b55a19cf"><path d="M 129.753906 132.941406 L 149.421875 91.710938 L 128.648438 65.566406 L 96.359375 133.246094 Z M 129.753906 132.941406 " clip-rule="nonzero"/></clipPath><clipPath id="2bf9c03ef8"><path d="M 95.03125 65.839844 L 155.722656 64.816406 L 157.085938 145.742188 L 96.390625 146.761719 Z M 95.03125 65.839844 " clip-rule="nonzero"/></clipPath><clipPath id="49f7ace81b"><path d="M 96.359375 133.246094 L 128.660156 65.535156 L 155.746094 78.457031 L 123.445312 146.167969 Z M 96.359375 133.246094 " clip-rule="nonzero"/></clipPath><clipPath id="8aaab30c03"><path d="M 95.03125 65.839844 L 149.179688 64.925781 L 150.320312 132.761719 L 96.171875 133.671875 Z M 95.03125 65.839844 " clip-rule="nonzero"/></clipPath><clipPath id="c72c9624cb"><path d="M 129.753906 132.941406 L 149.421875 91.710938 L 128.648438 65.566406 L 96.359375 133.246094 Z M 129.753906 132.941406 " clip-rule="nonzero"/></clipPath><clipPath id="36c6a59490"><path d="M 110 91 L 134 91 L 134 130 L 110 130 Z M 110 91 " clip-rule="nonzero"/></clipPath><clipPath id="ca54ed0e24"><path d="M 95.496094 92.320312 L 132.570312 91.695312 L 133.257812 132.550781 L 96.183594 133.175781 Z M 95.496094 92.320312 " clip-rule="nonzero"/></clipPath><clipPath id="08727e3f7a"><path d="M 95.105469 91.816406 L 132.933594 91.179688 L 133.636719 132.792969 L 95.804688 133.429688 Z M 95.105469 91.816406 " clip-rule="nonzero"/></clipPath><clipPath id="59dd5c7681"><path d="M -42.324219 -32.140625 L 186.167969 -35.988281 L 190.011719 192.503906 L -38.480469 196.351562 Z M -42.324219 -32.140625 " clip-rule="nonzero"/></clipPath><clipPath id="1fbffbe679"><path d="M 95.476562 92.316406 L 132.664062 91.691406 L 133.355469 132.75 L 96.167969 133.375 Z M 95.476562 92.316406 " clip-rule="nonzero"/></clipPath><clipPath id="60dd69bcb0"><path d="M 115.753906 92 L 133.171875 125.417969 L 129.582031 132.621094 L 96.160156 132.898438 L 116.039062 91.996094 Z M 115.753906 92 " clip-rule="nonzero"/></clipPath><clipPath id="f1486c3618"><path d="M 110.109375 74.929688 L 145.8125 74.328125 L 146.738281 129.382812 L 111.039062 129.980469 Z M 110.109375 74.929688 " clip-rule="nonzero"/></clipPath><clipPath id="1eed8f50a9"><path d="M 121.464844 74.804688 L 146.597656 123.773438 L 135.375 129.535156 L 110.238281 80.566406 Z M 121.464844 74.804688 " clip-rule="nonzero"/></clipPath><clipPath id="3c5afe677b"><path d="M 110.0625 74.8125 L 146.0625 74.207031 L 146.992188 129.542969 L 110.992188 130.148438 Z M 110.0625 74.8125 " clip-rule="nonzero"/></clipPath><clipPath id="06753ac1c9"><path d="M 121.464844 74.804688 L 146.597656 123.773438 L 135.375 129.535156 L 110.238281 80.566406 Z M 121.464844 74.804688 " clip-rule="nonzero"/></clipPath><clipPath id="51136ab9e4"><path d="M 96 91 L 134 91 L 134 133 L 96 133 Z M 96 91 " clip-rule="nonzero"/></clipPath><clipPath id="ddd41daea2"><path d="M 95.496094 92.320312 L 132.570312 91.695312 L 133.257812 132.550781 L 96.183594 133.175781 Z M 95.496094 92.320312 " clip-rule="nonzero"/></clipPath><clipPath id="a3ab703b4c"><path d="M 95.105469 91.816406 L 132.933594 91.179688 L 133.636719 132.792969 L 95.804688 133.429688 Z M 95.105469 91.816406 " clip-rule="nonzero"/></clipPath><clipPath id="2424891dae"><path d="M -42.324219 -32.140625 L 186.167969 -35.988281 L 190.011719 192.503906 L -38.480469 196.351562 Z M -42.324219 -32.140625 " clip-rule="nonzero"/></clipPath><clipPath id="be73de0f88"><path d="M 95.476562 92.316406 L 132.664062 91.691406 L 133.355469 132.75 L 96.167969 133.375 Z M 95.476562 92.316406 " clip-rule="nonzero"/></clipPath><clipPath id="59654935cc"><path d="M 115.753906 92 L 133.171875 125.417969 L 129.582031 132.621094 L 96.160156 132.898438 L 116.039062 91.996094 Z M 115.753906 92 " clip-rule="nonzero"/></clipPath><clipPath id="39bf104a8b"><path d="M 91.078125 17.824219 L 181.097656 16.308594 L 183.042969 132.054688 L 93.027344 133.570312 Z M 91.078125 17.824219 " clip-rule="nonzero"/></clipPath><clipPath id="7fac5484b4"><path d="M 117.792969 4.25 L 183.085938 132.066406 L 156.417969 145.6875 L 91.128906 17.871094 Z M 117.792969 4.25 " clip-rule="nonzero"/></clipPath><clipPath id="f04f129560"><path d="M 90.945312 17.695312 L 181.390625 16.175781 L 183.34375 132.207031 L 92.898438 133.726562 Z M 90.945312 17.695312 " clip-rule="nonzero"/></clipPath><clipPath id="45952157f4"><path d="M 124.492188 17.367188 L 183.046875 131.992188 L 149.679688 132.5 L 91.128906 17.871094 Z M 124.492188 17.367188 " clip-rule="nonzero"/></clipPath><clipPath id="12c07364f6"><path d="M 90.726562 4.605469 L 181.171875 3.082031 L 183.5625 145.296875 L 93.121094 146.816406 Z M 90.726562 4.605469 " clip-rule="nonzero"/></clipPath><clipPath id="f4fdd5ea80"><path d="M 117.792969 4.25 L 183.085938 132.066406 L 156.417969 145.6875 L 91.128906 17.871094 Z M 117.792969 4.25 " clip-rule="nonzero"/></clipPath><clipPath id="e67bca5d1e"><path d="M 90.945312 17.695312 L 181.390625 16.175781 L 183.34375 132.207031 L 92.898438 133.726562 Z M 90.945312 17.695312 " clip-rule="nonzero"/></clipPath><clipPath id="1a96d545b5"><path d="M 124.492188 17.367188 L 183.046875 131.992188 L 149.679688 132.5 L 91.128906 17.871094 Z M 124.492188 17.367188 " clip-rule="nonzero"/></clipPath><clipPath id="87079362d1"><path d="M 96 91 L 134 91 L 134 133 L 96 133 Z M 96 91 " clip-rule="nonzero"/></clipPath><clipPath id="e2bf5fcfcf"><path d="M 95.496094 92.320312 L 132.570312 91.695312 L 133.257812 132.550781 L 96.183594 133.175781 Z M 95.496094 92.320312 " clip-rule="nonzero"/></clipPath><clipPath id="59ea7d241d"><path d="M 95.105469 91.816406 L 132.933594 91.179688 L 133.636719 132.792969 L 95.804688 133.429688 Z M 95.105469 91.816406 " clip-rule="nonzero"/></clipPath><clipPath id="dd673bbd60"><path d="M -42.324219 -32.140625 L 186.167969 -35.988281 L 190.011719 192.503906 L -38.480469 196.351562 Z M -42.324219 -32.140625 " clip-rule="nonzero"/></clipPath><clipPath id="d51e044dfb"><path d="M 95.476562 92.316406 L 132.664062 91.691406 L 133.355469 132.75 L 96.167969 133.375 Z M 95.476562 92.316406 " clip-rule="nonzero"/></clipPath><clipPath id="2764c35419"><path d="M 115.753906 92 L 133.171875 125.417969 L 129.582031 132.621094 L 96.160156 132.898438 L 116.039062 91.996094 Z M 115.753906 92 " clip-rule="nonzero"/></clipPath><clipPath id="16f4148c5c"><path d="M 90.945312 17.695312 L 181.390625 16.175781 L 183.34375 132.207031 L 92.898438 133.726562 Z M 90.945312 17.695312 " clip-rule="nonzero"/></clipPath><clipPath id="77708c4194"><path d="M 117.792969 4.25 L 183.074219 132.039062 L 156.441406 145.644531 L 91.164062 17.855469 Z M 117.792969 4.25 " clip-rule="nonzero"/></clipPath><clipPath id="4d7436a33c"><path d="M 90.726562 4.605469 L 181.171875 3.082031 L 183.570312 145.59375 L 93.125 147.117188 Z M 90.726562 4.605469 " clip-rule="nonzero"/></clipPath><clipPath id="91c2db4766"><path d="M 117.796875 4.253906 L 183.222656 132.332031 L 156.449219 146.011719 L 91.023438 17.929688 Z M 117.796875 4.253906 " clip-rule="nonzero"/></clipPath><clipPath id="c80e94db29"><path d="M 90.945312 17.695312 L 181.390625 16.175781 L 183.34375 132.207031 L 92.898438 133.726562 Z M 90.945312 17.695312 " clip-rule="nonzero"/></clipPath><clipPath id="4614537b08"><path d="M 124.496094 17.367188 L 183.046875 131.988281 L 149.679688 132.492188 L 91.128906 17.875 Z M 124.496094 17.367188 " clip-rule="nonzero"/></clipPath><clipPath id="f3d7fb4034"><path d="M 133 18 L 187 18 L 187 85 L 133 85 Z M 133 18 " clip-rule="nonzero"/></clipPath><clipPath id="15fdfa0aac"><path d="M 186.214844 18.332031 L 154.203125 85.007812 L 127.152344 72.019531 L 159.164062 5.34375 Z M 186.214844 18.332031 " clip-rule="nonzero"/></clipPath><clipPath id="56b10ee750"><path d="M 152.820312 18.554688 L 133.5 58.796875 L 154.210938 84.992188 L 186.214844 18.332031 Z M 152.820312 18.554688 " clip-rule="nonzero"/></clipPath><clipPath id="ccc4598185"><path d="M 0.398438 0.238281 L 53.441406 0.238281 L 53.441406 67 L 0.398438 67 Z M 0.398438 0.238281 " clip-rule="nonzero"/></clipPath><clipPath id="d70a9ca84c"><path d="M 53.214844 0.332031 L 21.203125 67.007812 L -5.847656 54.019531 L 26.164062 -12.65625 Z M 53.214844 0.332031 " clip-rule="nonzero"/></clipPath><clipPath id="78c8da6806"><path d="M 19.820312 0.554688 L 0.5 40.796875 L 21.210938 66.992188 L 53.214844 0.332031 Z M 19.820312 0.554688 " clip-rule="nonzero"/></clipPath><clipPath id="02aa267ba7"><rect x="0" width="54" y="0" height="67"/></clipPath><clipPath id="352d5e6ed3"><path d="M 134 20 L 186 20 L 186 83 L 134 83 Z M 134 20 " clip-rule="nonzero"/></clipPath><clipPath id="44da662b92"><path d="M 185.359375 20.183594 L 155.375 82.632812 L 128.324219 69.644531 L 158.308594 7.195312 Z M 185.359375 20.183594 " clip-rule="nonzero"/></clipPath><clipPath id="2adefca750"><path d="M 151.964844 20.40625 L 134.71875 56.328125 L 155.425781 82.527344 L 185.359375 20.183594 Z M 151.964844 20.40625 " clip-rule="nonzero"/></clipPath><clipPath id="0685f8e14e"><path d="M 0.601562 0.160156 L 51.480469 0.160156 L 51.480469 62.558594 L 0.601562 62.558594 Z M 0.601562 0.160156 " clip-rule="nonzero"/></clipPath><clipPath id="90d8461e37"><path d="M 51.359375 0.183594 L 21.375 62.632812 L -5.675781 49.644531 L 24.308594 -12.804688 Z M 51.359375 0.183594 " clip-rule="nonzero"/></clipPath><clipPath id="6e45fe8d35"><path d="M 17.964844 0.40625 L 0.71875 36.328125 L 21.425781 62.527344 L 51.359375 0.183594 Z M 17.964844 0.40625 " clip-rule="nonzero"/></clipPath><clipPath id="acbb42ab7f"><rect x="0" width="52" y="0" height="63"/></clipPath><clipPath id="b909752275"><path d="M 93 17 L 184 17 L 184 133 L 93 133 Z M 93 17 " clip-rule="nonzero"/></clipPath><clipPath id="566bc7b117"><path d="M 120.789062 4.007812 L 183.917969 132.898438 L 157.027344 146.070312 L 93.898438 17.179688 Z M 120.789062 4.007812 " clip-rule="nonzero"/></clipPath><clipPath id="89d946ac71"><path d="M 127.265625 17.234375 L 183.882812 132.828125 L 150.511719 132.769531 L 93.898438 17.179688 Z M 127.265625 17.234375 " clip-rule="nonzero"/></clipPath><clipPath id="b64a407fad"><path d="M 0.800781 0.0390625 L 91 0.0390625 L 91 115.960938 L 0.800781 115.960938 Z M 0.800781 0.0390625 " clip-rule="nonzero"/></clipPath><clipPath id="5081702cc2"><path d="M 27.789062 -12.992188 L 90.917969 115.898438 L 64.027344 129.070312 L 0.898438 0.179688 Z M 27.789062 -12.992188 " clip-rule="nonzero"/></clipPath><clipPath id="bb5e3cbf2e"><path d="M 34.265625 0.234375 L 90.882812 115.828125 L 57.511719 115.769531 L 0.898438 0.179688 Z M 34.265625 0.234375 " clip-rule="nonzero"/></clipPath><clipPath id="c663b16e69"><rect x="0" width="91" y="0" height="116"/></clipPath><clipPath id="b7246d2d7e"><path d="M 93 17 L 184 17 L 184 133 L 93 133 Z M 93 17 " clip-rule="nonzero"/></clipPath><clipPath id="04fdbdb1bd"><path d="M 120.789062 4.007812 L 184.027344 133.125 L 156.847656 146.4375 L 93.605469 17.320312 Z M 120.789062 4.007812 " clip-rule="nonzero"/></clipPath><clipPath id="0b01083cf1"><path d="M 120.792969 4.019531 L 184.042969 133.15625 L 157.050781 146.375 L 93.800781 17.238281 Z M 120.792969 4.019531 " clip-rule="nonzero"/></clipPath><clipPath id="1276b0253d"><path d="M 127.269531 17.242188 L 183.871094 132.804688 L 150.511719 132.75 L 93.910156 17.1875 Z M 127.269531 17.242188 " clip-rule="nonzero"/></clipPath><clipPath id="efa9ffd5bd"><path d="M 378.589844 102.550781 L 382.765625 102.550781 L 382.765625 132.164062 L 378.589844 132.164062 Z M 378.589844 102.550781 " clip-rule="nonzero"/></clipPath><clipPath id="b04e00ae32"><path d="M 0.589844 0.550781 L 4.765625 0.550781 L 4.765625 30.164062 L 0.589844 30.164062 Z M 0.589844 0.550781 " clip-rule="nonzero"/></clipPath><clipPath id="73d4fe26a6"><rect x="0" width="5" y="0" height="31"/></clipPath><clipPath id="de1fb8e329"><path d="M 304.6875 102.632812 L 380.757812 102.632812 L 380.757812 132.164062 L 304.6875 132.164062 Z M 304.6875 102.632812 " clip-rule="nonzero"/></clipPath><clipPath id="0a5af7b625"><path d="M 0.6875 0.632812 L 76.757812 0.632812 L 76.757812 30.164062 L 0.6875 30.164062 Z M 0.6875 0.632812 " clip-rule="nonzero"/></clipPath><clipPath id="0e7b6758c7"><rect x="0" width="77" y="0" height="31"/></clipPath><clipPath id="a3bd089e34"><path d="M 304.6875 17.828125 L 334.171875 17.828125 L 334.171875 101.664062 L 304.6875 101.664062 Z M 304.6875 17.828125 " clip-rule="nonzero"/></clipPath><clipPath id="c17caa1f4f"><path d="M 0.6875 0.828125 L 30.171875 0.828125 L 30.171875 84.664062 L 0.6875 84.664062 Z M 0.6875 0.828125 " clip-rule="nonzero"/></clipPath><clipPath id="a06436d981"><rect x="0" width="31" y="0" height="85"/></clipPath><clipPath id="f46c65e741"><path d="M 304.6875 19.566406 L 334.171875 19.566406 L 334.171875 131.34375 L 304.6875 131.34375 Z M 304.6875 19.566406 " clip-rule="nonzero"/></clipPath><clipPath id="9f8b0bdf43"><path d="M 0.6875 0.566406 L 30.171875 0.566406 L 30.171875 112.34375 L 0.6875 112.34375 Z M 0.6875 0.566406 " clip-rule="nonzero"/></clipPath><clipPath id="f1e2adf2ea"><rect x="0" width="31" y="0" height="113"/></clipPath><clipPath id="04801b950e"><path d="M 74.5625 60.472656 L 107.90625 60.472656 L 107.90625 89.90625 L 74.5625 89.90625 Z M 74.5625 60.472656 " clip-rule="nonzero"/></clipPath><clipPath id="c81c0012d3"><path d="M 100.695312 60.472656 L 81.730469 60.472656 L 74.5625 75.1875 L 81.730469 89.90625 L 100.695312 89.90625 L 107.863281 75.1875 Z M 100.695312 60.472656 " clip-rule="nonzero"/></clipPath><clipPath id="6358408357"><path d="M 0.5625 0.472656 L 33.90625 0.472656 L 33.90625 29.90625 L 0.5625 29.90625 Z M 0.5625 0.472656 " clip-rule="nonzero"/></clipPath><clipPath id="1bd99d2a5d"><path d="M 26.695312 0.472656 L 7.730469 0.472656 L 0.5625 15.1875 L 7.730469 29.90625 L 26.695312 29.90625 L 33.863281 15.1875 Z M 26.695312 0.472656 " clip-rule="nonzero"/></clipPath><clipPath id="28d155598f"><rect x="0" width="34" y="0" height="30"/></clipPath><clipPath id="5c53f78d0a"><path d="M 0.351562 102.683594 L 17.582031 102.683594 L 17.582031 132.179688 L 0.351562 132.179688 Z M 0.351562 102.683594 " clip-rule="nonzero"/></clipPath><clipPath id="9b0d1d3d24"><path d="M 0.351562 0.683594 L 17.582031 0.683594 L 17.582031 30.179688 L 0.351562 30.179688 Z M 0.351562 0.683594 " clip-rule="nonzero"/></clipPath><clipPath id="663177ab96"><rect x="0" width="18" y="0" height="31"/></clipPath><clipPath id="e59aa4b09c"><path d="M 26.351562 102.714844 L 79.382812 102.714844 L 79.382812 132.148438 L 26.351562 132.148438 Z M 26.351562 102.714844 " clip-rule="nonzero"/></clipPath><clipPath id="91f297176e"><path d="M 0.351562 0.714844 L 53.382812 0.714844 L 53.382812 30.148438 L 0.351562 30.148438 Z M 0.351562 0.714844 " clip-rule="nonzero"/></clipPath><clipPath id="f21bdff9db"><rect x="0" width="54" y="0" height="31"/></clipPath><clipPath id="9733a9f862"><path d="M 63.820312 102.757812 L 95.6875 102.757812 L 95.6875 132.105469 L 63.820312 132.105469 Z M 63.820312 102.757812 " clip-rule="nonzero"/></clipPath><clipPath id="75caa75a0d"><path d="M 78.175781 132.105469 L 81.320312 132.105469 L 95.679688 102.757812 L 63.820312 102.757812 Z M 78.175781 132.105469 " clip-rule="nonzero"/></clipPath><clipPath id="05716ae6b9"><path d="M 0.820312 0.757812 L 32.6875 0.757812 L 32.6875 30.105469 L 0.820312 30.105469 Z M 0.820312 0.757812 " clip-rule="nonzero"/></clipPath><clipPath id="b3c426663f"><path d="M 15.175781 30.105469 L 18.320312 30.105469 L 32.679688 0.757812 L 0.820312 0.757812 Z M 15.175781 30.105469 " clip-rule="nonzero"/></clipPath><clipPath id="066524089f"><rect x="0" width="33" y="0" height="31"/></clipPath><clipPath id="bdeaa646dc"><path d="M 46.636719 102.679688 L 93.546875 102.679688 L 93.546875 132.183594 L 46.636719 132.183594 Z M 46.636719 102.679688 " clip-rule="nonzero"/></clipPath><clipPath id="4e44ee8ee9"><path d="M 61.007812 132.183594 L 79.171875 132.183594 L 93.542969 102.679688 L 46.636719 102.679688 Z M 61.007812 132.183594 " clip-rule="nonzero"/></clipPath><clipPath id="7274aa1eea"><path d="M 0.636719 0.679688 L 47.546875 0.679688 L 47.546875 30.183594 L 0.636719 30.183594 Z M 0.636719 0.679688 " clip-rule="nonzero"/></clipPath><clipPath id="79f34ba65b"><path d="M 15.007812 30.183594 L 33.171875 30.183594 L 47.542969 0.679688 L 0.636719 0.679688 Z M 15.007812 30.183594 " clip-rule="nonzero"/></clipPath><clipPath id="1908d687ca"><rect x="0" width="48" y="0" height="31"/></clipPath><clipPath id="052bdcaaac"><path d="M 0.351562 60.359375 L 17.582031 60.359375 L 17.582031 89.859375 L 0.351562 89.859375 Z M 0.351562 60.359375 " clip-rule="nonzero"/></clipPath><clipPath id="02699fe3e6"><path d="M 0.351562 0.359375 L 17.582031 0.359375 L 17.582031 29.859375 L 0.351562 29.859375 Z M 0.351562 0.359375 " clip-rule="nonzero"/></clipPath><clipPath id="43d3f2c0ff"><rect x="0" width="18" y="0" height="30"/></clipPath><clipPath id="bca6904f70"><path d="M 91.511719 60.4375 L 105.847656 60.4375 L 105.847656 89.949219 L 91.511719 89.949219 Z M 91.511719 60.4375 " clip-rule="nonzero"/></clipPath><clipPath id="26f86b55f6"><path d="M 98.679688 60.4375 L 91.511719 75.1875 L 98.679688 89.941406 L 105.847656 75.1875 Z M 98.679688 60.4375 " clip-rule="nonzero"/></clipPath><clipPath id="febb1f0933"><path d="M 0.511719 0.4375 L 14.847656 0.4375 L 14.847656 29.949219 L 0.511719 29.949219 Z M 0.511719 0.4375 " clip-rule="nonzero"/></clipPath><clipPath id="6f7d2cdf76"><path d="M 7.679688 0.4375 L 0.511719 15.1875 L 7.679688 29.941406 L 14.847656 15.1875 Z M 7.679688 0.4375 " clip-rule="nonzero"/></clipPath><clipPath id="03f97a61c5"><rect x="0" width="15" y="0" height="30"/></clipPath><clipPath id="8e2fb0eb0c"><path d="M 26.351562 60.433594 L 98.679688 60.433594 L 98.679688 89.945312 L 26.351562 89.945312 Z M 26.351562 60.433594 " clip-rule="nonzero"/></clipPath><clipPath id="af6fab898f"><path d="M 0.351562 0.433594 L 72.679688 0.433594 L 72.679688 29.945312 L 0.351562 29.945312 Z M 0.351562 0.433594 " clip-rule="nonzero"/></clipPath><clipPath id="422215e51f"><rect x="0" width="73" y="0" height="30"/></clipPath><clipPath id="42f08c7760"><path d="M 0.441406 17.839844 L 17.671875 17.839844 L 17.671875 47.335938 L 0.441406 47.335938 Z M 0.441406 17.839844 " clip-rule="nonzero"/></clipPath><clipPath id="b7959e3a66"><path d="M 0.441406 0.839844 L 17.671875 0.839844 L 17.671875 30.335938 L 0.441406 30.335938 Z M 0.441406 0.839844 " clip-rule="nonzero"/></clipPath><clipPath id="c29cebda6d"><rect x="0" width="18" y="0" height="31"/></clipPath><clipPath id="0c96491781"><path d="M 65.265625 17.867188 L 97.109375 17.867188 L 97.109375 47.296875 L 65.265625 47.296875 Z M 65.265625 17.867188 " clip-rule="nonzero"/></clipPath><clipPath id="4ce0a53752"><path d="M 82.589844 17.867188 L 79.828125 17.867188 L 65.308594 47.296875 L 97.109375 47.296875 Z M 82.589844 17.867188 " clip-rule="nonzero"/></clipPath><clipPath id="dc14e6e4b9"><path d="M 0.265625 0.867188 L 32.109375 0.867188 L 32.109375 30.296875 L 0.265625 30.296875 Z M 0.265625 0.867188 " clip-rule="nonzero"/></clipPath><clipPath id="e0d4444bd7"><path d="M 17.589844 0.867188 L 14.828125 0.867188 L 0.308594 30.296875 L 32.109375 30.296875 Z M 17.589844 0.867188 " clip-rule="nonzero"/></clipPath><clipPath id="26a1cdeaca"><rect x="0" width="33" y="0" height="31"/></clipPath><clipPath id="e863a47507"><path d="M 63.425781 17.859375 L 95.277344 17.859375 L 95.277344 47.296875 L 63.425781 47.296875 Z M 63.425781 17.859375 " clip-rule="nonzero"/></clipPath><clipPath id="8225b2ca5f"><path d="M 80.886719 17.859375 L 77.867188 17.859375 L 63.476562 47.296875 L 95.277344 47.296875 Z M 80.886719 17.859375 " clip-rule="nonzero"/></clipPath><clipPath id="5095c8f86d"><path d="M 0.425781 0.859375 L 32.277344 0.859375 L 32.277344 30.296875 L 0.425781 30.296875 Z M 0.425781 0.859375 " clip-rule="nonzero"/></clipPath><clipPath id="6661898c9e"><path d="M 17.886719 0.859375 L 14.867188 0.859375 L 0.476562 30.296875 L 32.277344 30.296875 Z M 17.886719 0.859375 " clip-rule="nonzero"/></clipPath><clipPath id="f788e5bb1b"><rect x="0" width="33" y="0" height="31"/></clipPath><clipPath id="7f2df915d3"><path d="M 63.496094 17.785156 L 95.277344 17.785156 L 95.277344 47.296875 L 63.496094 47.296875 Z M 63.496094 17.785156 " clip-rule="nonzero"/></clipPath><clipPath id="797e929270"><path d="M 80.890625 17.867188 L 77.871094 17.867188 L 63.484375 47.296875 L 95.277344 47.296875 Z M 80.890625 17.867188 " clip-rule="nonzero"/></clipPath><clipPath id="2217f32df1"><path d="M 26.351562 17.867188 L 80.761719 17.867188 L 80.761719 47.304688 L 26.351562 47.304688 Z M 26.351562 17.867188 " clip-rule="nonzero"/></clipPath><clipPath id="41099e691e"><path d="M 0.351562 0.867188 L 54.761719 0.867188 L 54.761719 30.304688 L 0.351562 30.304688 Z M 0.351562 0.867188 " clip-rule="nonzero"/></clipPath><clipPath id="58dbdf45ae"><rect x="0" width="55" y="0" height="31"/></clipPath><clipPath id="a327976507"><path d="M 26.351562 17.867188 L 80.75 17.867188 L 80.75 47.296875 L 26.351562 47.296875 Z M 26.351562 17.867188 " clip-rule="nonzero"/></clipPath><clipPath id="092ab845da"><path d="M 436.574219 102.769531 L 513.59375 102.769531 L 513.59375 132.175781 L 436.574219 132.175781 Z M 436.574219 102.769531 " clip-rule="nonzero"/></clipPath><clipPath id="b4b75e6d57"><path d="M 0.574219 0.769531 L 77.59375 0.769531 L 77.59375 30.175781 L 0.574219 30.175781 Z M 0.574219 0.769531 " clip-rule="nonzero"/></clipPath><clipPath id="6c722ec542"><rect x="0" width="78" y="0" height="31"/></clipPath><clipPath id="2f2b3d414d"><path d="M 436.558594 102.769531 L 511.613281 102.769531 L 511.613281 132.175781 L 436.558594 132.175781 Z M 436.558594 102.769531 " clip-rule="nonzero"/></clipPath><clipPath id="80394c6ae2"><path d="M 0.558594 0.769531 L 75.613281 0.769531 L 75.613281 30.175781 L 0.558594 30.175781 Z M 0.558594 0.769531 " clip-rule="nonzero"/></clipPath><clipPath id="1bd4396be4"><rect x="0" width="76" y="0" height="31"/></clipPath><clipPath id="58cd7ba781"><path d="M 397.535156 17.878906 L 474.554688 17.878906 L 474.554688 47.28125 L 397.535156 47.28125 Z M 397.535156 17.878906 " clip-rule="nonzero"/></clipPath><clipPath id="e028e14a1b"><path d="M 0.535156 0.878906 L 77.554688 0.878906 L 77.554688 30.28125 L 0.535156 30.28125 Z M 0.535156 0.878906 " clip-rule="nonzero"/></clipPath><clipPath id="c36f7120fc"><rect x="0" width="78" y="0" height="31"/></clipPath><clipPath id="0dd76f6fb2"><path d="M 399.511719 17.875 L 474.5625 17.875 L 474.5625 47.28125 L 399.511719 47.28125 Z M 399.511719 17.875 " clip-rule="nonzero"/></clipPath><clipPath id="db54b85cf3"><path d="M 0.511719 0.875 L 75.5625 0.875 L 75.5625 30.28125 L 0.511719 30.28125 Z M 0.511719 0.875 " clip-rule="nonzero"/></clipPath><clipPath id="db465b0e27"><rect x="0" width="76" y="0" height="31"/></clipPath><clipPath id="a11b38c544"><path d="M 484.242188 17.816406 L 513.597656 17.816406 L 513.597656 95.175781 L 484.242188 95.175781 Z M 484.242188 17.816406 " clip-rule="nonzero"/></clipPath><clipPath id="93f74c1092"><path d="M 0.242188 0.816406 L 29.597656 0.816406 L 29.597656 78.175781 L 0.242188 78.175781 Z M 0.242188 0.816406 " clip-rule="nonzero"/></clipPath><clipPath id="e97b1ac9f0"><rect x="0" width="30" y="0" height="79"/></clipPath><clipPath id="1af494ee90"><path d="M 484.242188 19.808594 L 513.597656 19.808594 L 513.597656 95.1875 L 484.242188 95.1875 Z M 484.242188 19.808594 " clip-rule="nonzero"/></clipPath><clipPath id="c7b893919d"><path d="M 0.242188 0.808594 L 29.597656 0.808594 L 29.597656 76.1875 L 0.242188 76.1875 Z M 0.242188 0.808594 " clip-rule="nonzero"/></clipPath><clipPath id="e579026376"><rect x="0" width="30" y="0" height="77"/></clipPath><clipPath id="8681f1d250"><path d="M 397.53125 54.816406 L 426.882812 54.816406 L 426.882812 132.171875 L 397.53125 132.171875 Z M 397.53125 54.816406 " clip-rule="nonzero"/></clipPath><clipPath id="7a90079de4"><path d="M 0.53125 0.816406 L 29.882812 0.816406 L 29.882812 78.171875 L 0.53125 78.171875 Z M 0.53125 0.816406 " clip-rule="nonzero"/></clipPath><clipPath id="99dfff27bd"><rect x="0" width="30" y="0" height="79"/></clipPath><clipPath id="80ad856a5c"><path d="M 397.53125 54.800781 L 426.886719 54.800781 L 426.886719 130.179688 L 397.53125 130.179688 Z M 397.53125 54.800781 " clip-rule="nonzero"/></clipPath><clipPath id="0e77e7b61a"><path d="M 0.53125 0.800781 L 29.886719 0.800781 L 29.886719 76.179688 L 0.53125 76.179688 Z M 0.53125 0.800781 " clip-rule="nonzero"/></clipPath><clipPath id="0acfb11d7a"><rect x="0" width="30" y="0" height="77"/></clipPath><clipPath id="86a967120a"><path d="M 447.507812 66.414062 L 463.617188 66.414062 L 463.617188 83.308594 L 447.507812 83.308594 Z M 447.507812 66.414062 " clip-rule="nonzero"/></clipPath><clipPath id="2372db8d8b"><path d="M 0.507812 0.414062 L 16.617188 0.414062 L 16.617188 17.308594 L 0.507812 17.308594 Z M 0.507812 0.414062 " clip-rule="nonzero"/></clipPath><clipPath id="2f8252129e"><rect x="0" width="17" y="0" height="18"/></clipPath><clipPath id="91ed1ba361"><path d="M 191.851562 17.875 L 241.347656 17.875 L 241.347656 47.390625 L 191.851562 47.390625 Z M 191.851562 17.875 " clip-rule="nonzero"/></clipPath><clipPath id="fecaa73cf9"><path d="M 0.851562 0.875 L 50.347656 0.875 L 50.347656 30.390625 L 0.851562 30.390625 Z M 0.851562 0.875 " clip-rule="nonzero"/></clipPath><clipPath id="4d120d8a29"><rect x="0" width="51" y="0" height="31"/></clipPath><clipPath id="74fc4d1f28"><path d="M 193.710938 17.875 L 257.953125 17.875 L 257.953125 47.390625 L 193.710938 47.390625 Z M 193.710938 17.875 " clip-rule="nonzero"/></clipPath><clipPath id="3bbe41340e"><path d="M 0.710938 0.875 L 64.953125 0.875 L 64.953125 30.390625 L 0.710938 30.390625 Z M 0.710938 0.875 " clip-rule="nonzero"/></clipPath><clipPath id="7f364e46f3"><rect x="0" width="65" y="0" height="31"/></clipPath><clipPath id="d6fd51c20c"><path d="M 192.109375 53.738281 L 221.417969 53.738281 L 221.417969 132.125 L 192.109375 132.125 Z M 192.109375 53.738281 " clip-rule="nonzero"/></clipPath><clipPath id="c407448a91"><path d="M 0.109375 0.738281 L 29.417969 0.738281 L 29.417969 79.125 L 0.109375 79.125 Z M 0.109375 0.738281 " clip-rule="nonzero"/></clipPath><clipPath id="d855a95f1b"><rect x="0" width="30" y="0" height="80"/></clipPath><clipPath id="7767a1b687"><path d="M 192.109375 53.734375 L 221.417969 53.734375 L 221.417969 130.121094 L 192.109375 130.121094 Z M 192.109375 53.734375 " clip-rule="nonzero"/></clipPath><clipPath id="da62f63859"><path d="M 0.109375 0.734375 L 29.417969 0.734375 L 29.417969 77.121094 L 0.109375 77.121094 Z M 0.109375 0.734375 " clip-rule="nonzero"/></clipPath><clipPath id="6204d9851b"><rect x="0" width="30" y="0" height="78"/></clipPath><clipPath id="fba48ccd00"><path d="M 263.082031 18.425781 L 292.390625 18.425781 L 292.390625 93.332031 L 263.082031 93.332031 Z M 263.082031 18.425781 " clip-rule="nonzero"/></clipPath><clipPath id="8a1532a39d"><path d="M 0.0820312 0.425781 L 29.390625 0.425781 L 29.390625 75.332031 L 0.0820312 75.332031 Z M 0.0820312 0.425781 " clip-rule="nonzero"/></clipPath><clipPath id="b1b2a24d61"><rect x="0" width="30" y="0" height="76"/></clipPath><clipPath id="b2261ef14a"><path d="M 227.5625 67.15625 L 289.738281 67.15625 L 289.738281 96.527344 L 227.5625 96.527344 Z M 227.5625 67.15625 " clip-rule="nonzero"/></clipPath><clipPath id="9a2c1b56ba"><path d="M 0.5625 0.15625 L 62.738281 0.15625 L 62.738281 29.527344 L 0.5625 29.527344 Z M 0.5625 0.15625 " clip-rule="nonzero"/></clipPath><clipPath id="944961379b"><rect x="0" width="63" y="0" height="30"/></clipPath><clipPath id="cdf218b4ae"><path d="M 229.15625 67.15625 L 292.375 67.15625 L 292.375 96.527344 L 229.15625 96.527344 Z M 229.15625 67.15625 " clip-rule="nonzero"/></clipPath><clipPath id="f0c0087a32"><path d="M 0.15625 0.15625 L 63.375 0.15625 L 63.375 29.527344 L 0.15625 29.527344 Z M 0.15625 0.15625 " clip-rule="nonzero"/></clipPath><clipPath id="c1105b6490"><rect x="0" width="64" y="0" height="30"/></clipPath><clipPath id="be9c28ce7a"><path d="M 263.082031 20.355469 L 292.390625 20.355469 L 292.390625 96.523438 L 263.082031 96.523438 Z M 263.082031 20.355469 " clip-rule="nonzero"/></clipPath><clipPath id="2738aad475"><path d="M 0.0820312 0.355469 L 29.390625 0.355469 L 29.390625 76.523438 L 0.0820312 76.523438 Z M 0.0820312 0.355469 " clip-rule="nonzero"/></clipPath><clipPath id="d814e790e8"><rect x="0" width="30" y="0" height="77"/></clipPath><clipPath id="c6ff47f90c"><path d="M 530.386719 54.25 L 559.9375 54.25 L 559.9375 132.160156 L 530.386719 132.160156 Z M 530.386719 54.25 " clip-rule="nonzero"/></clipPath><clipPath id="e670e6a11d"><path d="M 0.386719 0.25 L 29.9375 0.25 L 29.9375 78.160156 L 0.386719 78.160156 Z M 0.386719 0.25 " clip-rule="nonzero"/></clipPath><clipPath id="0392f80ce0"><rect x="0" width="30" y="0" height="79"/></clipPath><clipPath id="27e0caf90f"><path d="M 530.386719 17.960938 L 607.917969 17.960938 L 607.917969 47.308594 L 530.386719 47.308594 Z M 530.386719 17.960938 " clip-rule="nonzero"/></clipPath><clipPath id="e7281f4339"><path d="M 0.386719 0.960938 L 77.917969 0.960938 L 77.917969 30.308594 L 0.386719 30.308594 Z M 0.386719 0.960938 " clip-rule="nonzero"/></clipPath><clipPath id="0475cc16c8"><rect x="0" width="78" y="0" height="31"/></clipPath><clipPath id="11aa80052b"><path d="M 532.375 17.835938 L 646.019531 17.835938 L 646.019531 47.421875 L 532.375 47.421875 Z M 532.375 17.835938 " clip-rule="nonzero"/></clipPath><clipPath id="d1f3008c2b"><path d="M 0.375 0.835938 L 114.019531 0.835938 L 114.019531 30.421875 L 0.375 30.421875 Z M 0.375 0.835938 " clip-rule="nonzero"/></clipPath><clipPath id="1624ece28e"><rect x="0" width="115" y="0" height="31"/></clipPath><clipPath id="e98942d069"><path d="M 569.8125 102.640625 L 646.027344 102.640625 L 646.027344 132.070312 L 569.8125 132.070312 Z M 569.8125 102.640625 " clip-rule="nonzero"/></clipPath><clipPath id="ab999d9b65"><path d="M 0.8125 0.640625 L 77.027344 0.640625 L 77.027344 30.070312 L 0.8125 30.070312 Z M 0.8125 0.640625 " clip-rule="nonzero"/></clipPath><clipPath id="8d8019584c"><rect x="0" width="78" y="0" height="31"/></clipPath><clipPath id="6bb7695758"><path d="M 530.5625 102.5625 L 644.066406 102.5625 L 644.066406 132.152344 L 530.5625 132.152344 Z M 530.5625 102.5625 " clip-rule="nonzero"/></clipPath><clipPath id="53f8f59c2d"><path d="M 0.5625 0.5625 L 114.066406 0.5625 L 114.066406 30.152344 L 0.5625 30.152344 Z M 0.5625 0.5625 " clip-rule="nonzero"/></clipPath><clipPath id="5a12530b6f"><rect x="0" width="115" y="0" height="31"/></clipPath><clipPath id="3f57a36051"><path d="M 589.207031 60.65625 L 646.027344 60.65625 L 646.027344 90.140625 L 589.207031 90.140625 Z M 589.207031 60.65625 " clip-rule="nonzero"/></clipPath><clipPath id="a372ed7000"><path d="M 0.207031 0.65625 L 57 0.65625 L 57 30.140625 L 0.207031 30.140625 Z M 0.207031 0.65625 " clip-rule="nonzero"/></clipPath><clipPath id="0f40f45a43"><rect x="0" width="58" y="0" height="31"/></clipPath><clipPath id="999d4e4222"><path d="M 732.347656 60.511719 L 765.703125 60.511719 L 765.703125 89.859375 L 732.347656 89.859375 Z M 732.347656 60.511719 " clip-rule="nonzero"/></clipPath><clipPath id="f6c6070230"><path d="M 758.480469 60.511719 L 739.515625 60.511719 L 732.347656 75.183594 L 739.515625 89.859375 L 758.480469 89.859375 L 765.648438 75.183594 Z M 758.480469 60.511719 " clip-rule="nonzero"/></clipPath><clipPath id="a65a3b8fd0"><path d="M 0.347656 0.511719 L 33.703125 0.511719 L 33.703125 29.859375 L 0.347656 29.859375 Z M 0.347656 0.511719 " clip-rule="nonzero"/></clipPath><clipPath id="ecc18d7dad"><path d="M 26.480469 0.511719 L 7.515625 0.511719 L 0.347656 15.183594 L 7.515625 29.859375 L 26.480469 29.859375 L 33.648438 15.183594 Z M 26.480469 0.511719 " clip-rule="nonzero"/></clipPath><clipPath id="b9c9e852c6"><rect x="0" width="34" y="0" height="30"/></clipPath><clipPath id="3f183a7cee"><path d="M 658.136719 102.683594 L 675.367188 102.683594 L 675.367188 132.179688 L 658.136719 132.179688 Z M 658.136719 102.683594 " clip-rule="nonzero"/></clipPath><clipPath id="4d63e126a5"><path d="M 0.136719 0.683594 L 17.367188 0.683594 L 17.367188 30.179688 L 0.136719 30.179688 Z M 0.136719 0.683594 " clip-rule="nonzero"/></clipPath><clipPath id="1a6b4c281c"><rect x="0" width="18" y="0" height="31"/></clipPath><clipPath id="e00a1e4b6b"><path d="M 684.136719 102.714844 L 737.167969 102.714844 L 737.167969 132.148438 L 684.136719 132.148438 Z M 684.136719 102.714844 " clip-rule="nonzero"/></clipPath><clipPath id="9787d14384"><path d="M 0.136719 0.714844 L 53.167969 0.714844 L 53.167969 30.148438 L 0.136719 30.148438 Z M 0.136719 0.714844 " clip-rule="nonzero"/></clipPath><clipPath id="277d4ca4db"><rect x="0" width="54" y="0" height="31"/></clipPath><clipPath id="e87bc17c8f"><path d="M 721.601562 102.757812 L 753.472656 102.757812 L 753.472656 132.105469 L 721.601562 132.105469 Z M 721.601562 102.757812 " clip-rule="nonzero"/></clipPath><clipPath id="b7780d1c44"><path d="M 735.960938 132.105469 L 739.105469 132.105469 L 753.464844 102.757812 L 721.601562 102.757812 Z M 735.960938 132.105469 " clip-rule="nonzero"/></clipPath><clipPath id="d97d196b4b"><path d="M 0.601562 0.757812 L 32.472656 0.757812 L 32.472656 30.105469 L 0.601562 30.105469 Z M 0.601562 0.757812 " clip-rule="nonzero"/></clipPath><clipPath id="2a6225bf18"><path d="M 14.960938 30.105469 L 18.105469 30.105469 L 32.464844 0.757812 L 0.601562 0.757812 Z M 14.960938 30.105469 " clip-rule="nonzero"/></clipPath><clipPath id="7599540f7f"><rect x="0" width="33" y="0" height="31"/></clipPath><clipPath id="862bd41728"><path d="M 704.421875 102.679688 L 751.332031 102.679688 L 751.332031 132.183594 L 704.421875 132.183594 Z M 704.421875 102.679688 " clip-rule="nonzero"/></clipPath><clipPath id="b9b37f336f"><path d="M 718.789062 132.183594 L 736.957031 132.183594 L 751.328125 102.679688 L 704.421875 102.679688 Z M 718.789062 132.183594 " clip-rule="nonzero"/></clipPath><clipPath id="37d7096762"><path d="M 0.421875 0.679688 L 47.332031 0.679688 L 47.332031 30.183594 L 0.421875 30.183594 Z M 0.421875 0.679688 " clip-rule="nonzero"/></clipPath><clipPath id="9e1349f628"><path d="M 14.789062 30.183594 L 32.957031 30.183594 L 47.328125 0.679688 L 0.421875 0.679688 Z M 14.789062 30.183594 " clip-rule="nonzero"/></clipPath><clipPath id="154a3442db"><rect x="0" width="48" y="0" height="31"/></clipPath><clipPath id="3fc4adc16f"><path d="M 658.136719 60.359375 L 675.367188 60.359375 L 675.367188 89.859375 L 658.136719 89.859375 Z M 658.136719 60.359375 " clip-rule="nonzero"/></clipPath><clipPath id="b049d11114"><path d="M 0.136719 0.359375 L 17.367188 0.359375 L 17.367188 29.859375 L 0.136719 29.859375 Z M 0.136719 0.359375 " clip-rule="nonzero"/></clipPath><clipPath id="5879fb6bbe"><rect x="0" width="18" y="0" height="30"/></clipPath><clipPath id="93b0c3b613"><path d="M 749.292969 60.433594 L 763.632812 60.433594 L 763.632812 89.945312 L 749.292969 89.945312 Z M 749.292969 60.433594 " clip-rule="nonzero"/></clipPath><clipPath id="ac5cd37b67"><path d="M 756.460938 60.433594 L 749.292969 75.183594 L 756.460938 89.9375 L 763.632812 75.183594 Z M 756.460938 60.433594 " clip-rule="nonzero"/></clipPath><clipPath id="39dd16f922"><path d="M 0.292969 0.433594 L 14.632812 0.433594 L 14.632812 29.945312 L 0.292969 29.945312 Z M 0.292969 0.433594 " clip-rule="nonzero"/></clipPath><clipPath id="5962cd49cc"><path d="M 7.460938 0.433594 L 0.292969 15.183594 L 7.460938 29.9375 L 14.632812 15.183594 Z M 7.460938 0.433594 " clip-rule="nonzero"/></clipPath><clipPath id="eb6dfd1a8d"><rect x="0" width="15" y="0" height="30"/></clipPath><clipPath id="1cb189ca87"><path d="M 684.136719 60.429688 L 756.460938 60.429688 L 756.460938 89.941406 L 684.136719 89.941406 Z M 684.136719 60.429688 " clip-rule="nonzero"/></clipPath><clipPath id="62879e1eef"><path d="M 0.136719 0.429688 L 72.460938 0.429688 L 72.460938 29.941406 L 0.136719 29.941406 Z M 0.136719 0.429688 " clip-rule="nonzero"/></clipPath><clipPath id="c25688ae5b"><rect x="0" width="73" y="0" height="30"/></clipPath><clipPath id="6a476cd493"><path d="M 658.226562 17.839844 L 675.453125 17.839844 L 675.453125 47.335938 L 658.226562 47.335938 Z M 658.226562 17.839844 " clip-rule="nonzero"/></clipPath><clipPath id="dfb876da30"><path d="M 0.226562 0.839844 L 17.453125 0.839844 L 17.453125 30.335938 L 0.226562 30.335938 Z M 0.226562 0.839844 " clip-rule="nonzero"/></clipPath><clipPath id="de09ec25d6"><rect x="0" width="18" y="0" height="31"/></clipPath><clipPath id="7a5e425b12"><path d="M 723.046875 17.851562 L 754.894531 17.851562 L 754.894531 47.28125 L 723.046875 47.28125 Z M 723.046875 17.851562 " clip-rule="nonzero"/></clipPath><clipPath id="18f6b4ac0b"><path d="M 740.375 17.851562 L 737.613281 17.851562 L 723.09375 47.28125 L 754.894531 47.28125 Z M 740.375 17.851562 " clip-rule="nonzero"/></clipPath><clipPath id="79993130d7"><path d="M 0.078125 0.851562 L 31.894531 0.851562 L 31.894531 30.28125 L 0.078125 30.28125 Z M 0.078125 0.851562 " clip-rule="nonzero"/></clipPath><clipPath id="61b5b11232"><path d="M 17.375 0.851562 L 14.613281 0.851562 L 0.09375 30.28125 L 31.894531 30.28125 Z M 17.375 0.851562 " clip-rule="nonzero"/></clipPath><clipPath id="03f6a67333"><rect x="0" width="32" y="0" height="31"/></clipPath><clipPath id="636a15c2ed"><path d="M 721.253906 17.816406 L 753.058594 17.816406 L 753.058594 47.316406 L 721.253906 47.316406 Z M 721.253906 17.816406 " clip-rule="nonzero"/></clipPath><clipPath id="04a6998f45"><path d="M 738.667969 17.816406 L 735.648438 17.816406 L 721.257812 47.316406 L 753.058594 47.316406 Z M 738.667969 17.816406 " clip-rule="nonzero"/></clipPath><clipPath id="165d50089c"><path d="M 0.253906 0.816406 L 32.058594 0.816406 L 32.058594 30.316406 L 0.253906 30.316406 Z M 0.253906 0.816406 " clip-rule="nonzero"/></clipPath><clipPath id="9b8906f86b"><path d="M 17.667969 0.816406 L 14.648438 0.816406 L 0.257812 30.316406 L 32.058594 30.316406 Z M 17.667969 0.816406 " clip-rule="nonzero"/></clipPath><clipPath id="272765a30a"><rect x="0" width="33" y="0" height="31"/></clipPath><clipPath id="3df9c109d8"><path d="M 721.277344 17.804688 L 753.058594 17.804688 L 753.058594 47.316406 L 721.277344 47.316406 Z M 721.277344 17.804688 " clip-rule="nonzero"/></clipPath><clipPath id="f2d8123609"><path d="M 738.671875 17.820312 L 735.652344 17.820312 L 721.265625 47.316406 L 753.058594 47.316406 Z M 738.671875 17.820312 " clip-rule="nonzero"/></clipPath><clipPath id="07468530c6"><path d="M 684.136719 17.816406 L 738.546875 17.816406 L 738.546875 47.324219 L 684.136719 47.324219 Z M 684.136719 17.816406 " clip-rule="nonzero"/></clipPath><clipPath id="b97f8b4dbd"><path d="M 0.136719 0.816406 L 54.546875 0.816406 L 54.546875 30.324219 L 0.136719 30.324219 Z M 0.136719 0.816406 " clip-rule="nonzero"/></clipPath><clipPath id="05cb1a27a8"><rect x="0" width="55" y="0" height="31"/></clipPath><clipPath id="c61fece7c5"><path d="M 684.136719 17.816406 L 738.535156 17.816406 L 738.535156 47.316406 L 684.136719 47.316406 Z M 684.136719 17.816406 " clip-rule="nonzero"/></clipPath><clipPath id="416adb87a5"><rect x="0" width="766" y="0" height="150"/></clipPath></defs><g transform="matrix(1, 0, 0, 1, 1, -0.000000000000007527)"><g clip-path="url(#416adb87a5)"><g clip-path="url(#0adf703975)"><g clip-path="url(#b3d8d01d6f)"><g clip-path="url(#b3a68eba8e)"><g clip-path="url(#d025afcf5d)"><g clip-path="url(#3065488e55)"><g clip-path="url(#553b6888bc)"><g clip-path="url(#df83bdd3f4)"><g clip-path="url(#db762d7377)"><g clip-path="url(#5f8a3c2c18)"><g clip-path="url(#f0e7383aee)"><g clip-path="url(#b202e580d5)"><g clip-path="url(#81c5e24e94)"><g clip-path="url(#e645917e97)"><g clip-path="url(#05eae9120b)"><path fill="#000000" d="M 183.453125 17.480469 L 146.546875 97.789062 L 119.28125 85.257812 L 156.1875 4.949219 Z M 183.453125 17.480469 " fill-opacity="1" fill-rule="nonzero"/></g></g></g></g></g></g></g></g></g></g></g></g></g></g><g clip-path="url(#eb1bde5001)"><g clip-path="url(#31a844c6e5)"><g clip-path="url(#0a317c1c12)"><g clip-path="url(#a7c9ccb809)"><g clip-path="url(#ea15b431cb)"><g clip-path="url(#e82aa0217a)"><g clip-path="url(#2d8c7615a0)"><g clip-path="url(#d8b054db3b)"><g clip-path="url(#b3ae0b9252)"><g clip-path="url(#33b55a19cf)"><g clip-path="url(#2bf9c03ef8)"><g clip-path="url(#49f7ace81b)"><g clip-path="url(#8aaab30c03)"><g clip-path="url(#c72c9624cb)"><path fill="#000000" d="M 96.359375 133.246094 L 128.660156 65.535156 L 155.746094 78.457031 L 123.445312 146.167969 Z M 96.359375 133.246094 " fill-opacity="1" fill-rule="nonzero"/></g></g></g></g></g></g></g></g></g></g></g></g></g></g><g clip-path="url(#36c6a59490)"><g clip-path="url(#ca54ed0e24)"><g clip-path="url(#08727e3f7a)"><g clip-path="url(#59dd5c7681)"><g clip-path="url(#1fbffbe679)"><g clip-path="url(#60dd69bcb0)"><g clip-path="url(#f1486c3618)"><g clip-path="url(#1eed8f50a9)"><g clip-path="url(#3c5afe677b)"><g clip-path="url(#06753ac1c9)"><path fill="#ffffff" d="M 121.464844 74.804688 L 146.601562 123.78125 L 135.378906 129.542969 L 110.238281 80.566406 Z M 121.464844 74.804688 " fill-opacity="1" fill-rule="nonzero"/></g></g></g></g></g></g></g></g></g></g><g clip-path="url(#51136ab9e4)"><g clip-path="url(#ddd41daea2)"><g clip-path="url(#a3ab703b4c)"><g clip-path="url(#2424891dae)"><g clip-path="url(#be73de0f88)"><g clip-path="url(#59654935cc)"><g clip-path="url(#39bf104a8b)"><g clip-path="url(#7fac5484b4)"><g clip-path="url(#f04f129560)"><g clip-path="url(#45952157f4)"><g clip-path="url(#12c07364f6)"><g clip-path="url(#f4fdd5ea80)"><g clip-path="url(#e67bca5d1e)"><g clip-path="url(#1a96d545b5)"><path fill="#ffffff" d="M 117.792969 4.25 L 183.03125 131.960938 L 156.363281 145.582031 L 91.128906 17.871094 Z M 117.792969 4.25 " fill-opacity="1" fill-rule="nonzero"/></g></g></g></g></g></g></g></g></g></g></g></g></g></g><g clip-path="url(#87079362d1)"><g clip-path="url(#e2bf5fcfcf)"><g clip-path="url(#59ea7d241d)"><g clip-path="url(#dd673bbd60)"><g clip-path="url(#d51e044dfb)"><g clip-path="url(#2764c35419)"><g clip-path="url(#16f4148c5c)"><g clip-path="url(#77708c4194)"><g clip-path="url(#4d7436a33c)"><g clip-path="url(#91c2db4766)"><g clip-path="url(#c80e94db29)"><g clip-path="url(#4614537b08)"><path stroke-linecap="butt" transform="matrix(0.101522, 0.19874, -0.19874, 0.101522, 117.795502, 4.253623)" fill="none" stroke-linejoin="miter" d="M 65.987231 -0.00733649 L 642.724457 -0.00459602 L 576.719159 134.171743 L -0.00247951 134.176965 Z M 65.987231 -0.00733649 " stroke="#000000" stroke-width="4" stroke-opacity="1" stroke-miterlimit="4"/></g></g></g></g></g></g></g></g></g></g></g></g><g clip-path="url(#f3d7fb4034)"><g clip-path="url(#15fdfa0aac)"><g clip-path="url(#56b10ee750)"><g transform="matrix(1, 0, 0, 1, 133, 18)"><g clip-path="url(#02aa267ba7)"><g clip-path="url(#ccc4598185)"><g clip-path="url(#d70a9ca84c)"><g clip-path="url(#78c8da6806)"><path fill="#20bc61" d="M 53.214844 0.332031 L 21.203125 67.007812 L -5.847656 54.019531 L 26.164062 -12.65625 Z M 53.214844 0.332031 " fill-opacity="1" fill-rule="nonzero"/></g></g></g></g></g></g></g></g><g clip-path="url(#352d5e6ed3)"><g clip-path="url(#44da662b92)"><g clip-path="url(#2adefca750)"><g transform="matrix(1, 0, 0, 1, 134, 20)"><g clip-path="url(#acbb42ab7f)"><g clip-path="url(#0685f8e14e)"><g clip-path="url(#90d8461e37)"><g clip-path="url(#6e45fe8d35)"><path fill="#000000" d="M 51.359375 0.183594 L 21.425781 62.527344 L -5.625 49.539062 L 24.308594 -12.804688 Z M 51.359375 0.183594 " fill-opacity="1" fill-rule="nonzero"/></g></g></g></g></g></g></g></g><g clip-path="url(#b909752275)"><g clip-path="url(#566bc7b117)"><g clip-path="url(#89d946ac71)"><g transform="matrix(1, 0, 0, 1, 93, 17)"><g clip-path="url(#c663b16e69)"><g clip-path="url(#b64a407fad)"><g clip-path="url(#5081702cc2)"><g clip-path="url(#bb5e3cbf2e)"><path fill="#20bc61" d="M 27.789062 -12.992188 L 90.867188 115.796875 L 63.976562 128.964844 L 0.898438 0.179688 Z M 27.789062 -12.992188 " fill-opacity="1" fill-rule="nonzero"/></g></g></g></g></g></g></g></g><g clip-path="url(#b7246d2d7e)"><g clip-path="url(#04fdbdb1bd)"><g clip-path="url(#0b01083cf1)"><g clip-path="url(#1276b0253d)"><path stroke-linecap="butt" transform="matrix(0.332844, 0.67957, -0.67957, 0.332844, 120.794338, 4.018164)" fill="none" stroke-linejoin="miter" d="M 19.458369 0.00207577 L 189.511025 0.00129511 L 170.054837 39.560839 L 0.00218095 39.561619 Z M 19.458369 0.00207577 " stroke="#000000" stroke-width="3.964561" stroke-opacity="1" stroke-miterlimit="4"/></g></g></g></g><g clip-path="url(#efa9ffd5bd)"><g transform="matrix(1, 0, 0, 1, 378, 102)"><g clip-path="url(#73d4fe26a6)"><g clip-path="url(#b04e00ae32)"><path fill="#20bc61" d="M 0.589844 0.550781 L 4.765625 0.550781 L 4.765625 30.160156 L 0.589844 30.160156 Z M 0.589844 0.550781 " fill-opacity="1" fill-rule="nonzero"/></g></g></g></g><g clip-path="url(#de1fb8e329)"><g transform="matrix(1, 0, 0, 1, 304, 102)"><g clip-path="url(#0e7b6758c7)"><g clip-path="url(#0a5af7b625)"><path fill="#000000" d="M 0.6875 0.632812 L 76.707031 0.632812 L 76.707031 30.164062 L 0.6875 30.164062 Z M 0.6875 0.632812 " fill-opacity="1" fill-rule="nonzero"/></g></g></g></g><g clip-path="url(#a3bd089e34)"><g transform="matrix(1, 0, 0, 1, 304, 17)"><g clip-path="url(#a06436d981)"><g clip-path="url(#c17caa1f4f)"><path fill="#20bc61" d="M 0.6875 84.664062 L 0.6875 0.816406 L 30.171875 0.816406 L 30.171875 84.664062 Z M 0.6875 84.664062 " fill-opacity="1" fill-rule="nonzero"/></g></g></g></g><g clip-path="url(#f46c65e741)"><g transform="matrix(1, 0, 0, 1, 304, 19)"><g clip-path="url(#f1e2adf2ea)"><g clip-path="url(#9f8b0bdf43)"><path fill="#000000" d="M 0.6875 112.34375 L 0.6875 0.507812 L 30.171875 0.507812 L 30.171875 112.34375 Z M 0.6875 112.34375 " fill-opacity="1" fill-rule="nonzero"/></g></g></g></g><g clip-path="url(#04801b950e)"><g clip-path="url(#c81c0012d3)"><g transform="matrix(1, 0, 0, 1, 74, 60)"><g clip-path="url(#28d155598f)"><g clip-path="url(#6358408357)"><g clip-path="url(#1bd99d2a5d)"><path fill="#20bc61" d="M 0.5625 0.472656 L 33.90625 0.472656 L 33.90625 29.90625 L 0.5625 29.90625 Z M 0.5625 0.472656 " fill-opacity="1" fill-rule="nonzero"/></g></g></g></g></g></g><g clip-path="url(#5c53f78d0a)"><g transform="matrix(1, 0, 0, 1, 0.000000000000000222, 102)"><g clip-path="url(#663177ab96)"><g clip-path="url(#9b0d1d3d24)"><path fill="#20bc61" d="M 0.351562 0.683594 L 17.582031 0.683594 L 17.582031 30.160156 L 0.351562 30.160156 Z M 0.351562 0.683594 " fill-opacity="1" fill-rule="nonzero"/></g></g></g></g><g clip-path="url(#e59aa4b09c)"><g transform="matrix(1, 0, 0, 1, 26, 102)"><g clip-path="url(#f21bdff9db)"><g clip-path="url(#91f297176e)"><path fill="#000000" d="M 0.351562 0.714844 L 53.359375 0.714844 L 53.359375 30.148438 L 0.351562 30.148438 Z M 0.351562 0.714844 " fill-opacity="1" fill-rule="nonzero"/></g></g></g></g><g clip-path="url(#9733a9f862)"><g clip-path="url(#75caa75a0d)"><g transform="matrix(1, 0, 0, 1, 63, 102)"><g clip-path="url(#066524089f)"><g clip-path="url(#05716ae6b9)"><g clip-path="url(#b3c426663f)"><path fill="#20bc61" d="M 0.820312 0.757812 L 32.6875 0.757812 L 32.6875 30.105469 L 0.820312 30.105469 Z M 0.820312 0.757812 " fill-opacity="1" fill-rule="nonzero"/></g></g></g></g></g></g><g clip-path="url(#bdeaa646dc)"><g clip-path="url(#4e44ee8ee9)"><g transform="matrix(1, 0, 0, 1, 46, 102)"><g clip-path="url(#1908d687ca)"><g clip-path="url(#7274aa1eea)"><g clip-path="url(#79f34ba65b)"><path fill="#000000" d="M 0.636719 0.679688 L 47.546875 0.679688 L 47.546875 30.183594 L 0.636719 30.183594 Z M 0.636719 0.679688 " fill-opacity="1" fill-rule="nonzero"/></g></g></g></g></g></g><g clip-path="url(#052bdcaaac)"><g transform="matrix(1, 0, 0, 1, 0.000000000000000222, 60)"><g clip-path="url(#43d3f2c0ff)"><g clip-path="url(#02699fe3e6)"><path fill="#20bc61" d="M 0.351562 0.359375 L 17.582031 0.359375 L 17.582031 29.835938 L 0.351562 29.835938 Z M 0.351562 0.359375 " fill-opacity="1" fill-rule="nonzero"/></g></g></g></g><g clip-path="url(#bca6904f70)"><g clip-path="url(#26f86b55f6)"><g transform="matrix(1, 0, 0, 1, 91, 60)"><g clip-path="url(#03f97a61c5)"><g clip-path="url(#febb1f0933)"><g clip-path="url(#6f7d2cdf76)"><path fill="#000000" d="M 0.511719 0.4375 L 14.847656 0.4375 L 14.847656 29.949219 L 0.511719 29.949219 Z M 0.511719 0.4375 " fill-opacity="1" fill-rule="nonzero"/></g></g></g></g></g></g><g clip-path="url(#8e2fb0eb0c)"><g transform="matrix(1, 0, 0, 1, 26, 60)"><g clip-path="url(#422215e51f)"><g clip-path="url(#af6fab898f)"><path fill="#000000" d="M 0.351562 0.433594 L 72.632812 0.433594 L 72.632812 29.945312 L 0.351562 29.945312 Z M 0.351562 0.433594 " fill-opacity="1" fill-rule="nonzero"/></g></g></g></g><g clip-path="url(#42f08c7760)"><g transform="matrix(1, 0, 0, 1, 0.000000000000000222, 17)"><g clip-path="url(#c29cebda6d)"><g clip-path="url(#b7959e3a66)"><path fill="#20bc61" d="M 0.441406 0.839844 L 17.671875 0.839844 L 17.671875 30.316406 L 0.441406 30.316406 Z M 0.441406 0.839844 " fill-opacity="1" fill-rule="nonzero"/></g></g></g></g><g clip-path="url(#0c96491781)"><g clip-path="url(#4ce0a53752)"><g transform="matrix(1, 0, 0, 1, 65, 17)"><g clip-path="url(#26a1cdeaca)"><g clip-path="url(#dc14e6e4b9)"><g clip-path="url(#e0d4444bd7)"><path fill="#20bc61" d="M 32.109375 30.296875 L 0.265625 30.296875 L 0.265625 0.867188 L 32.109375 0.867188 Z M 32.109375 30.296875 " fill-opacity="1" fill-rule="nonzero"/></g></g></g></g></g></g><g clip-path="url(#e863a47507)"><g clip-path="url(#8225b2ca5f)"><g transform="matrix(1, 0, 0, 1, 63, 17)"><g clip-path="url(#f788e5bb1b)"><g clip-path="url(#5095c8f86d)"><g clip-path="url(#6661898c9e)"><path fill="#000000" d="M 32.277344 30.296875 L 0.425781 30.296875 L 0.425781 0.859375 L 32.277344 0.859375 Z M 32.277344 30.296875 " fill-opacity="1" fill-rule="nonzero"/></g></g></g></g></g></g><g clip-path="url(#7f2df915d3)"><g clip-path="url(#797e929270)"><path stroke-linecap="butt" transform="matrix(-0.756704, 0, 0, -0.756704, 95.275391, 47.295806)" fill="none" stroke-linejoin="miter" d="M 19.009763 38.890521 L 23.000135 38.890521 L 42.012478 -0.00141318 L -0.00258036 -0.00141318 Z M 19.009763 38.890521 " stroke="#000000" stroke-width="1.982281" stroke-opacity="1" stroke-miterlimit="4"/></g></g><g clip-path="url(#2217f32df1)"><g transform="matrix(1, 0, 0, 1, 26, 17)"><g clip-path="url(#58dbdf45ae)"><g clip-path="url(#41099e691e)"><path fill="#000000" d="M 0.351562 0.867188 L 54.738281 0.867188 L 54.738281 30.304688 L 0.351562 30.304688 Z M 0.351562 0.867188 " fill-opacity="1" fill-rule="nonzero"/></g></g></g></g><g clip-path="url(#a327976507)"><path stroke-linecap="butt" transform="matrix(0.756704, 0, 0, 0.756704, 26.352842, 17.867107)" fill="none" stroke-linejoin="miter" d="M -0.00169057 0.000106755 L 71.886957 0.000106755 L 71.886957 38.892041 L -0.00169057 38.892041 Z M -0.00169057 0.000106755 " stroke="#000000" stroke-width="1.982281" stroke-opacity="1" stroke-miterlimit="4"/></g><g clip-path="url(#092ab845da)"><g transform="matrix(1, 0, 0, 1, 436, 102)"><g clip-path="url(#6c722ec542)"><g clip-path="url(#b4b75e6d57)"><path fill="#20bc61" d="M 0.574219 0.769531 L 77.644531 0.769531 L 77.644531 30.175781 L 0.574219 30.175781 Z M 0.574219 0.769531 " fill-opacity="1" fill-rule="nonzero"/></g></g></g></g><g clip-path="url(#2f2b3d414d)"><g transform="matrix(1, 0, 0, 1, 436, 102)"><g clip-path="url(#1bd4396be4)"><g clip-path="url(#80394c6ae2)"><path fill="#000000" d="M 0.558594 0.769531 L 75.566406 0.769531 L 75.566406 30.175781 L 0.558594 30.175781 Z M 0.558594 0.769531 " fill-opacity="1" fill-rule="nonzero"/></g></g></g></g><g clip-path="url(#58cd7ba781)"><g transform="matrix(1, 0, 0, 1, 397, 17)"><g clip-path="url(#c36f7120fc)"><g clip-path="url(#e028e14a1b)"><path fill="#20bc61" d="M 77.554688 30.28125 L 0.484375 30.28125 L 0.484375 0.878906 L 77.554688 0.878906 Z M 77.554688 30.28125 " fill-opacity="1" fill-rule="nonzero"/></g></g></g></g><g clip-path="url(#0dd76f6fb2)"><g transform="matrix(1, 0, 0, 1, 399, 17)"><g clip-path="url(#db465b0e27)"><g clip-path="url(#db54b85cf3)"><path fill="#000000" d="M 75.5625 30.28125 L 0.558594 30.28125 L 0.558594 0.875 L 75.5625 0.875 Z M 75.5625 30.28125 " fill-opacity="1" fill-rule="nonzero"/></g></g></g></g><g clip-path="url(#a11b38c544)"><g transform="matrix(1, 0, 0, 1, 484, 17)"><g clip-path="url(#e97b1ac9f0)"><g clip-path="url(#93f74c1092)"><path fill="#20bc61" d="M 0.242188 78.175781 L 0.242188 0.773438 L 29.597656 0.773438 L 29.597656 78.175781 Z M 0.242188 78.175781 " fill-opacity="1" fill-rule="nonzero"/></g></g></g></g><g clip-path="url(#1af494ee90)"><g transform="matrix(1, 0, 0, 1, 484, 19)"><g clip-path="url(#e579026376)"><g clip-path="url(#c7b893919d)"><path fill="#000000" d="M 0.242188 76.1875 L 0.242188 0.851562 L 29.597656 0.851562 L 29.597656 76.1875 Z M 0.242188 76.1875 " fill-opacity="1" fill-rule="nonzero"/></g></g></g></g><g clip-path="url(#8681f1d250)"><g transform="matrix(1, 0, 0, 1, 397, 54)"><g clip-path="url(#99dfff27bd)"><g clip-path="url(#7a90079de4)"><path fill="#20bc61" d="M 29.882812 0.816406 L 29.882812 78.21875 L 0.53125 78.21875 L 0.53125 0.816406 Z M 29.882812 0.816406 " fill-opacity="1" fill-rule="nonzero"/></g></g></g></g><g clip-path="url(#80ad856a5c)"><g transform="matrix(1, 0, 0, 1, 397, 54)"><g clip-path="url(#0acfb11d7a)"><g clip-path="url(#0e77e7b61a)"><path fill="#000000" d="M 29.886719 0.800781 L 29.886719 76.136719 L 0.53125 76.136719 L 0.53125 0.800781 Z M 29.886719 0.800781 " fill-opacity="1" fill-rule="nonzero"/></g></g></g></g><g clip-path="url(#86a967120a)"><g transform="matrix(1, 0, 0, 1, 447, 66)"><g clip-path="url(#2f8252129e)"><g clip-path="url(#2372db8d8b)"><path fill="#20bc61" d="M 16.617188 0.414062 L 16.617188 17.339844 L 0.507812 17.339844 L 0.507812 0.414062 Z M 16.617188 0.414062 " fill-opacity="1" fill-rule="nonzero"/></g></g></g></g><g clip-path="url(#91ed1ba361)"><g transform="matrix(1, 0, 0, 1, 191, 17)"><g clip-path="url(#4d120d8a29)"><g clip-path="url(#fecaa73cf9)"><path fill="#20bc61" d="M 0.851562 0.875 L 50.3125 0.875 L 50.3125 30.390625 L 0.851562 30.390625 Z M 0.851562 0.875 " fill-opacity="1" fill-rule="nonzero"/></g></g></g></g><g clip-path="url(#74fc4d1f28)"><g transform="matrix(1, 0, 0, 1, 193, 17)"><g clip-path="url(#7f364e46f3)"><g clip-path="url(#3bbe41340e)"><path fill="#000000" d="M 0.710938 0.875 L 64.929688 0.875 L 64.929688 30.390625 L 0.710938 30.390625 Z M 0.710938 0.875 " fill-opacity="1" fill-rule="nonzero"/></g></g></g></g><g clip-path="url(#d6fd51c20c)"><g transform="matrix(1, 0, 0, 1, 192, 53)"><g clip-path="url(#d855a95f1b)"><g clip-path="url(#c407448a91)"><path fill="#20bc61" d="M 29.417969 0.738281 L 29.417969 79.160156 L 0.109375 79.160156 L 0.109375 0.738281 Z M 29.417969 0.738281 " fill-opacity="1" fill-rule="nonzero"/></g></g></g></g><g clip-path="url(#7767a1b687)"><g transform="matrix(1, 0, 0, 1, 192, 53)"><g clip-path="url(#6204d9851b)"><g clip-path="url(#da62f63859)"><path fill="#000000" d="M 29.417969 0.734375 L 29.417969 77.097656 L 0.109375 77.097656 L 0.109375 0.734375 Z M 29.417969 0.734375 " fill-opacity="1" fill-rule="nonzero"/></g></g></g></g><g clip-path="url(#fba48ccd00)"><g transform="matrix(1, 0, 0, 1, 263, 18)"><g clip-path="url(#b1b2a24d61)"><g clip-path="url(#8a1532a39d)"><path fill="#20bc61" d="M 0.0820312 75.332031 L 0.0820312 0.457031 L 29.390625 0.457031 L 29.390625 75.332031 Z M 0.0820312 75.332031 " fill-opacity="1" fill-rule="nonzero"/></g></g></g></g><g clip-path="url(#b2261ef14a)"><g transform="matrix(1, 0, 0, 1, 227, 67)"><g clip-path="url(#944961379b)"><g clip-path="url(#9a2c1b56ba)"><path fill="#20bc61" d="M 62.738281 29.527344 L 0.550781 29.527344 L 0.550781 0.15625 L 62.738281 0.15625 Z M 62.738281 29.527344 " fill-opacity="1" fill-rule="nonzero"/></g></g></g></g><g clip-path="url(#cdf218b4ae)"><g transform="matrix(1, 0, 0, 1, 229, 67)"><g clip-path="url(#c1105b6490)"><g clip-path="url(#f0c0087a32)"><path fill="#000000" d="M 63.375 29.527344 L 0.160156 29.527344 L 0.160156 0.15625 L 63.375 0.15625 Z M 63.375 29.527344 " fill-opacity="1" fill-rule="nonzero"/></g></g></g></g><g clip-path="url(#be9c28ce7a)"><g transform="matrix(1, 0, 0, 1, 263, 20)"><g clip-path="url(#d814e790e8)"><g clip-path="url(#2738aad475)"><path fill="#000000" d="M 0.0820312 76.523438 L 0.0820312 0.390625 L 29.390625 0.390625 L 29.390625 76.523438 Z M 0.0820312 76.523438 " fill-opacity="1" fill-rule="nonzero"/></g></g></g></g><g clip-path="url(#c6ff47f90c)"><g transform="matrix(1, 0, 0, 1, 530, 54)"><g clip-path="url(#0392f80ce0)"><g clip-path="url(#e670e6a11d)"><path fill="#000000" d="M 29.9375 0.25 L 29.9375 78.167969 L 0.386719 78.167969 L 0.386719 0.25 Z M 29.9375 0.25 " fill-opacity="1" fill-rule="nonzero"/></g></g></g></g><g clip-path="url(#27e0caf90f)"><g transform="matrix(1, 0, 0, 1, 530, 17)"><g clip-path="url(#0475cc16c8)"><g clip-path="url(#e7281f4339)"><path fill="#20bc61" d="M 77.917969 30.308594 L 0.425781 30.308594 L 0.425781 0.960938 L 77.917969 0.960938 Z M 77.917969 30.308594 " fill-opacity="1" fill-rule="nonzero"/></g></g></g></g><g clip-path="url(#11aa80052b)"><g transform="matrix(1, 0, 0, 1, 532, 17)"><g clip-path="url(#1624ece28e)"><g clip-path="url(#d1f3008c2b)"><path fill="#000000" d="M 114.019531 30.421875 L 0.40625 30.421875 L 0.40625 0.835938 L 114.019531 0.835938 Z M 114.019531 30.421875 " fill-opacity="1" fill-rule="nonzero"/></g></g></g></g><g clip-path="url(#e98942d069)"><g transform="matrix(1, 0, 0, 1, 569, 102)"><g clip-path="url(#8d8019584c)"><g clip-path="url(#ab999d9b65)"><path fill="#20bc61" d="M 0.8125 0.640625 L 77.035156 0.640625 L 77.035156 30.070312 L 0.8125 30.070312 Z M 0.8125 0.640625 " fill-opacity="1" fill-rule="nonzero"/></g></g></g></g><g clip-path="url(#6bb7695758)"><g transform="matrix(1, 0, 0, 1, 530, 102)"><g clip-path="url(#5a12530b6f)"><g clip-path="url(#53f8f59c2d)"><path fill="#000000" d="M 0.5625 0.5625 L 114.0625 0.5625 L 114.0625 30.152344 L 0.5625 30.152344 Z M 0.5625 0.5625 " fill-opacity="1" fill-rule="nonzero"/></g></g></g></g><g clip-path="url(#3f57a36051)"><g transform="matrix(1, 0, 0, 1, 589, 60)"><g clip-path="url(#0f40f45a43)"><g clip-path="url(#a372ed7000)"><path fill="#20bc61" d="M 0.207031 0.65625 L 56.992188 0.65625 L 56.992188 30.140625 L 0.207031 30.140625 Z M 0.207031 0.65625 " fill-opacity="1" fill-rule="nonzero"/></g></g></g></g><g clip-path="url(#999d4e4222)"><g clip-path="url(#f6c6070230)"><g transform="matrix(1, 0, 0, 1, 732, 60)"><g clip-path="url(#b9c9e852c6)"><g clip-path="url(#a65a3b8fd0)"><g clip-path="url(#ecc18d7dad)"><path fill="#20bc61" d="M 0.347656 0.511719 L 33.703125 0.511719 L 33.703125 29.859375 L 0.347656 29.859375 Z M 0.347656 0.511719 " fill-opacity="1" fill-rule="nonzero"/></g></g></g></g></g></g><g clip-path="url(#3f183a7cee)"><g transform="matrix(1, 0, 0, 1, 658, 102)"><g clip-path="url(#1a6b4c281c)"><g clip-path="url(#4d63e126a5)"><path fill="#20bc61" d="M 0.136719 0.683594 L 17.367188 0.683594 L 17.367188 30.160156 L 0.136719 30.160156 Z M 0.136719 0.683594 " fill-opacity="1" fill-rule="nonzero"/></g></g></g></g><g clip-path="url(#e00a1e4b6b)"><g transform="matrix(1, 0, 0, 1, 684, 102)"><g clip-path="url(#277d4ca4db)"><g clip-path="url(#9787d14384)"><path fill="#000000" d="M 0.136719 0.714844 L 53.144531 0.714844 L 53.144531 30.148438 L 0.136719 30.148438 Z M 0.136719 0.714844 " fill-opacity="1" fill-rule="nonzero"/></g></g></g></g><g clip-path="url(#e87bc17c8f)"><g clip-path="url(#b7780d1c44)"><g transform="matrix(1, 0, 0, 1, 721, 102)"><g clip-path="url(#7599540f7f)"><g clip-path="url(#d97d196b4b)"><g clip-path="url(#2a6225bf18)"><path fill="#20bc61" d="M 0.601562 0.757812 L 32.472656 0.757812 L 32.472656 30.105469 L 0.601562 30.105469 Z M 0.601562 0.757812 " fill-opacity="1" fill-rule="nonzero"/></g></g></g></g></g></g><g clip-path="url(#862bd41728)"><g clip-path="url(#b9b37f336f)"><g transform="matrix(1, 0, 0, 1, 704, 102)"><g clip-path="url(#154a3442db)"><g clip-path="url(#37d7096762)"><g clip-path="url(#9e1349f628)"><path fill="#000000" d="M 0.421875 0.679688 L 47.332031 0.679688 L 47.332031 30.183594 L 0.421875 30.183594 Z M 0.421875 0.679688 " fill-opacity="1" fill-rule="nonzero"/></g></g></g></g></g></g><g clip-path="url(#3fc4adc16f)"><g transform="matrix(1, 0, 0, 1, 658, 60)"><g clip-path="url(#5879fb6bbe)"><g clip-path="url(#b049d11114)"><path fill="#20bc61" d="M 0.136719 0.359375 L 17.367188 0.359375 L 17.367188 29.835938 L 0.136719 29.835938 Z M 0.136719 0.359375 " fill-opacity="1" fill-rule="nonzero"/></g></g></g></g><g clip-path="url(#93b0c3b613)"><g clip-path="url(#ac5cd37b67)"><g transform="matrix(1, 0, 0, 1, 749, 60)"><g clip-path="url(#eb6dfd1a8d)"><g clip-path="url(#39dd16f922)"><g clip-path="url(#5962cd49cc)"><path fill="#000000" d="M 0.292969 0.433594 L 14.632812 0.433594 L 14.632812 29.945312 L 0.292969 29.945312 Z M 0.292969 0.433594 " fill-opacity="1" fill-rule="nonzero"/></g></g></g></g></g></g><g clip-path="url(#1cb189ca87)"><g transform="matrix(1, 0, 0, 1, 684, 60)"><g clip-path="url(#c25688ae5b)"><g clip-path="url(#62879e1eef)"><path fill="#000000" d="M 0.136719 0.429688 L 72.414062 0.429688 L 72.414062 29.941406 L 0.136719 29.941406 Z M 0.136719 0.429688 " fill-opacity="1" fill-rule="nonzero"/></g></g></g></g><g clip-path="url(#6a476cd493)"><g transform="matrix(1, 0, 0, 1, 658, 17)"><g clip-path="url(#de09ec25d6)"><g clip-path="url(#dfb876da30)"><path fill="#20bc61" d="M 0.226562 0.839844 L 17.453125 0.839844 L 17.453125 30.316406 L 0.226562 30.316406 Z M 0.226562 0.839844 " fill-opacity="1" fill-rule="nonzero"/></g></g></g></g><g clip-path="url(#7a5e425b12)"><g clip-path="url(#18f6b4ac0b)"><g transform="matrix(1, 0, 0, 1, 723, 17)"><g clip-path="url(#03f6a67333)"><g clip-path="url(#79993130d7)"><g clip-path="url(#61b5b11232)"><path fill="#20bc61" d="M 31.894531 30.28125 L 0.046875 30.28125 L 0.046875 0.851562 L 31.894531 0.851562 Z M 31.894531 30.28125 " fill-opacity="1" fill-rule="nonzero"/></g></g></g></g></g></g><g clip-path="url(#636a15c2ed)"><g clip-path="url(#04a6998f45)"><g transform="matrix(1, 0, 0, 1, 721, 17)"><g clip-path="url(#272765a30a)"><g clip-path="url(#165d50089c)"><g clip-path="url(#9b8906f86b)"><path fill="#000000" d="M 32.058594 30.316406 L 0.253906 30.316406 L 0.253906 0.816406 L 32.058594 0.816406 Z M 32.058594 30.316406 " fill-opacity="1" fill-rule="nonzero"/></g></g></g></g></g></g><g clip-path="url(#3df9c109d8)"><g clip-path="url(#f2d8123609)"><path stroke-linecap="butt" transform="matrix(-0.756704, 0, 0, -0.756704, 753.059874, 47.315826)" fill="none" stroke-linejoin="miter" d="M 19.014036 38.978925 L 23.004408 38.978925 L 42.016751 -0.000766231 L 0.00169242 -0.000766231 Z M 19.014036 38.978925 " stroke="#000000" stroke-width="1.982281" stroke-opacity="1" stroke-miterlimit="4"/></g></g><g clip-path="url(#07468530c6)"><g transform="matrix(1, 0, 0, 1, 684, 17)"><g clip-path="url(#05cb1a27a8)"><g clip-path="url(#b97f8b4dbd)"><path fill="#000000" d="M 0.136719 0.816406 L 54.539062 0.816406 L 54.539062 30.324219 L 0.136719 30.324219 Z M 0.136719 0.816406 " fill-opacity="1" fill-rule="nonzero"/></g></g></g></g><g clip-path="url(#c61fece7c5)"><path stroke-linecap="butt" transform="matrix(0.756704, 0, 0, 0.756704, 684.13651, 17.816092)" fill="none" stroke-linejoin="miter" d="M 0.000275294 0.000415815 L 71.888923 0.000415815 L 71.888923 38.985269 L 0.000275294 38.985269 Z M 0.000275294 0.000415815 " stroke="#000000" stroke-width="1.982281" stroke-opacity="1" stroke-miterlimit="4"/></g></g></g></svg>