<svg xmlns="http://www.w3.org/2000/svg" xmlns:xlink="http://www.w3.org/1999/xlink" width="1024" zoomAndPan="magnify" viewBox="0 0 768 767.999994" height="1024" preserveAspectRatio="xMidYMid meet" version="1.0"><defs><clipPath id="fdaf494b94"><path d="M 127.699219 93.597656 L 639.976562 93.597656 L 639.976562 674.542969 L 127.699219 674.542969 Z M 127.699219 93.597656 " clip-rule="nonzero"/></clipPath></defs><g clip-path="url(#fdaf494b94)"><path fill="#1fbc61" d="M 611.605469 386.972656 L 523.589844 386.972656 C 507.394531 386.972656 494.25 373.832031 494.25 357.632812 L 494.25 269.617188 C 494.25 269.089844 494.371094 268.601562 494.40625 268.09375 L 417.875 191.558594 L 375.394531 191.558594 L 321.820312 245.128906 C 322.679688 248.339844 323.269531 251.644531 323.269531 255.125 L 323.269531 372.480469 C 323.269531 375.960938 322.660156 379.265625 321.820312 382.476562 L 351.078125 411.734375 C 351.589844 411.714844 352.078125 411.578125 352.609375 411.578125 L 440.621094 411.578125 C 456.816406 411.578125 469.960938 424.722656 469.960938 440.917969 L 469.960938 528.933594 C 469.960938 545.125 456.816406 558.269531 440.621094 558.269531 L 352.609375 558.269531 C 352.078125 558.269531 351.589844 558.15625 351.078125 558.113281 L 304.980469 604.214844 L 304.980469 654.8125 C 304.980469 665.609375 296.21875 674.371094 285.421875 674.371094 L 226.746094 674.371094 C 215.945312 674.371094 207.1875 665.609375 207.1875 654.8125 L 207.1875 596.136719 C 207.1875 585.339844 215.945312 576.578125 226.746094 576.578125 L 277.324219 576.578125 L 323.425781 530.476562 C 323.40625 529.96875 323.269531 529.460938 323.269531 528.953125 L 323.269531 440.9375 C 323.269531 440.40625 323.386719 439.921875 323.425781 439.410156 L 294.164062 410.148438 C 290.957031 411.011719 287.632812 411.597656 284.148438 411.597656 L 166.816406 411.597656 C 145.207031 411.597656 127.699219 394.089844 127.699219 372.480469 L 127.699219 255.125 C 127.699219 233.515625 145.207031 216.007812 166.816406 216.007812 L 284.171875 216.007812 C 287.652344 216.007812 290.957031 216.617188 294.183594 217.457031 L 347.738281 163.902344 L 347.738281 113.324219 C 347.738281 102.527344 356.5 93.765625 367.292969 93.765625 L 425.972656 93.765625 C 436.769531 93.765625 445.53125 102.527344 445.53125 113.324219 L 445.53125 163.902344 L 522.085938 240.457031 C 522.59375 240.4375 523.082031 240.300781 523.609375 240.300781 L 611.625 240.300781 C 627.820312 240.300781 640.964844 253.445312 640.964844 269.640625 L 640.964844 357.652344 C 640.964844 373.847656 627.820312 386.992188 611.625 386.992188 Z M 611.605469 386.972656 " fill-opacity="1" fill-rule="nonzero"/></g></svg>