<svg xmlns="http://www.w3.org/2000/svg" xmlns:xlink="http://www.w3.org/1999/xlink" width="1024" zoomAndPan="magnify" viewBox="0 0 768 767.999994" height="1024" preserveAspectRatio="xMidYMid meet" version="1.0"><defs><clipPath id="ca19fc0f75"><path d="M 63.640625 19.953125 L 704.140625 19.953125 L 704.140625 748 L 63.640625 748 Z M 63.640625 19.953125 " clip-rule="nonzero"/></clipPath><clipPath id="24b6fc9ef5"><path d="M 0.640625 2 L 641.140625 2 L 641.140625 728.359375 L 0.640625 728.359375 Z M 0.640625 2 " clip-rule="nonzero"/></clipPath><clipPath id="bfec1ca686"><rect x="0" width="642" y="0" height="729"/></clipPath></defs><g clip-path="url(#ca19fc0f75)"><g transform="matrix(1, 0, 0, 1, 63, 19)"><g clip-path="url(#bfec1ca686)"><g clip-path="url(#24b6fc9ef5)"><path fill="#1fbc61" d="M 605.671875 368.8125 L 495.625 368.8125 C 475.375 368.8125 458.941406 352.378906 458.941406 332.128906 L 458.941406 222.082031 C 458.941406 221.421875 459.089844 220.8125 459.136719 220.175781 L 363.449219 124.484375 L 310.332031 124.484375 L 243.351562 191.464844 C 244.425781 195.476562 245.160156 199.609375 245.160156 203.960938 L 245.160156 350.691406 C 245.160156 355.042969 244.402344 359.175781 243.351562 363.1875 L 279.933594 399.769531 C 280.570312 399.746094 281.183594 399.574219 281.84375 399.574219 L 391.886719 399.574219 C 412.136719 399.574219 428.570312 416.007812 428.570312 436.257812 L 428.570312 546.304688 C 428.570312 566.550781 412.136719 582.984375 391.886719 582.984375 L 281.84375 582.984375 C 281.183594 582.984375 280.570312 582.839844 279.933594 582.789062 L 222.296875 640.429688 L 222.296875 703.691406 C 222.296875 717.191406 211.339844 728.148438 197.839844 728.148438 L 124.476562 728.148438 C 110.976562 728.148438 100.023438 717.191406 100.023438 703.691406 L 100.023438 630.328125 C 100.023438 616.828125 110.976562 605.875 124.476562 605.875 L 187.714844 605.875 L 245.355469 548.234375 C 245.332031 547.597656 245.160156 546.964844 245.160156 546.328125 L 245.160156 436.28125 C 245.160156 435.621094 245.308594 435.011719 245.355469 434.375 L 208.773438 397.789062 C 204.761719 398.867188 200.605469 399.601562 196.25 399.601562 L 49.546875 399.601562 C 22.527344 399.601562 0.640625 377.710938 0.640625 350.691406 L 0.640625 203.960938 C 0.640625 176.941406 22.527344 155.054688 49.546875 155.054688 L 196.277344 155.054688 C 200.628906 155.054688 204.761719 155.8125 208.796875 156.863281 L 275.753906 89.90625 L 275.753906 26.667969 C 275.753906 13.167969 286.710938 2.210938 300.207031 2.210938 L 373.570312 2.210938 C 387.070312 2.210938 398.027344 13.167969 398.027344 26.667969 L 398.027344 89.90625 L 493.742188 185.621094 C 494.378906 185.597656 494.988281 185.425781 495.648438 185.425781 L 605.695312 185.425781 C 625.945312 185.425781 642.378906 201.859375 642.378906 222.109375 L 642.378906 332.152344 C 642.378906 352.402344 625.945312 368.835938 605.695312 368.835938 Z M 605.671875 368.8125 " fill-opacity="1" fill-rule="nonzero"/></g></g></g></g></svg>